<?xml version="1.0" encoding="UTF-8" ?>
<!DOCTYPE svg PUBLIC "-//W3C//DTD SVG 1.1//EN" "http://www.w3.org/Graphics/SVG/1.1/DTD/svg11.dtd">
<svg width="452pt" height="479pt" viewBox="0 0 452 479" version="1.1" xmlns="http://www.w3.org/2000/svg">
<g id="#ffffffff">
<path fill="#ffffff" opacity="1.00" d=" M 0.00 0.00 L 452.00 0.00 L 452.00 479.00 L 0.00 479.00 L 0.00 0.00 M 234.21 98.21 C 230.92 101.26 229.83 105.83 228.99 110.07 C 229.63 114.86 230.58 119.75 232.97 124.03 C 234.68 127.70 237.80 131.48 242.00 132.07 C 247.27 131.40 250.27 125.98 251.23 121.21 C 253.82 113.91 254.70 104.82 249.63 98.35 C 247.83 95.37 244.07 95.02 241.11 93.81 C 238.76 95.19 236.07 96.13 234.21 98.21 M 220.69 183.69 C 204.74 189.10 191.66 203.21 189.07 220.08 C 188.90 222.62 189.16 225.17 188.89 227.71 C 187.30 230.19 184.10 228.71 181.86 228.17 C 172.81 229.01 164.18 232.54 156.79 237.78 C 152.68 240.23 149.42 243.82 146.69 247.69 C 143.29 251.43 142.66 256.58 141.24 261.22 C 140.89 264.82 139.60 268.32 139.98 271.98 C 140.93 279.82 143.53 287.51 147.83 294.17 C 149.72 296.77 152.53 299.18 152.13 302.72 C 141.12 309.48 134.27 322.14 133.97 334.96 C 134.52 339.10 135.41 343.23 136.87 347.15 C 143.12 361.23 158.77 370.05 174.02 369.03 C 180.32 369.72 185.77 366.15 191.67 364.77 C 195.10 381.11 210.05 394.11 226.73 395.27 C 231.73 397.11 236.76 395.00 241.80 394.81 C 250.10 392.52 258.41 388.77 264.27 382.27 C 267.94 379.10 270.22 374.58 271.32 369.92 C 273.85 369.70 276.22 370.46 278.46 371.58 C 282.69 372.55 287.13 373.81 291.44 372.44 C 297.47 371.51 304.26 370.38 308.28 365.28 C 312.11 362.09 313.90 357.32 315.90 352.91 C 317.49 349.47 316.95 345.63 317.02 341.96 C 317.27 336.84 313.45 332.49 313.92 327.32 C 324.04 325.15 331.47 317.52 338.19 310.17 C 341.90 305.31 344.44 299.61 345.62 293.61 C 348.61 284.59 346.61 274.93 343.89 266.10 C 339.04 254.28 329.88 243.59 317.44 239.56 C 310.70 236.07 303.07 237.19 295.79 236.97 C 299.48 225.85 294.54 214.40 289.32 204.66 C 286.06 199.45 281.94 194.67 276.87 191.14 C 261.37 178.52 239.02 177.03 220.69 183.69 M 369.02 183.03 C 362.06 186.86 357.43 193.56 352.77 199.76 C 350.83 201.95 350.83 204.86 351.02 207.61 C 351.82 208.41 352.62 209.22 353.40 210.05 C 362.55 209.82 370.64 204.91 378.15 200.17 C 381.76 197.13 385.98 193.95 386.85 189.00 C 386.27 185.02 383.20 181.88 379.63 180.27 C 375.80 178.91 372.26 181.29 369.02 183.03 M 70.65 213.60 C 65.96 215.60 62.73 222.24 66.57 226.46 C 71.56 234.28 80.80 237.57 89.40 239.59 C 93.77 240.38 98.54 242.27 102.72 239.80 C 103.16 238.85 103.62 237.90 104.09 236.97 C 101.42 231.30 97.29 226.51 92.77 222.23 C 88.93 217.82 83.04 216.28 77.81 214.19 C 75.48 213.80 72.89 212.08 70.65 213.60 M 248.29 412.27 C 245.74 414.74 242.30 416.31 240.60 419.58 C 239.38 421.01 237.74 424.11 235.55 422.73 C 231.28 416.35 224.59 412.00 217.40 409.59 C 211.40 407.11 204.53 407.52 198.40 409.37 C 194.55 410.92 191.23 413.49 187.84 415.84 C 184.88 420.03 181.83 424.30 180.11 429.19 C 178.89 433.12 180.38 437.12 181.20 440.97 C 177.19 441.09 173.17 440.82 169.17 441.11 C 165.25 442.37 160.58 443.58 158.56 447.56 C 156.01 451.79 154.41 456.86 155.06 461.85 C 156.73 465.55 158.17 469.97 161.98 472.03 C 167.33 474.19 172.95 475.93 178.75 476.25 C 185.73 478.16 193.15 475.72 200.08 477.97 C 228.39 478.11 256.72 477.91 285.04 478.07 C 291.78 477.34 298.69 476.12 304.64 472.65 C 308.94 469.60 311.20 464.65 312.90 459.83 C 313.11 456.62 313.12 453.38 312.88 450.18 C 311.33 443.14 306.07 437.07 299.19 434.83 C 295.30 433.32 291.05 434.22 287.00 434.01 C 286.95 430.38 287.13 426.76 286.94 423.15 C 284.29 415.48 276.59 411.42 269.58 408.39 C 266.86 407.72 264.08 406.51 261.23 407.13 C 256.76 408.31 251.91 409.18 248.29 412.27 Z" />
</g>
<g id="#3b1103ff">
<path fill="#3b1103" opacity="1.00" d=" M 234.21 98.21 C 236.07 96.13 238.76 95.19 241.11 93.81 C 244.07 95.02 247.83 95.37 249.63 98.35 C 254.70 104.82 253.82 113.91 251.23 121.21 C 250.27 125.98 247.27 131.40 242.00 132.07 C 237.80 131.48 234.68 127.70 232.97 124.03 C 230.58 119.75 229.63 114.86 228.99 110.07 C 229.83 105.83 230.92 101.26 234.21 98.21 M 240.44 98.45 C 236.97 100.35 234.07 103.88 233.94 107.98 C 233.35 115.09 235.68 122.50 240.30 127.94 C 243.50 128.80 244.70 125.08 245.88 122.86 C 248.27 116.71 250.42 109.62 247.84 103.18 C 246.96 100.16 243.64 97.44 240.44 98.45 Z" />
<path fill="#3b1103" opacity="1.00" d=" M 369.02 183.03 C 372.26 181.29 375.80 178.91 379.63 180.27 C 383.20 181.88 386.27 185.02 386.85 189.00 C 385.98 193.95 381.76 197.13 378.15 200.17 C 370.64 204.91 362.55 209.82 353.40 210.05 C 352.62 209.22 351.82 208.41 351.02 207.61 C 350.83 204.86 350.83 201.95 352.77 199.76 C 357.43 193.56 362.06 186.86 369.02 183.03 M 372.89 184.89 C 368.12 187.21 364.63 191.37 361.47 195.50 C 359.12 198.67 356.24 201.53 354.79 205.26 C 364.05 203.42 373.13 199.63 380.23 193.28 C 382.71 191.19 383.23 186.52 380.43 184.50 C 378.07 183.40 375.18 183.76 372.89 184.89 Z" />
</g>
<g id="#9a2f07ff">
<path fill="#9a2f07" opacity="1.00" d=" M 240.44 98.45 C 243.64 97.44 246.96 100.16 247.84 103.18 C 250.42 109.62 248.27 116.71 245.88 122.86 C 244.70 125.08 243.50 128.80 240.30 127.94 C 235.68 122.50 233.35 115.09 233.94 107.98 C 234.07 103.88 236.97 100.35 240.44 98.45 Z" />
</g>
<g id="#3a1003ff">
<path fill="#3a1003" opacity="1.00" d=" M 220.69 183.69 C 239.02 177.03 261.37 178.52 276.87 191.14 C 281.94 194.67 286.06 199.45 289.32 204.66 C 294.54 214.40 299.48 225.85 295.79 236.97 C 303.07 237.19 310.70 236.07 317.44 239.56 C 329.88 243.59 339.04 254.28 343.89 266.10 C 346.61 274.93 348.61 284.59 345.62 293.61 C 344.44 299.61 341.90 305.31 338.19 310.17 C 331.47 317.52 324.04 325.15 313.92 327.32 C 313.45 332.49 317.27 336.84 317.02 341.96 C 316.95 345.63 317.49 349.47 315.90 352.91 C 313.90 357.32 312.11 362.09 308.28 365.28 C 304.26 370.38 297.47 371.51 291.44 372.44 C 287.13 373.81 282.69 372.55 278.46 371.58 C 276.22 370.46 273.85 369.70 271.32 369.92 C 270.22 374.58 267.94 379.10 264.27 382.27 C 258.41 388.77 250.10 392.52 241.80 394.81 C 236.76 395.00 231.73 397.11 226.73 395.27 C 210.05 394.11 195.10 381.11 191.67 364.77 C 185.77 366.15 180.32 369.72 174.02 369.03 C 158.77 370.05 143.12 361.23 136.87 347.15 C 135.41 343.23 134.52 339.10 133.97 334.96 C 134.27 322.14 141.12 309.48 152.13 302.72 C 152.53 299.18 149.72 296.77 147.83 294.17 C 143.53 287.51 140.93 279.82 139.98 271.98 C 139.60 268.32 140.89 264.82 141.24 261.22 C 142.66 256.58 143.29 251.43 146.69 247.69 C 149.42 243.82 152.68 240.23 156.79 237.78 C 164.18 232.54 172.81 229.01 181.86 228.17 C 184.10 228.71 187.30 230.19 188.89 227.71 C 189.16 225.17 188.90 222.62 189.07 220.08 C 191.66 203.21 204.74 189.10 220.69 183.69 M 230.99 184.93 C 218.89 187.43 207.54 194.15 199.99 204.00 C 193.68 212.51 192.31 223.64 193.90 233.90 C 190.26 233.60 186.64 232.95 182.98 232.96 C 170.21 233.39 157.72 239.86 150.35 250.36 C 145.92 256.60 144.62 264.52 144.88 272.03 C 144.85 280.28 148.31 288.20 153.39 294.58 C 155.74 297.92 159.39 299.94 162.27 302.77 C 158.71 304.63 155.03 306.32 151.81 308.75 C 145.57 313.60 141.32 320.75 139.45 328.38 C 137.20 339.33 141.75 351.60 151.13 357.86 C 161.04 364.43 174.31 367.33 185.54 362.47 C 189.24 361.16 190.66 356.45 194.71 355.94 C 195.93 360.67 195.57 365.80 197.80 370.25 C 202.49 380.22 211.88 388.34 222.91 390.17 C 233.66 392.18 245.55 391.25 254.65 384.68 C 262.46 380.05 267.24 371.72 268.86 362.94 C 274.77 366.05 281.23 368.70 288.06 368.05 C 294.74 367.48 302.26 366.22 306.80 360.78 C 312.39 354.19 314.66 344.68 311.57 336.46 C 310.34 331.56 306.25 328.32 303.98 323.98 C 308.35 323.67 312.91 323.84 317.00 322.00 C 322.70 319.47 327.57 315.38 331.84 310.89 C 346.33 295.24 345.96 268.29 330.83 253.18 C 324.41 246.25 315.23 242.31 305.94 241.20 C 300.56 240.49 295.23 241.89 289.86 242.08 C 291.19 237.24 293.13 232.39 292.65 227.28 C 291.99 218.46 288.49 209.88 283.07 202.92 C 274.37 192.52 261.68 185.23 248.06 184.05 C 242.37 183.98 236.57 183.52 230.99 184.93 Z" />
</g>
<g id="#c16d0dff">
<path fill="#c16d0d" opacity="1.00" d=" M 230.99 184.93 C 236.57 183.52 242.37 183.98 248.06 184.05 C 261.68 185.23 274.37 192.52 283.07 202.92 C 288.49 209.88 291.99 218.46 292.65 227.28 C 293.13 232.39 291.19 237.24 289.86 242.08 C 295.23 241.89 300.56 240.49 305.94 241.20 C 315.23 242.31 324.41 246.25 330.83 253.18 C 345.96 268.29 346.33 295.24 331.84 310.89 C 327.57 315.38 322.70 319.47 317.00 322.00 C 312.91 323.84 308.35 323.67 303.98 323.98 C 306.25 328.32 310.34 331.56 311.57 336.46 C 314.66 344.68 312.39 354.19 306.80 360.78 C 302.26 366.22 294.74 367.48 288.06 368.05 C 281.23 368.70 274.77 366.05 268.86 362.94 C 267.24 371.72 262.46 380.05 254.65 384.68 C 245.55 391.25 233.66 392.18 222.91 390.17 C 211.88 388.34 202.49 380.22 197.80 370.25 C 195.57 365.80 195.93 360.67 194.71 355.94 C 190.66 356.45 189.24 361.16 185.54 362.47 C 174.31 367.33 161.04 364.43 151.13 357.86 C 141.75 351.60 137.20 339.33 139.45 328.38 C 141.32 320.75 145.57 313.60 151.81 308.75 C 155.03 306.32 158.71 304.63 162.27 302.77 C 159.39 299.94 155.74 297.92 153.39 294.58 C 148.31 288.20 144.85 280.28 144.88 272.03 C 144.62 264.52 145.92 256.60 150.35 250.36 C 157.72 239.86 170.21 233.39 182.98 232.96 C 186.64 232.95 190.26 233.60 193.90 233.90 C 192.31 223.64 193.68 212.51 199.99 204.00 C 207.54 194.15 218.89 187.43 230.99 184.93 M 217.54 245.44 C 212.58 251.40 211.55 259.46 212.04 266.95 C 205.39 264.41 197.46 264.12 191.42 268.36 C 182.00 275.58 178.89 289.86 184.77 300.25 C 188.91 309.27 198.36 314.45 207.72 316.42 C 204.44 324.80 206.10 335.10 212.22 341.78 C 216.72 346.23 222.74 349.16 229.02 349.92 C 238.52 350.84 248.49 346.96 254.63 339.60 C 259.65 333.67 260.99 325.74 262.01 318.28 C 266.63 319.03 271.28 319.76 275.96 319.98 C 282.91 320.46 289.50 317.01 294.62 312.58 C 301.41 305.36 304.89 294.55 302.12 284.85 C 298.95 273.14 286.22 264.66 274.17 267.67 C 276.12 258.74 272.31 249.33 265.77 243.21 C 252.62 230.94 229.50 231.99 217.54 245.44 Z" />
</g>
<g id="#9c3007ff">
<path fill="#9c3007" opacity="1.00" d=" M 372.89 184.89 C 375.18 183.76 378.07 183.40 380.43 184.50 C 383.23 186.52 382.71 191.19 380.23 193.28 C 373.13 199.63 364.05 203.42 354.79 205.26 C 356.24 201.53 359.12 198.67 361.47 195.50 C 364.63 191.37 368.12 187.21 372.89 184.89 Z" />
</g>
<g id="#3c1103ff">
<path fill="#3c1103" opacity="1.00" d=" M 70.65 213.60 C 72.89 212.08 75.48 213.80 77.81 214.19 C 83.04 216.28 88.93 217.82 92.77 222.23 C 97.29 226.51 101.42 231.30 104.09 236.97 C 103.62 237.90 103.16 238.85 102.72 239.80 C 98.54 242.27 93.77 240.38 89.40 239.59 C 80.80 237.57 71.56 234.28 66.57 226.46 C 62.73 222.24 65.96 215.60 70.65 213.60 M 69.51 218.52 C 69.19 220.83 68.58 223.60 70.69 225.30 C 78.06 232.77 89.00 235.83 99.26 236.03 C 97.45 231.98 93.66 229.44 90.79 226.21 C 87.11 222.16 82.14 219.47 76.99 217.80 C 74.49 217.00 71.93 217.94 69.51 218.52 Z" />
</g>
<g id="#a13207ff">
<path fill="#a13207" opacity="1.00" d=" M 69.51 218.52 C 71.93 217.94 74.49 217.00 76.99 217.80 C 82.14 219.47 87.11 222.16 90.79 226.21 C 93.66 229.44 97.45 231.98 99.26 236.03 C 89.00 235.83 78.06 232.77 70.69 225.30 C 68.58 223.60 69.19 220.83 69.51 218.52 Z" />
</g>
<g id="#dcbb17ff">
<path fill="#dcbb17" opacity="1.00" d=" M 217.54 245.44 C 229.50 231.99 252.62 230.94 265.77 243.21 C 272.31 249.33 276.12 258.74 274.17 267.67 C 286.22 264.66 298.95 273.14 302.12 284.85 C 304.89 294.55 301.41 305.36 294.62 312.58 C 289.50 317.01 282.91 320.46 275.96 319.98 C 271.28 319.76 266.63 319.03 262.01 318.28 C 260.99 325.74 259.65 333.67 254.63 339.60 C 248.49 346.96 238.52 350.84 229.02 349.92 C 222.74 349.16 216.72 346.23 212.22 341.78 C 206.10 335.10 204.44 324.80 207.72 316.42 C 198.36 314.45 188.91 309.27 184.77 300.25 C 178.89 289.86 182.00 275.58 191.42 268.36 C 197.46 264.12 205.39 264.41 212.04 266.95 C 211.55 259.46 212.58 251.40 217.54 245.44 Z" />
</g>
<g id="#3a1002ff">
<path fill="#3a1002" opacity="1.00" d=" M 248.29 412.27 C 251.91 409.18 256.76 408.31 261.23 407.13 C 264.08 406.51 266.86 407.72 269.58 408.39 C 276.59 411.42 284.29 415.48 286.94 423.15 C 287.13 426.76 286.95 430.38 287.00 434.01 C 291.05 434.22 295.30 433.32 299.19 434.83 C 306.07 437.07 311.33 443.14 312.88 450.18 C 313.12 453.38 313.11 456.62 312.90 459.83 C 311.20 464.65 308.94 469.60 304.64 472.65 C 298.69 476.12 291.78 477.34 285.04 478.07 C 256.72 477.91 228.39 478.11 200.08 477.97 C 193.15 475.72 185.73 478.16 178.75 476.25 C 172.95 475.93 167.33 474.19 161.98 472.03 C 158.17 469.97 156.73 465.55 155.06 461.85 C 154.41 456.86 156.01 451.79 158.56 447.56 C 160.58 443.58 165.25 442.37 169.17 441.11 C 173.17 440.82 177.19 441.09 181.20 440.97 C 180.38 437.12 178.89 433.12 180.11 429.19 C 181.83 424.30 184.88 420.03 187.84 415.84 C 191.23 413.49 194.55 410.92 198.40 409.37 C 204.53 407.52 211.40 407.11 217.40 409.59 C 224.59 412.00 231.28 416.35 235.55 422.73 C 237.74 424.11 239.38 421.01 240.60 419.58 C 242.30 416.31 245.74 414.74 248.29 412.27 M 243.07 424.05 C 240.80 427.28 240.28 431.35 238.11 434.64 C 235.22 430.00 233.19 424.66 228.93 421.04 C 221.05 414.39 209.96 410.50 199.82 413.86 C 193.46 415.72 188.55 420.84 185.72 426.68 C 184.23 430.26 184.68 434.27 184.86 438.05 C 185.07 442.24 187.23 445.97 188.11 450.02 C 184.47 448.55 181.06 446.14 177.00 446.05 C 171.86 445.75 166.40 446.95 162.41 450.38 C 159.55 452.65 159.90 456.76 159.84 460.03 C 159.40 463.96 163.10 466.47 166.28 467.77 C 171.30 468.79 176.48 469.21 181.61 468.95 C 181.84 463.77 186.06 460.69 189.22 457.19 C 191.52 455.13 189.91 452.01 190.37 449.42 C 191.52 445.18 193.81 440.85 197.96 438.89 C 204.95 435.05 214.31 432.79 221.44 437.49 C 227.89 441.09 231.53 448.03 233.24 454.97 C 236.72 451.67 240.32 448.16 245.17 447.09 C 252.05 444.60 260.10 448.18 263.49 454.49 C 264.40 457.07 264.92 459.78 265.83 462.37 C 268.93 459.94 271.66 456.19 275.93 456.00 C 279.35 455.84 283.29 455.54 286.07 457.94 C 290.37 461.42 291.12 467.22 293.08 472.07 C 297.30 470.25 301.89 468.56 304.79 464.78 C 307.73 460.94 309.70 455.74 308.06 450.95 C 306.47 444.67 300.86 438.69 294.00 439.01 C 289.26 438.82 285.27 441.64 280.98 443.16 C 282.14 434.99 284.47 424.74 277.65 418.37 C 273.46 415.03 268.20 413.01 262.95 412.14 C 254.85 412.34 247.47 417.45 243.07 424.05 Z" />
</g>
<g id="#5d1904ff">
<path fill="#5d1904" opacity="1.00" d=" M 243.07 424.05 C 247.47 417.45 254.85 412.34 262.95 412.14 C 268.20 413.01 273.46 415.03 277.65 418.37 C 284.47 424.74 282.14 434.99 280.98 443.16 C 285.27 441.64 289.26 438.82 294.00 439.01 C 300.86 438.69 306.47 444.67 308.06 450.95 C 309.70 455.74 307.73 460.94 304.79 464.78 C 301.89 468.56 297.30 470.25 293.08 472.07 C 291.12 467.22 290.37 461.42 286.07 457.94 C 283.29 455.54 279.35 455.84 275.93 456.00 C 271.66 456.19 268.93 459.94 265.83 462.37 C 264.92 459.78 264.40 457.07 263.49 454.49 C 260.10 448.18 252.05 444.60 245.17 447.09 C 240.32 448.16 236.72 451.67 233.24 454.97 C 231.53 448.03 227.89 441.09 221.44 437.49 C 214.31 432.79 204.95 435.05 197.96 438.89 C 193.81 440.85 191.52 445.18 190.37 449.42 C 189.91 452.01 191.52 455.13 189.22 457.19 C 186.06 460.69 181.84 463.77 181.61 468.95 C 176.48 469.21 171.30 468.79 166.28 467.77 C 163.10 466.47 159.40 463.96 159.84 460.03 C 159.90 456.76 159.55 452.65 162.41 450.38 C 166.40 446.95 171.86 445.75 177.00 446.05 C 181.06 446.14 184.47 448.55 188.11 450.02 C 187.23 445.97 185.07 442.24 184.86 438.05 C 184.68 434.27 184.23 430.26 185.72 426.68 C 188.55 420.84 193.46 415.72 199.82 413.86 C 209.96 410.50 221.05 414.39 228.93 421.04 C 233.19 424.66 235.22 430.00 238.11 434.64 C 240.28 431.35 240.80 427.28 243.07 424.05 Z" />
</g>
</svg>
