<?xml version="1.0" encoding="UTF-8" ?>
<!DOCTYPE svg PUBLIC "-//W3C//DTD SVG 1.1//EN" "http://www.w3.org/Graphics/SVG/1.1/DTD/svg11.dtd">
<svg width="452pt" height="479pt" viewBox="0 0 452 479" version="1.1" xmlns="http://www.w3.org/2000/svg">
<g id="#ffffffff">
<path fill="#ffffff" opacity="1.00" d=" M 0.00 0.00 L 452.00 0.00 L 452.00 479.00 L 0.00 479.00 L 0.00 0.00 M 226.21 1.76 C 226.14 3.11 225.80 4.38 225.20 5.58 C 225.10 6.04 224.91 6.97 224.82 7.43 C 223.85 9.00 224.16 10.99 223.15 12.54 C 222.98 14.23 223.22 16.04 222.26 17.55 C 222.03 18.91 221.83 20.28 221.38 21.59 C 221.01 22.58 220.63 23.55 220.22 24.52 C 219.98 25.89 220.03 27.38 219.19 28.57 C 219.10 29.03 218.91 29.96 218.82 30.43 C 217.94 32.02 218.03 33.92 217.25 35.55 C 217.01 36.90 216.96 38.33 216.24 39.55 C 216.00 40.92 216.02 42.38 215.19 43.58 C 215.10 44.04 214.91 44.97 214.82 45.44 C 213.98 47.03 213.90 48.86 213.38 50.55 C 213.04 51.57 212.64 52.57 212.18 53.54 C 212.09 54.01 211.91 54.96 211.82 55.43 C 210.90 57.02 211.08 58.96 210.20 60.57 C 210.10 61.03 209.91 61.96 209.81 62.43 C 208.91 64.02 209.10 65.96 208.18 67.53 C 208.09 68.01 207.90 68.96 207.81 69.44 C 206.97 71.02 206.93 72.86 206.34 74.53 C 206.01 75.53 205.67 76.53 205.32 77.53 C 205.02 78.51 204.70 79.48 204.36 80.44 C 204.08 80.95 203.52 81.97 203.25 82.48 C 202.98 83.50 202.68 84.52 202.34 85.52 C 201.90 86.91 201.36 88.26 200.81 89.61 C 200.27 90.56 199.74 91.51 199.22 92.46 C 198.94 93.90 198.38 95.27 197.84 96.63 C 197.24 97.58 196.65 98.54 196.07 99.49 C 196.04 100.00 195.98 101.02 195.96 101.53 C 192.99 105.62 190.68 110.54 186.49 113.47 C 181.95 114.23 176.60 115.00 172.57 112.27 C 163.22 107.72 157.14 98.82 149.47 92.08 C 148.16 91.77 146.86 92.65 147.07 94.10 C 146.92 102.40 147.04 110.70 147.05 119.00 C 146.95 120.54 147.40 122.36 146.05 123.53 C 145.65 126.50 146.87 129.89 145.14 132.55 C 145.09 133.05 144.99 134.04 144.93 134.54 C 143.68 136.43 142.50 138.37 141.23 140.25 C 139.95 141.07 138.57 141.76 137.56 142.94 C 137.06 142.99 136.07 143.10 135.58 143.16 C 134.01 144.21 131.90 143.72 130.42 144.94 C 126.16 144.64 121.33 146.15 117.46 144.10 C 115.44 143.88 113.17 144.50 111.43 143.15 C 110.47 143.05 109.52 142.95 108.57 142.86 C 107.01 141.90 105.08 142.05 103.46 141.25 C 102.10 140.99 100.62 141.03 99.44 140.18 C 98.96 140.09 98.01 139.91 97.54 139.82 C 96.21 139.25 94.85 138.80 93.50 138.29 C 92.45 138.01 91.42 137.65 90.43 137.20 C 89.96 137.11 89.02 136.94 88.55 136.85 C 87.20 136.26 85.82 135.76 84.47 135.17 C 83.99 135.09 83.03 134.93 82.55 134.85 C 81.20 134.25 79.80 133.76 78.45 133.16 C 77.96 133.10 76.98 132.97 76.49 132.90 C 75.52 132.33 74.54 131.77 73.56 131.21 C 72.51 130.97 71.48 130.69 70.47 130.36 C 69.43 130.01 68.42 129.62 67.42 129.18 C 66.94 129.12 65.97 129.00 65.49 128.94 C 64.49 128.31 63.49 127.69 62.49 127.07 C 62.00 127.04 61.01 126.97 60.51 126.94 C 59.53 126.35 58.54 125.77 57.55 125.20 C 56.10 124.94 54.74 124.38 53.38 123.82 C 52.45 123.27 51.52 122.74 50.57 122.21 C 49.48 122.02 48.43 121.68 47.43 121.20 C 46.97 121.11 46.03 120.93 45.57 120.84 C 44.36 120.14 43.04 119.82 41.61 119.87 C 42.72 122.69 44.89 124.90 46.28 127.57 C 48.41 131.74 51.61 135.25 53.73 139.43 C 59.00 147.45 64.89 155.12 69.72 163.44 C 71.70 166.26 73.20 169.34 74.75 172.41 C 75.24 173.46 75.76 174.51 76.25 175.58 C 77.10 177.23 77.95 178.90 78.90 180.51 C 78.96 181.00 79.09 181.98 79.15 182.47 C 79.75 183.81 80.24 185.19 80.84 186.54 C 80.93 187.01 81.10 187.97 81.18 188.44 C 82.02 189.62 81.99 191.08 82.23 192.44 C 83.73 195.04 82.76 198.16 83.00 201.00 C 82.69 204.45 83.71 208.14 82.37 211.42 C 80.57 216.46 75.85 219.27 71.54 221.94 C 71.04 221.99 70.05 222.09 69.55 222.14 C 68.41 223.09 66.90 222.97 65.54 223.23 C 64.34 224.01 62.90 224.00 61.54 224.23 C 60.08 225.26 58.25 224.98 56.58 225.18 C 54.18 227.07 50.71 224.87 48.41 226.93 C 45.78 227.33 42.65 226.14 40.41 227.94 C 37.13 228.50 33.28 226.94 30.42 228.94 C 23.94 229.12 17.46 228.98 10.98 228.98 C 9.13 229.04 7.13 228.65 5.46 229.70 C 4.30 230.19 1.99 230.00 2.05 231.79 C 3.62 233.10 5.64 233.73 7.42 234.72 C 8.79 235.38 10.14 236.06 11.49 236.76 C 13.27 237.06 14.91 237.85 16.47 238.74 C 17.50 239.02 18.51 239.32 19.52 239.66 C 20.52 239.98 21.52 240.32 22.51 240.67 C 23.55 240.98 24.57 241.37 25.56 241.84 C 26.05 241.90 27.04 242.01 27.53 242.07 C 28.52 242.69 29.51 243.31 30.49 243.93 C 30.99 243.97 31.99 244.03 32.48 244.06 C 33.46 244.63 34.45 245.20 35.44 245.76 C 35.96 246.04 37.00 246.61 37.53 246.90 C 38.03 246.93 39.05 247.00 39.56 247.04 C 40.84 248.68 42.75 249.47 44.62 250.22 C 47.75 252.06 50.79 254.09 53.70 256.26 C 59.80 260.38 64.42 266.23 69.75 271.25 C 72.67 275.62 76.00 279.81 78.26 284.58 C 78.76 285.54 79.26 286.50 79.78 287.46 C 80.03 288.47 80.30 289.47 80.59 290.47 C 80.92 290.98 81.58 291.98 81.91 292.48 C 81.98 292.97 82.10 293.94 82.16 294.43 C 82.36 294.82 82.76 295.61 82.96 296.00 C 83.11 300.87 82.94 305.74 83.00 310.60 C 79.98 313.06 77.90 316.42 75.70 319.57 C 75.15 321.02 74.24 322.27 73.21 323.43 C 72.96 324.47 72.68 325.51 72.36 326.54 C 72.00 327.56 71.62 328.57 71.20 329.56 C 71.10 330.03 70.92 330.97 70.83 331.44 C 69.40 333.22 70.63 335.82 69.11 337.55 C 69.07 338.17 68.99 339.39 68.95 340.00 C 64.83 340.32 60.49 339.28 56.51 340.59 C 56.01 340.93 55.01 341.60 54.51 341.94 C 54.00 341.97 52.97 342.03 52.46 342.06 C 44.89 346.44 38.88 353.08 34.15 360.35 C 33.65 361.72 33.12 363.08 32.65 364.47 C 32.01 366.12 32.15 368.04 31.07 369.53 C 31.28 372.83 30.14 376.53 31.78 379.57 C 32.03 380.92 31.96 382.41 32.83 383.58 C 32.92 384.04 33.11 384.96 33.20 385.43 C 33.66 386.42 34.01 387.44 34.26 388.51 C 34.96 389.85 35.63 391.21 36.23 392.61 C 38.23 395.80 39.94 399.54 43.47 401.33 C 46.34 402.83 48.50 405.35 51.40 406.77 C 52.79 407.36 54.14 408.04 55.48 408.74 C 56.56 408.95 57.58 409.32 58.54 409.86 C 59.50 409.95 60.47 410.04 61.43 410.14 C 64.09 411.85 67.46 410.74 70.44 410.90 C 72.21 409.38 74.64 410.17 76.75 409.99 C 76.96 410.61 77.39 411.85 77.61 412.48 C 81.56 417.76 86.53 422.55 92.60 425.32 C 93.90 425.81 95.23 426.24 96.52 426.77 C 97.88 427.04 99.46 426.85 100.55 427.93 C 104.04 428.04 107.54 427.97 111.04 428.03 C 112.58 427.98 114.26 428.27 115.56 427.20 C 117.69 427.16 119.66 426.40 121.42 425.25 C 122.48 424.74 123.54 424.23 124.62 423.78 C 128.62 421.80 131.22 418.00 134.40 415.00 C 135.51 414.99 136.61 414.99 137.72 415.00 C 138.31 418.28 142.16 418.94 144.42 420.88 C 145.82 421.03 147.40 420.83 148.55 421.86 C 149.50 421.95 150.46 422.04 151.42 422.14 C 154.09 423.53 157.95 423.61 160.58 422.10 C 162.21 422.01 163.84 421.98 165.46 421.90 C 166.39 421.32 167.40 420.93 168.49 420.73 C 169.00 420.48 170.03 419.98 170.54 419.73 C 173.62 418.45 176.48 416.68 178.42 413.91 C 179.76 414.03 181.17 413.93 182.44 414.49 C 182.78 415.47 183.07 416.46 183.31 417.47 C 183.66 418.48 183.97 419.50 184.24 420.54 C 184.75 421.51 185.26 422.48 185.77 423.46 C 185.96 424.56 186.32 425.59 186.85 426.57 C 186.91 427.06 187.02 428.04 187.08 428.53 C 187.69 429.51 188.31 430.49 188.94 431.48 C 188.97 431.99 189.03 433.00 189.07 433.51 C 189.68 434.49 190.30 435.48 190.91 436.47 C 190.98 436.96 191.10 437.95 191.17 438.44 C 191.61 439.42 192.00 440.43 192.36 441.46 C 193.25 443.18 192.95 445.14 193.03 447.01 C 192.39 447.00 191.11 446.98 190.47 446.97 C 188.70 445.23 186.53 444.00 184.47 442.65 C 183.13 442.16 181.76 441.75 180.44 441.20 C 179.98 441.11 179.05 440.93 178.58 440.84 C 176.68 439.40 174.20 440.15 172.03 439.96 C 170.15 440.13 167.98 439.47 166.43 440.87 C 165.94 440.93 164.98 441.04 164.49 441.10 C 163.51 441.67 162.54 442.23 161.56 442.80 C 161.06 442.91 160.06 443.14 159.56 443.25 C 153.88 446.66 149.37 451.74 146.07 457.45 C 146.02 457.95 145.91 458.95 145.86 459.45 C 145.55 460.10 144.95 461.41 144.65 462.07 C 143.21 461.99 141.70 462.11 140.46 461.23 C 139.11 460.93 137.53 461.15 136.48 460.07 C 133.82 460.23 130.74 459.17 128.42 460.87 C 127.47 460.96 126.52 461.05 125.57 461.15 C 124.58 461.65 123.54 462.02 122.46 462.25 C 119.09 463.68 115.84 465.75 113.92 468.95 C 114.54 471.05 116.82 471.82 118.48 472.91 C 118.97 472.97 119.94 473.08 120.43 473.14 C 121.83 474.34 123.74 473.92 125.42 474.15 C 128.71 476.46 133.34 473.43 136.53 475.94 C 140.82 476.10 145.12 475.89 149.42 476.07 C 150.62 477.39 152.43 476.93 153.98 477.03 C 180.80 476.97 207.62 476.93 234.44 477.05 C 235.48 478.31 236.52 478.31 237.56 477.05 C 238.03 477.05 238.97 477.05 239.44 477.06 C 239.83 477.31 240.61 477.83 241.00 478.08 C 246.64 478.58 252.32 477.93 257.98 478.26 C 260.16 478.06 262.89 478.92 264.56 477.05 C 265.52 477.03 266.47 477.03 267.43 477.05 C 268.81 478.73 271.13 478.10 273.00 478.24 C 280.97 477.91 288.95 478.54 296.91 478.07 C 297.32 477.82 298.15 477.31 298.57 477.05 C 307.70 476.91 316.84 476.99 325.98 477.03 C 327.53 476.93 329.35 477.38 330.58 476.10 C 332.58 475.89 334.79 476.43 336.57 475.22 C 337.92 474.97 339.40 475.02 340.57 474.14 C 341.08 474.10 342.09 474.00 342.60 473.95 C 343.70 472.80 344.83 471.68 345.99 470.59 C 345.99 470.05 346.00 468.96 346.00 468.42 C 344.00 466.52 342.19 464.28 339.55 463.25 C 339.04 462.97 338.01 462.40 337.49 462.12 C 337.01 462.05 336.05 461.91 335.57 461.84 C 331.47 459.95 326.61 461.51 322.21 461.01 C 321.53 459.23 320.94 457.43 320.74 455.54 C 320.34 454.54 320.01 453.52 319.73 452.49 C 319.49 451.98 319.01 450.95 318.77 450.43 C 317.24 446.29 313.06 444.43 309.63 442.16 C 308.02 441.41 306.33 440.92 304.56 440.78 C 301.20 439.10 297.18 440.31 293.55 440.08 C 291.89 441.56 289.44 440.55 287.61 441.67 C 286.28 442.36 284.93 443.00 283.44 443.20 C 281.97 443.88 280.62 444.77 279.53 445.98 C 278.87 445.98 277.56 446.00 276.90 446.00 C 277.02 444.46 276.79 442.79 277.78 441.47 C 277.99 440.10 278.02 438.66 278.76 437.45 C 278.97 436.10 279.12 434.73 279.64 433.46 C 279.99 432.44 280.38 431.44 280.81 430.45 C 280.91 429.98 281.10 429.03 281.19 428.55 C 281.77 427.22 282.20 425.84 282.71 424.49 C 282.99 423.52 283.31 422.56 283.68 421.62 C 284.25 420.42 284.83 419.21 285.31 417.97 C 287.08 418.06 289.03 417.64 290.57 418.81 C 291.03 418.90 291.96 419.08 292.42 419.17 C 293.98 420.19 296.02 419.80 297.55 420.88 C 298.83 420.96 300.12 421.01 301.41 421.09 C 303.39 422.56 306.57 422.50 308.59 421.13 C 310.26 420.93 312.13 421.28 313.57 420.18 C 314.04 420.09 314.97 419.90 315.44 419.81 C 316.42 419.31 317.45 418.97 318.55 418.79 C 319.54 418.23 320.53 417.65 321.51 417.07 C 322.02 417.04 323.05 416.99 323.56 416.96 C 324.85 415.34 326.78 414.55 328.57 413.63 C 329.54 413.31 330.53 413.03 331.53 412.80 C 333.94 415.96 337.11 418.36 340.55 420.31 C 341.52 420.77 342.49 421.24 343.47 421.72 C 343.98 422.00 344.99 422.55 345.49 422.83 C 346.87 423.05 348.46 422.82 349.55 423.93 C 352.51 424.04 355.48 424.04 358.45 423.93 C 359.53 422.88 361.08 423.04 362.44 422.74 C 363.44 422.35 364.47 422.01 365.51 421.75 C 366.50 421.26 367.48 420.78 368.46 420.30 C 371.86 418.11 375.91 416.04 377.38 412.00 C 377.93 412.00 379.05 411.99 379.61 411.99 C 381.07 413.61 382.49 415.39 384.55 416.30 C 385.52 416.78 386.50 417.26 387.48 417.75 C 388.54 417.98 389.57 418.33 390.56 418.81 C 391.03 418.89 391.96 419.07 392.42 419.16 C 395.09 420.85 398.48 419.73 401.47 419.93 C 402.53 418.77 404.15 419.06 405.54 418.87 C 406.52 418.26 407.50 417.66 408.49 417.07 C 409.01 417.04 410.04 416.98 410.55 416.95 C 414.04 414.08 418.07 411.51 420.28 407.43 C 421.26 405.33 422.71 403.50 423.93 401.54 C 423.98 401.04 424.09 400.06 424.15 399.57 C 424.60 398.58 425.01 397.57 425.36 396.55 C 425.88 394.87 426.02 393.08 426.78 391.48 C 427.00 390.24 426.94 388.94 427.48 387.79 C 430.73 386.21 433.52 383.59 435.28 380.44 C 436.10 378.66 437.29 377.10 438.33 375.46 C 438.58 374.95 439.09 373.95 439.35 373.45 C 439.68 372.48 440.00 371.52 440.32 370.55 C 441.71 368.37 440.14 365.43 441.93 363.46 C 441.81 360.80 442.71 357.83 441.22 355.44 C 440.96 354.08 441.06 352.57 440.15 351.43 C 440.09 350.95 439.95 349.99 439.88 349.51 C 437.01 343.91 433.31 338.25 427.60 335.24 C 426.17 334.63 424.78 333.94 423.47 333.12 C 423.00 333.05 422.05 332.93 421.58 332.86 C 418.59 331.09 414.85 332.30 411.55 332.08 C 410.03 333.53 407.86 332.86 406.00 333.04 C 406.00 330.87 406.01 328.70 405.93 326.54 C 404.31 324.85 405.62 322.20 404.17 320.43 C 404.08 319.97 403.90 319.03 403.81 318.57 C 403.31 317.56 402.98 316.51 402.79 315.42 C 401.33 314.04 400.49 312.23 399.77 310.39 C 396.53 304.06 391.10 299.26 385.53 295.03 C 384.90 295.02 383.64 295.00 383.01 294.99 C 383.29 292.17 382.16 288.95 383.86 286.45 C 383.91 285.96 384.01 284.96 384.07 284.47 C 384.69 283.49 385.31 282.52 385.94 281.54 C 385.97 281.03 386.02 279.99 386.04 279.47 C 389.61 275.01 392.36 269.64 397.50 266.67 C 400.39 264.19 403.37 261.81 406.51 259.65 C 407.87 259.03 409.21 258.37 410.57 257.73 C 411.89 257.04 413.22 256.37 414.57 255.73 C 416.20 254.89 417.83 254.04 419.49 253.24 C 420.56 253.01 421.59 252.65 422.57 252.15 C 423.06 252.09 424.04 251.97 424.54 251.91 C 425.51 251.30 426.49 250.68 427.47 250.07 C 427.96 250.01 428.94 249.90 429.43 249.84 C 430.41 249.33 431.44 248.97 432.54 248.77 C 433.51 248.25 434.48 247.74 435.46 247.22 C 436.44 246.95 437.43 246.67 438.41 246.38 C 439.80 245.65 441.18 244.90 442.51 244.07 C 443.02 244.04 444.02 243.97 444.52 243.94 C 446.92 242.59 449.32 240.93 450.36 238.26 C 448.93 238.22 447.63 237.84 446.45 237.11 C 444.45 236.83 442.06 237.64 440.45 236.06 C 437.80 235.72 434.75 236.81 432.43 235.12 C 430.43 234.88 428.16 235.52 426.46 234.15 C 424.75 233.98 422.94 234.21 421.43 233.26 C 420.08 233.04 418.72 232.89 417.45 232.36 C 416.42 232.02 415.42 231.62 414.44 231.16 C 413.95 231.10 412.97 230.99 412.48 230.94 C 411.49 230.31 410.51 229.68 409.54 229.06 C 409.02 229.03 407.98 228.99 407.46 228.97 C 406.61 228.00 405.60 227.22 404.43 226.71 C 400.55 224.77 397.26 221.39 395.24 217.57 C 394.96 217.05 394.40 216.00 394.11 215.48 C 394.04 215.00 393.91 214.04 393.84 213.56 C 392.06 210.24 393.29 206.20 393.09 202.58 C 394.21 201.06 393.84 199.02 394.83 197.43 C 394.89 196.95 395.02 195.98 395.08 195.49 C 395.41 194.99 396.08 193.98 396.41 193.48 C 396.70 192.48 396.98 191.48 397.24 190.48 C 397.95 189.13 398.61 187.76 399.23 186.37 C 402.98 179.87 407.89 174.16 411.81 167.77 C 415.04 164.93 416.93 160.98 420.28 158.25 C 424.42 152.53 429.54 147.46 435.22 143.27 C 437.10 140.95 440.70 140.36 441.34 137.07 C 439.04 137.21 436.41 136.31 434.43 137.86 C 433.47 137.95 432.52 138.05 431.57 138.15 C 430.41 139.06 428.91 138.98 427.56 139.25 C 426.05 140.23 424.23 139.98 422.54 140.15 C 420.78 141.64 418.16 140.37 416.41 141.88 C 415.45 141.96 414.49 142.04 413.54 142.13 C 412.42 143.09 410.90 142.97 409.56 143.25 C 408.05 144.23 406.23 143.98 404.54 144.15 C 403.15 145.37 401.23 144.94 399.56 145.17 C 398.39 146.03 396.91 145.98 395.56 146.24 C 393.69 147.49 391.17 146.42 389.42 147.89 C 388.12 147.97 386.82 148.02 385.53 148.10 C 384.17 149.41 382.22 148.92 380.55 149.16 C 378.49 150.91 375.37 149.02 373.41 150.94 C 370.77 151.32 367.67 150.15 365.41 151.92 C 360.47 152.05 355.52 152.05 350.58 151.92 C 348.61 150.02 345.45 151.97 343.46 150.11 C 342.46 150.05 341.46 150.00 340.47 149.95 C 337.38 147.89 334.23 145.93 331.20 143.79 C 329.72 141.78 328.45 139.61 327.07 137.54 C 327.01 137.04 326.90 136.05 326.84 135.55 C 326.37 134.57 325.97 133.56 325.66 132.53 C 323.93 129.72 326.22 126.00 324.07 123.42 C 323.93 120.47 323.94 117.53 324.08 114.59 C 326.61 111.05 323.40 106.02 325.89 102.45 C 326.15 100.45 325.44 98.13 326.89 96.44 C 327.12 94.44 326.50 92.17 327.85 90.44 C 328.09 88.77 327.60 86.81 328.91 85.46 C 328.98 83.84 329.02 82.21 329.10 80.59 C 330.69 78.87 329.30 76.17 330.90 74.46 C 331.10 72.45 330.56 70.24 331.77 68.45 C 332.05 67.11 331.86 65.56 332.91 64.48 C 333.10 62.46 332.55 60.24 333.77 58.45 C 334.03 57.10 333.90 55.57 334.88 54.46 C 334.95 53.16 335.00 51.87 335.07 50.58 C 336.31 49.54 335.93 47.91 336.01 46.52 C 335.28 45.33 334.57 44.12 333.74 43.00 C 332.62 43.80 331.55 44.68 330.37 45.37 C 328.09 49.61 323.50 51.97 320.98 56.04 C 319.49 58.49 317.14 60.22 315.19 62.26 C 312.59 64.74 311.40 68.31 308.78 70.77 C 302.05 77.37 295.46 84.11 288.76 90.73 C 285.97 92.57 283.64 95.12 280.43 96.26 C 276.37 99.14 271.24 99.84 266.49 98.48 C 263.03 95.66 259.25 92.68 257.30 88.57 C 256.04 86.54 254.64 84.59 253.63 82.42 C 253.31 81.45 253.00 80.47 252.70 79.49 C 252.21 78.18 251.81 76.85 251.34 75.53 C 251.03 75.03 250.40 74.01 250.09 73.50 C 250.03 73.02 249.90 72.05 249.83 71.56 C 249.37 70.58 248.99 69.57 248.67 68.53 C 248.33 67.53 247.99 66.53 247.67 65.53 C 247.32 64.52 247.02 63.50 246.79 62.46 C 246.23 61.47 245.67 60.49 245.10 59.51 C 245.03 59.02 244.89 58.06 244.82 57.58 C 244.38 56.58 243.99 55.56 243.65 54.52 C 243.32 53.51 243.01 52.50 242.72 51.48 C 242.19 50.14 241.74 48.76 241.17 47.44 C 241.08 46.97 240.89 46.03 240.80 45.56 C 240.34 44.57 239.97 43.55 239.71 42.49 C 239.20 41.14 238.74 39.78 238.18 38.46 C 238.09 37.98 237.90 37.04 237.80 36.57 C 236.92 34.96 237.08 33.03 236.19 31.43 C 236.10 30.97 235.91 30.03 235.81 29.56 C 234.96 28.38 235.00 26.89 234.76 25.53 C 234.36 24.54 233.99 23.54 233.64 22.53 C 233.06 20.86 233.04 19.01 232.18 17.44 C 232.09 16.97 231.90 16.04 231.81 15.58 C 230.48 13.75 231.51 11.26 230.18 9.44 C 230.09 8.96 229.90 8.02 229.81 7.54 C 228.56 5.43 229.53 1.88 226.21 1.76 M 98.34 59.96 C 97.10 61.35 95.99 62.85 95.04 64.45 C 95.37 67.79 94.08 71.54 95.85 74.57 C 95.92 75.05 96.05 76.02 96.12 76.50 C 99.55 83.90 105.41 89.94 112.47 93.97 C 114.81 94.00 117.15 93.98 119.49 93.95 C 121.50 93.04 123.06 91.56 123.93 89.52 C 123.97 88.53 124.03 87.54 124.10 86.56 C 125.22 85.56 125.26 84.53 124.20 83.44 C 123.94 82.08 124.11 80.55 123.13 79.43 C 123.08 78.93 122.98 77.94 122.93 77.44 C 120.97 74.02 118.35 71.07 116.24 67.76 C 112.98 66.15 111.05 62.75 107.43 61.74 C 104.80 59.66 101.49 59.90 98.34 59.96 M 406.47 83.67 C 404.74 84.13 403.12 84.88 401.52 85.66 C 399.90 86.75 398.31 87.87 396.56 88.73 C 391.58 91.84 386.65 95.25 382.84 99.78 C 379.67 104.40 376.47 109.03 373.07 113.48 C 373.02 113.96 372.94 114.93 372.89 115.41 C 371.06 116.98 372.49 119.04 373.19 120.75 C 374.34 121.22 375.47 121.77 376.60 122.32 C 378.35 123.44 380.49 122.92 382.44 122.94 C 384.11 121.47 386.54 122.39 388.41 121.35 C 389.46 120.80 390.52 120.26 391.60 119.76 C 399.66 115.66 405.18 108.16 409.78 100.63 C 410.24 99.54 410.74 98.48 411.23 97.41 C 411.95 96.08 412.65 94.75 413.38 93.43 C 413.90 92.20 414.02 90.87 414.23 89.57 C 414.70 88.60 415.01 87.58 415.17 86.51 C 413.91 85.39 412.71 84.21 411.58 82.97 C 409.85 83.01 408.04 82.77 406.47 83.67 M 42.43 295.85 C 41.95 295.92 40.99 296.05 40.50 296.12 C 36.71 298.42 31.91 300.08 30.09 304.49 C 30.04 304.98 29.93 305.95 29.87 306.44 C 28.79 307.48 28.78 308.52 29.86 309.57 C 29.93 310.04 30.08 310.98 30.15 311.45 C 30.43 312.02 30.99 313.16 31.27 313.73 C 32.39 314.23 33.49 314.77 34.59 315.31 C 35.75 316.25 37.25 316.19 38.45 315.36 C 42.78 313.21 46.50 310.08 50.65 307.62 C 51.21 306.45 51.99 305.41 52.94 304.53 C 52.98 304.04 53.08 303.06 53.13 302.57 C 53.71 301.62 54.06 300.59 54.18 299.48 C 52.55 298.09 51.02 296.58 49.57 295.01 C 47.20 295.19 44.51 294.34 42.43 295.85 M 429.57 296.67 C 427.13 297.56 425.02 299.05 423.98 301.51 C 424.03 302.91 423.75 304.48 424.90 305.58 C 424.93 306.10 424.97 307.13 425.00 307.65 C 426.31 308.92 427.79 310.02 429.46 310.80 C 430.63 310.94 431.74 311.31 432.73 311.98 C 433.73 310.28 435.97 311.23 437.56 310.94 C 438.43 309.83 439.61 309.06 440.96 308.65 C 441.00 308.14 441.07 307.11 441.11 306.59 C 442.29 305.47 442.26 303.81 441.34 302.56 C 440.28 299.68 438.35 297.30 435.52 296.02 C 433.53 296.09 431.36 295.55 429.57 296.67 Z" />
</g>
<g id="#3f1203ff">
<path fill="#3f1203" opacity="1.00" d=" M 226.21 1.76 C 229.53 1.88 228.56 5.43 229.81 7.54 C 229.90 8.02 230.09 8.96 230.18 9.44 C 231.51 11.26 230.48 13.75 231.81 15.58 C 231.90 16.04 232.09 16.97 232.18 17.44 C 233.04 19.01 233.06 20.86 233.64 22.53 C 233.99 23.54 234.36 24.54 234.76 25.53 C 235.00 26.89 234.96 28.38 235.81 29.56 C 235.91 30.03 236.10 30.97 236.19 31.43 C 237.08 33.03 236.92 34.96 237.80 36.57 C 237.90 37.04 238.09 37.98 238.18 38.46 C 238.74 39.78 239.20 41.14 239.71 42.49 C 239.97 43.55 240.34 44.57 240.80 45.56 C 240.89 46.03 241.08 46.97 241.17 47.44 C 241.74 48.76 242.19 50.14 242.72 51.48 C 243.01 52.50 243.32 53.51 243.65 54.52 C 243.99 55.56 244.38 56.58 244.82 57.58 C 244.89 58.06 245.03 59.02 245.10 59.51 C 245.67 60.49 246.23 61.47 246.79 62.46 C 247.02 63.50 247.32 64.52 247.67 65.53 C 247.99 66.53 248.33 67.53 248.67 68.53 C 248.99 69.57 249.37 70.58 249.83 71.56 C 249.90 72.05 250.03 73.02 250.09 73.50 C 250.40 74.01 251.03 75.03 251.34 75.53 C 251.81 76.85 252.21 78.18 252.70 79.49 C 253.00 80.47 253.31 81.45 253.63 82.42 C 254.64 84.59 256.04 86.54 257.30 88.57 C 259.25 92.68 263.03 95.66 266.49 98.48 C 271.24 99.84 276.37 99.14 280.43 96.26 C 283.64 95.12 285.97 92.57 288.76 90.73 C 295.46 84.11 302.05 77.37 308.78 70.77 C 311.40 68.31 312.59 64.74 315.19 62.26 C 317.14 60.22 319.49 58.49 320.98 56.04 C 323.50 51.97 328.09 49.61 330.37 45.37 C 331.55 44.68 332.62 43.80 333.74 43.00 C 334.57 44.12 335.28 45.33 336.01 46.52 C 335.93 47.91 336.31 49.54 335.07 50.58 C 335.00 51.87 334.95 53.16 334.88 54.46 C 333.90 55.57 334.03 57.10 333.77 58.45 C 332.55 60.24 333.10 62.46 332.91 64.48 C 331.86 65.56 332.05 67.11 331.77 68.45 C 330.56 70.24 331.10 72.45 330.90 74.46 C 329.30 76.17 330.69 78.87 329.10 80.59 C 329.02 82.21 328.98 83.84 328.91 85.46 C 327.60 86.81 328.09 88.77 327.85 90.44 C 326.50 92.17 327.12 94.44 326.89 96.44 C 325.44 98.13 326.15 100.45 325.89 102.45 C 323.40 106.02 326.61 111.05 324.08 114.59 C 323.94 117.53 323.93 120.47 324.07 123.42 C 326.22 126.00 323.93 129.72 325.66 132.53 C 325.97 133.56 326.37 134.57 326.84 135.55 C 326.90 136.05 327.01 137.04 327.07 137.54 C 328.45 139.61 329.72 141.78 331.20 143.79 C 334.23 145.93 337.38 147.89 340.47 149.95 C 341.46 150.00 342.46 150.05 343.46 150.11 C 345.45 151.97 348.61 150.02 350.58 151.92 C 355.52 152.05 360.47 152.05 365.41 151.92 C 367.67 150.15 370.77 151.32 373.41 150.94 C 375.37 149.02 378.49 150.91 380.55 149.16 C 382.22 148.92 384.17 149.41 385.53 148.10 C 386.82 148.02 388.12 147.97 389.42 147.89 C 391.17 146.42 393.69 147.49 395.56 146.24 C 396.91 145.98 398.39 146.03 399.56 145.17 C 401.23 144.94 403.15 145.37 404.54 144.15 C 406.23 143.98 408.05 144.23 409.56 143.25 C 410.90 142.97 412.42 143.09 413.54 142.13 C 414.49 142.04 415.45 141.96 416.41 141.88 C 418.16 140.37 420.78 141.64 422.54 140.15 C 424.23 139.98 426.05 140.23 427.56 139.25 C 428.91 138.98 430.41 139.06 431.57 138.15 C 432.52 138.05 433.47 137.95 434.43 137.86 C 436.41 136.31 439.04 137.21 441.34 137.07 C 440.70 140.36 437.10 140.95 435.22 143.27 C 429.54 147.46 424.42 152.53 420.28 158.25 C 416.93 160.98 415.04 164.93 411.81 167.77 C 407.89 174.16 402.98 179.87 399.23 186.37 C 398.61 187.76 397.95 189.13 397.24 190.48 C 396.98 191.48 396.70 192.48 396.41 193.48 C 396.08 193.98 395.41 194.99 395.08 195.49 C 395.02 195.98 394.89 196.95 394.83 197.43 C 393.84 199.02 394.21 201.06 393.09 202.58 C 393.29 206.20 392.06 210.24 393.84 213.56 C 393.91 214.04 394.04 215.00 394.11 215.48 C 394.40 216.00 394.96 217.05 395.24 217.57 C 397.26 221.39 400.55 224.77 404.43 226.71 C 405.60 227.22 406.61 228.00 407.46 228.97 C 407.98 228.99 409.02 229.03 409.54 229.06 C 410.51 229.68 411.49 230.31 412.48 230.94 C 412.97 230.99 413.95 231.10 414.44 231.16 C 415.42 231.62 416.42 232.02 417.45 232.36 C 418.72 232.89 420.08 233.04 421.43 233.26 C 422.94 234.21 424.75 233.98 426.46 234.15 C 428.16 235.52 430.43 234.88 432.43 235.12 C 434.75 236.81 437.80 235.72 440.45 236.06 C 442.06 237.64 444.45 236.83 446.45 237.11 C 447.63 237.84 448.93 238.22 450.36 238.26 C 449.32 240.93 446.92 242.59 444.52 243.94 C 444.02 243.97 443.02 244.04 442.51 244.07 C 441.18 244.90 439.80 245.65 438.41 246.38 C 437.43 246.67 436.44 246.95 435.46 247.22 C 434.48 247.74 433.51 248.25 432.54 248.77 C 431.44 248.97 430.41 249.33 429.43 249.84 C 428.94 249.90 427.96 250.01 427.47 250.07 C 426.49 250.68 425.51 251.30 424.54 251.91 C 424.04 251.97 423.06 252.09 422.57 252.15 C 421.59 252.65 420.56 253.01 419.49 253.24 C 417.83 254.04 416.20 254.89 414.57 255.73 C 413.22 256.37 411.89 257.04 410.57 257.73 C 409.21 258.37 407.87 259.03 406.51 259.65 C 403.37 261.81 400.39 264.19 397.50 266.67 C 392.36 269.64 389.61 275.01 386.04 279.47 C 386.02 279.99 385.97 281.03 385.94 281.54 C 385.31 282.52 384.69 283.49 384.07 284.47 C 384.01 284.96 383.91 285.96 383.86 286.45 C 382.16 288.95 383.29 292.17 383.01 294.99 C 383.64 295.00 384.90 295.02 385.53 295.03 C 391.10 299.26 396.53 304.06 399.77 310.39 C 400.49 312.23 401.33 314.04 402.79 315.42 C 402.98 316.51 403.31 317.56 403.81 318.57 C 403.90 319.03 404.08 319.97 404.17 320.43 C 405.62 322.20 404.31 324.85 405.93 326.54 C 406.01 328.70 406.00 330.87 406.00 333.04 C 407.86 332.86 410.03 333.53 411.55 332.08 C 414.85 332.30 418.59 331.09 421.58 332.86 C 422.05 332.93 423.00 333.05 423.47 333.12 C 424.78 333.94 426.17 334.63 427.60 335.24 C 433.31 338.25 437.01 343.91 439.88 349.51 C 439.95 349.99 440.09 350.95 440.15 351.43 C 441.06 352.57 440.96 354.08 441.22 355.44 C 442.71 357.83 441.81 360.80 441.93 363.46 C 440.14 365.43 441.71 368.37 440.32 370.55 C 440.00 371.52 439.68 372.48 439.35 373.45 C 439.09 373.95 438.58 374.95 438.33 375.46 C 437.29 377.10 436.10 378.66 435.28 380.44 C 433.52 383.59 430.73 386.21 427.48 387.79 C 426.94 388.94 427.00 390.24 426.78 391.48 C 426.02 393.08 425.88 394.87 425.36 396.55 C 425.01 397.57 424.60 398.58 424.15 399.57 C 424.09 400.06 423.98 401.04 423.93 401.54 C 422.71 403.50 421.26 405.33 420.28 407.43 C 418.07 411.51 414.04 414.08 410.55 416.95 C 410.04 416.98 409.01 417.04 408.49 417.07 C 407.50 417.66 406.52 418.26 405.54 418.87 C 404.15 419.06 402.53 418.77 401.47 419.93 C 398.48 419.73 395.09 420.85 392.42 419.16 C 391.96 419.07 391.03 418.89 390.56 418.81 C 389.57 418.33 388.54 417.98 387.48 417.75 C 386.50 417.26 385.52 416.78 384.55 416.30 C 382.49 415.39 381.07 413.61 379.61 411.99 C 379.05 411.99 377.93 412.00 377.38 412.00 C 375.91 416.04 371.86 418.11 368.46 420.30 C 367.48 420.78 366.50 421.26 365.51 421.75 C 364.47 422.01 363.44 422.35 362.44 422.74 C 361.08 423.04 359.53 422.88 358.45 423.93 C 355.48 424.04 352.51 424.04 349.55 423.93 C 348.46 422.82 346.87 423.05 345.49 422.83 C 344.99 422.55 343.98 422.00 343.47 421.72 C 342.49 421.24 341.52 420.77 340.55 420.31 C 337.11 418.36 333.94 415.96 331.53 412.80 C 330.53 413.03 329.54 413.31 328.57 413.63 C 326.78 414.55 324.85 415.34 323.56 416.96 C 323.05 416.99 322.02 417.04 321.51 417.07 C 320.53 417.65 319.54 418.23 318.55 418.79 C 317.45 418.97 316.42 419.31 315.44 419.81 C 314.97 419.90 314.04 420.09 313.57 420.18 C 312.13 421.28 310.26 420.93 308.59 421.13 C 306.57 422.50 303.39 422.56 301.41 421.09 C 300.12 421.01 298.83 420.96 297.55 420.88 C 296.02 419.80 293.98 420.19 292.42 419.17 C 291.96 419.08 291.03 418.90 290.57 418.81 C 289.03 417.64 287.08 418.06 285.31 417.97 C 284.83 419.21 284.25 420.42 283.68 421.62 C 283.31 422.56 282.99 423.52 282.71 424.49 C 282.20 425.84 281.77 427.22 281.19 428.55 C 281.10 429.03 280.91 429.98 280.81 430.45 C 280.38 431.44 279.99 432.44 279.64 433.46 C 279.12 434.73 278.97 436.10 278.76 437.45 C 278.02 438.66 277.99 440.10 277.78 441.47 C 276.79 442.79 277.02 444.46 276.90 446.00 C 277.56 446.00 278.87 445.98 279.53 445.98 C 280.62 444.77 281.97 443.88 283.44 443.20 C 284.93 443.00 286.28 442.36 287.61 441.67 C 289.44 440.55 291.89 441.56 293.55 440.08 C 297.18 440.31 301.20 439.10 304.56 440.78 C 306.33 440.92 308.02 441.41 309.63 442.16 C 313.06 444.43 317.24 446.29 318.77 450.43 C 319.01 450.95 319.49 451.98 319.73 452.49 C 320.01 453.52 320.34 454.54 320.74 455.54 C 320.94 457.43 321.53 459.23 322.21 461.01 C 326.61 461.51 331.47 459.95 335.57 461.84 C 336.05 461.91 337.01 462.05 337.49 462.12 C 338.01 462.40 339.04 462.97 339.55 463.25 C 342.19 464.28 344.00 466.52 346.00 468.42 C 346.00 468.96 345.99 470.05 345.99 470.59 C 344.83 471.68 343.70 472.80 342.60 473.95 C 342.09 474.00 341.08 474.10 340.57 474.14 C 339.40 475.02 337.92 474.97 336.57 475.22 C 334.79 476.43 332.58 475.89 330.58 476.10 C 329.35 477.38 327.53 476.93 325.98 477.03 C 316.84 476.99 307.70 476.91 298.57 477.05 C 298.15 477.31 297.32 477.82 296.91 478.07 C 288.95 478.54 280.97 477.91 273.00 478.24 C 271.13 478.10 268.81 478.73 267.43 477.05 C 266.47 477.03 265.52 477.03 264.56 477.05 C 262.89 478.92 260.16 478.06 257.98 478.26 C 252.32 477.93 246.64 478.58 241.00 478.08 C 240.61 477.83 239.83 477.31 239.44 477.06 C 238.97 477.05 238.03 477.05 237.56 477.05 C 236.52 478.31 235.48 478.31 234.44 477.05 C 207.62 476.93 180.80 476.97 153.98 477.03 C 152.43 476.93 150.62 477.39 149.42 476.07 C 145.12 475.89 140.82 476.10 136.53 475.94 C 133.34 473.43 128.71 476.46 125.42 474.15 C 123.74 473.92 121.83 474.34 120.43 473.14 C 119.94 473.08 118.97 472.97 118.48 472.91 C 116.82 471.82 114.54 471.05 113.92 468.95 C 115.84 465.75 119.09 463.68 122.46 462.25 C 123.54 462.02 124.58 461.65 125.57 461.15 C 126.52 461.05 127.47 460.96 128.42 460.87 C 130.74 459.17 133.82 460.23 136.48 460.07 C 137.53 461.15 139.11 460.93 140.46 461.23 C 141.70 462.11 143.21 461.99 144.65 462.07 C 144.95 461.41 145.55 460.10 145.86 459.45 C 145.91 458.95 146.02 457.95 146.07 457.45 C 149.37 451.74 153.88 446.66 159.56 443.25 C 160.06 443.14 161.06 442.91 161.56 442.80 C 162.54 442.23 163.51 441.67 164.49 441.10 C 164.98 441.04 165.94 440.93 166.43 440.87 C 167.98 439.47 170.15 440.13 172.03 439.96 C 174.20 440.15 176.68 439.40 178.58 440.84 C 179.05 440.93 179.98 441.11 180.44 441.20 C 181.76 441.75 183.13 442.16 184.47 442.65 C 186.53 444.00 188.70 445.23 190.47 446.97 C 191.11 446.98 192.39 447.00 193.03 447.01 C 192.95 445.14 193.25 443.18 192.36 441.46 C 192.00 440.43 191.61 439.42 191.17 438.44 C 191.10 437.95 190.98 436.96 190.91 436.47 C 190.30 435.48 189.68 434.49 189.07 433.51 C 189.03 433.00 188.97 431.99 188.94 431.48 C 188.31 430.49 187.69 429.51 187.08 428.53 C 187.02 428.04 186.91 427.06 186.85 426.57 C 186.32 425.59 185.96 424.56 185.77 423.46 C 185.26 422.48 184.75 421.51 184.24 420.54 C 183.97 419.50 183.66 418.48 183.31 417.47 C 183.07 416.46 182.78 415.47 182.44 414.49 C 181.17 413.93 179.76 414.03 178.42 413.91 C 176.48 416.68 173.62 418.45 170.54 419.73 C 170.03 419.98 169.00 420.48 168.49 420.73 C 167.40 420.93 166.39 421.32 165.46 421.90 C 163.84 421.98 162.21 422.01 160.58 422.10 C 157.95 423.61 154.09 423.53 151.42 422.14 C 150.46 422.04 149.50 421.95 148.55 421.86 C 147.40 420.83 145.82 421.03 144.42 420.88 C 142.16 418.94 138.31 418.28 137.72 415.00 C 136.61 414.99 135.51 414.99 134.40 415.00 C 131.22 418.00 128.62 421.80 124.62 423.78 C 123.54 424.23 122.48 424.74 121.42 425.25 C 119.66 426.40 117.69 427.16 115.56 427.20 C 114.26 428.27 112.58 427.98 111.04 428.03 C 107.54 427.97 104.04 428.04 100.55 427.93 C 99.46 426.85 97.88 427.04 96.52 426.77 C 95.23 426.24 93.90 425.81 92.60 425.32 C 86.53 422.55 81.56 417.76 77.61 412.48 C 77.39 411.85 76.96 410.61 76.75 409.99 C 74.64 410.17 72.21 409.38 70.44 410.90 C 67.46 410.74 64.09 411.85 61.43 410.14 C 60.47 410.04 59.50 409.95 58.54 409.86 C 57.58 409.32 56.56 408.95 55.48 408.74 C 54.14 408.04 52.79 407.36 51.40 406.77 C 48.50 405.35 46.34 402.83 43.47 401.33 C 39.94 399.54 38.23 395.80 36.23 392.61 C 35.63 391.21 34.96 389.85 34.26 388.51 C 34.01 387.44 33.66 386.42 33.20 385.43 C 33.11 384.96 32.92 384.04 32.83 383.58 C 31.96 382.41 32.03 380.92 31.78 379.57 C 30.14 376.53 31.28 372.83 31.07 369.53 C 32.15 368.04 32.01 366.12 32.65 364.47 C 33.12 363.08 33.65 361.72 34.15 360.35 C 38.88 353.08 44.89 346.44 52.46 342.06 C 52.97 342.03 54.00 341.97 54.51 341.94 C 55.01 341.60 56.01 340.93 56.51 340.59 C 60.49 339.28 64.83 340.32 68.95 340.00 C 68.99 339.39 69.07 338.17 69.11 337.55 C 70.63 335.82 69.40 333.22 70.83 331.44 C 70.92 330.97 71.10 330.03 71.20 329.56 C 71.62 328.57 72.00 327.56 72.36 326.54 C 72.68 325.51 72.96 324.47 73.21 323.43 C 74.24 322.27 75.15 321.02 75.70 319.57 C 77.90 316.42 79.98 313.06 83.00 310.60 C 82.94 305.74 83.11 300.87 82.96 296.00 C 82.76 295.61 82.36 294.82 82.16 294.43 C 82.10 293.94 81.98 292.97 81.91 292.48 C 81.58 291.98 80.92 290.98 80.59 290.47 C 80.30 289.47 80.03 288.47 79.78 287.46 C 79.26 286.50 78.76 285.54 78.26 284.58 C 76.00 279.81 72.67 275.62 69.75 271.25 C 64.42 266.23 59.80 260.38 53.70 256.26 C 50.79 254.09 47.75 252.06 44.62 250.22 C 42.75 249.47 40.84 248.68 39.56 247.04 C 39.05 247.00 38.03 246.93 37.53 246.90 C 37.00 246.61 35.96 246.04 35.44 245.76 C 34.45 245.20 33.46 244.63 32.48 244.06 C 31.99 244.03 30.99 243.97 30.49 243.93 C 29.51 243.31 28.52 242.69 27.53 242.07 C 27.04 242.01 26.05 241.90 25.56 241.84 C 24.57 241.37 23.55 240.98 22.51 240.67 C 21.52 240.32 20.52 239.98 19.52 239.66 C 18.51 239.32 17.50 239.02 16.47 238.74 C 14.91 237.85 13.27 237.06 11.49 236.76 C 10.14 236.06 8.79 235.38 7.42 234.72 C 5.64 233.73 3.62 233.10 2.05 231.79 C 1.99 230.00 4.30 230.19 5.46 229.70 C 7.13 228.65 9.13 229.04 10.98 228.98 C 17.46 228.98 23.94 229.12 30.42 228.94 C 33.28 226.94 37.13 228.50 40.41 227.94 C 42.65 226.14 45.78 227.33 48.41 226.93 C 50.71 224.87 54.18 227.07 56.58 225.18 C 58.25 224.98 60.08 225.26 61.54 224.23 C 62.90 224.00 64.34 224.01 65.54 223.23 C 66.90 222.97 68.41 223.09 69.55 222.14 C 70.05 222.09 71.04 221.99 71.54 221.94 C 75.85 219.27 80.57 216.46 82.37 211.42 C 83.71 208.14 82.69 204.45 83.00 201.00 C 82.76 198.16 83.73 195.04 82.23 192.44 C 81.99 191.08 82.02 189.62 81.18 188.44 C 81.10 187.97 80.93 187.01 80.84 186.54 C 80.24 185.19 79.75 183.81 79.15 182.47 C 79.09 181.98 78.96 181.00 78.90 180.51 C 77.95 178.90 77.10 177.23 76.25 175.58 C 75.76 174.51 75.24 173.46 74.75 172.41 C 73.20 169.34 71.70 166.26 69.72 163.44 C 64.89 155.12 59.00 147.45 53.73 139.43 C 51.61 135.25 48.41 131.74 46.28 127.57 C 44.89 124.90 42.72 122.69 41.61 119.87 C 43.04 119.82 44.36 120.14 45.57 120.84 C 46.03 120.93 46.97 121.11 47.43 121.20 C 48.43 121.68 49.48 122.02 50.57 122.21 C 51.52 122.74 52.45 123.27 53.38 123.82 C 54.74 124.38 56.10 124.94 57.55 125.20 C 58.54 125.77 59.53 126.35 60.51 126.94 C 61.01 126.97 62.00 127.04 62.49 127.07 C 63.49 127.69 64.49 128.31 65.49 128.94 C 65.97 129.00 66.94 129.12 67.42 129.18 C 68.42 129.62 69.43 130.01 70.47 130.36 C 71.48 130.69 72.51 130.97 73.56 131.21 C 74.54 131.77 75.52 132.33 76.49 132.90 C 76.98 132.97 77.96 133.10 78.45 133.16 C 79.80 133.76 81.20 134.25 82.55 134.85 C 83.03 134.93 83.99 135.09 84.47 135.17 C 85.82 135.76 87.20 136.26 88.55 136.85 C 89.02 136.94 89.96 137.11 90.43 137.20 C 91.42 137.65 92.45 138.01 93.50 138.29 C 94.85 138.80 96.21 139.25 97.54 139.82 C 98.01 139.91 98.96 140.09 99.44 140.18 C 100.62 141.03 102.10 140.99 103.46 141.25 C 105.08 142.05 107.01 141.90 108.57 142.86 C 109.52 142.95 110.47 143.05 111.43 143.15 C 113.17 144.50 115.44 143.88 117.46 144.10 C 121.33 146.15 126.16 144.64 130.42 144.94 C 131.90 143.72 134.01 144.21 135.58 143.16 C 136.07 143.10 137.06 142.99 137.56 142.94 C 138.57 141.76 139.95 141.07 141.23 140.25 C 142.50 138.37 143.68 136.43 144.93 134.54 C 144.99 134.04 145.09 133.05 145.14 132.55 C 146.87 129.89 145.65 126.50 146.05 123.53 C 147.40 122.36 146.95 120.54 147.05 119.00 C 147.04 110.70 146.92 102.40 147.07 94.10 C 146.86 92.65 148.16 91.77 149.47 92.08 C 157.14 98.82 163.22 107.72 172.57 112.27 C 176.60 115.00 181.95 114.23 186.49 113.47 C 190.68 110.54 192.99 105.62 195.96 101.53 C 195.98 101.02 196.04 100.00 196.07 99.49 C 196.65 98.54 197.24 97.58 197.84 96.63 C 198.38 95.27 198.94 93.90 199.22 92.46 C 199.74 91.51 200.27 90.56 200.81 89.61 C 201.36 88.26 201.90 86.91 202.34 85.52 C 202.68 84.52 202.98 83.50 203.25 82.48 C 203.52 81.97 204.08 80.95 204.36 80.44 C 204.70 79.48 205.02 78.51 205.32 77.53 C 205.67 76.53 206.01 75.53 206.34 74.53 C 206.93 72.86 206.97 71.02 207.81 69.44 C 207.90 68.96 208.09 68.01 208.18 67.53 C 209.10 65.96 208.91 64.02 209.81 62.43 C 209.91 61.96 210.10 61.03 210.20 60.57 C 211.08 58.96 210.90 57.02 211.82 55.43 C 211.91 54.96 212.09 54.01 212.18 53.54 C 212.64 52.57 213.04 51.57 213.38 50.55 C 213.90 48.86 213.98 47.03 214.82 45.44 C 214.91 44.97 215.10 44.04 215.19 43.58 C 216.02 42.38 216.00 40.92 216.24 39.55 C 216.96 38.33 217.01 36.90 217.25 35.55 C 218.03 33.92 217.94 32.02 218.82 30.43 C 218.91 29.96 219.10 29.03 219.19 28.57 C 220.03 27.38 219.98 25.89 220.22 24.52 C 220.63 23.55 221.01 22.58 221.38 21.59 C 221.83 20.28 222.03 18.91 222.26 17.55 C 223.22 16.04 222.98 14.23 223.15 12.54 C 224.16 10.99 223.85 9.00 224.82 7.43 C 224.91 6.97 225.10 6.04 225.20 5.58 C 225.80 4.38 226.14 3.11 226.21 1.76 M 225.96 20.03 C 223.49 32.08 219.73 43.82 216.54 55.69 C 210.83 73.58 205.84 91.95 196.40 108.33 C 194.21 112.02 191.55 115.78 187.48 117.53 C 181.96 120.40 175.35 118.61 170.19 115.82 C 162.76 112.08 157.58 105.42 150.95 100.63 C 151.04 111.72 152.06 123.09 149.16 133.93 C 147.46 140.70 142.30 146.62 135.46 148.45 C 122.80 151.97 109.75 148.13 97.60 144.49 C 81.87 139.29 66.21 133.76 51.07 127.03 C 58.05 139.16 66.91 150.07 73.86 162.21 C 79.35 171.12 84.16 180.67 86.29 190.99 C 87.93 197.84 88.93 205.10 87.27 212.04 C 85.84 217.91 80.72 221.98 75.49 224.43 C 62.10 230.19 47.44 231.90 33.03 232.93 C 27.16 233.33 21.22 232.46 15.39 233.44 C 25.86 236.81 36.35 240.43 45.81 246.16 C 56.23 251.89 65.36 259.85 72.83 269.06 C 81.09 279.46 88.57 292.11 87.31 305.89 C 91.86 303.45 96.85 301.91 101.94 301.09 C 113.54 299.54 125.99 300.70 135.94 307.33 C 143.45 313.96 149.93 322.32 152.20 332.26 C 159.96 329.94 168.41 329.11 176.15 331.98 C 187.79 335.54 196.19 345.97 199.42 357.43 L 199.10 357.94 C 200.08 361.17 200.33 364.54 200.33 367.90 C 202.93 369.20 205.71 370.17 208.18 371.74 C 213.40 375.41 217.04 381.44 217.24 387.89 C 218.72 387.99 220.21 388.07 221.70 388.13 C 220.42 389.00 218.92 389.36 217.43 389.69 C 217.92 396.03 216.97 403.32 211.57 407.46 C 204.05 412.92 193.86 413.42 185.33 410.15 C 186.03 413.19 186.82 416.23 188.05 419.12 C 191.99 428.84 195.93 438.58 199.74 448.36 C 201.83 454.28 203.89 460.22 206.39 465.99 C 207.71 460.40 207.35 454.56 208.93 449.01 C 210.55 443.07 210.02 436.72 211.98 430.86 C 214.17 431.21 214.71 433.71 215.91 435.24 C 222.73 445.29 231.17 454.14 237.79 464.33 C 238.15 464.93 238.64 465.40 239.25 465.75 C 244.52 453.65 251.79 442.40 255.38 429.59 C 258.58 434.82 258.09 441.30 260.29 446.92 C 262.72 453.19 264.25 459.75 266.53 466.07 C 269.44 453.80 273.06 441.72 276.39 429.57 C 277.62 424.55 280.54 420.11 281.70 415.09 C 279.70 412.42 277.19 410.14 275.65 407.14 C 268.98 410.66 261.06 411.67 253.81 409.41 C 247.79 407.31 242.92 402.87 239.10 397.89 C 236.41 394.35 236.30 389.47 233.16 386.21 C 234.98 385.69 234.10 383.37 234.25 382.04 C 233.74 375.91 235.45 369.82 237.97 364.29 C 240.46 360.69 243.31 357.24 247.03 354.85 C 252.98 350.64 260.90 350.00 267.79 351.97 C 268.48 346.60 270.06 341.35 272.48 336.51 C 276.83 329.16 284.36 324.17 292.32 321.46 C 300.42 318.80 309.00 320.92 316.86 323.40 C 316.76 317.07 319.95 311.38 323.25 306.21 C 328.49 298.19 336.58 292.38 345.52 289.12 C 353.69 286.40 362.65 286.28 370.99 288.33 C 373.32 288.67 375.76 290.17 378.11 289.35 C 379.68 286.34 380.25 282.92 381.81 279.91 C 385.04 272.86 390.56 267.21 396.37 262.21 C 406.19 254.13 418.19 249.37 430.03 245.09 C 432.54 244.15 434.84 242.78 437.08 241.32 C 425.80 239.38 414.33 237.34 404.09 231.99 C 397.49 228.89 392.02 223.27 389.62 216.33 C 386.91 209.11 388.40 201.07 391.16 194.11 C 397.48 178.36 408.62 165.32 419.38 152.46 C 421.98 149.40 425.07 146.80 427.64 143.72 C 406.82 148.29 386.06 153.36 364.91 156.25 C 357.95 157.21 350.88 156.48 344.03 155.10 C 335.72 153.09 327.69 148.14 323.80 140.28 C 318.94 131.65 319.91 121.45 320.10 111.94 C 321.67 96.63 324.40 81.46 327.52 66.40 C 328.60 60.75 330.55 55.28 331.08 49.53 C 323.56 58.85 316.55 68.61 308.35 77.36 C 300.67 85.67 293.05 94.36 283.21 100.20 C 278.52 102.74 273.03 104.72 267.66 103.48 C 261.32 101.86 256.97 96.41 253.79 91.02 C 249.60 83.53 246.57 75.45 243.54 67.43 C 239.95 57.01 235.80 46.76 233.08 36.06 C 231.30 28.86 229.24 21.73 227.54 14.51 C 226.93 16.33 226.35 18.16 225.96 20.03 M 327.14 310.92 C 322.87 316.91 321.82 324.37 320.84 331.48 C 312.51 326.53 302.30 325.61 292.97 327.77 C 284.72 330.24 277.98 337.06 275.13 345.13 C 273.31 349.85 274.07 355.00 273.87 359.94 C 269.07 358.33 264.11 356.76 258.99 356.99 C 254.33 357.14 249.89 359.43 246.83 362.91 C 241.79 368.15 239.80 375.72 240.04 382.84 C 240.27 389.09 243.26 395.05 247.81 399.26 C 253.02 403.64 260.25 405.46 266.91 404.15 C 271.62 403.22 275.29 399.92 279.57 397.97 C 280.85 402.13 281.55 406.97 285.27 409.76 C 294.86 417.72 309.37 418.96 320.39 413.33 C 324.32 411.56 327.18 408.15 330.92 406.16 C 334.03 408.28 335.55 412.25 338.99 414.10 C 346.02 419.36 355.50 420.02 363.74 417.66 C 369.48 415.57 373.20 410.53 377.40 406.42 C 378.46 405.13 379.57 407.01 380.36 407.63 C 384.32 412.12 390.06 415.01 396.06 415.33 C 403.79 416.13 411.55 412.29 416.21 406.18 C 420.80 400.30 422.32 392.83 423.73 385.70 C 427.32 381.20 433.49 378.49 435.11 372.46 C 436.37 367.34 437.69 362.02 436.46 356.76 C 435.22 349.33 430.60 342.67 424.41 338.50 C 417.31 334.12 408.05 335.69 401.28 339.97 C 403.34 323.50 395.97 304.95 380.28 297.77 C 362.75 287.80 337.77 293.57 327.14 310.92 M 77.38 325.38 C 73.68 332.07 73.05 339.88 74.06 347.34 C 70.09 346.01 66.21 343.25 61.84 344.26 C 53.48 345.95 46.31 351.47 41.00 357.97 C 35.49 365.08 35.69 374.76 37.91 383.06 C 40.46 391.95 47.02 399.39 55.14 403.66 C 62.31 406.86 71.31 407.06 78.09 402.76 C 80.79 408.40 83.37 414.59 88.65 418.32 C 98.36 424.75 111.17 425.28 121.80 420.87 C 127.17 417.94 130.43 412.61 134.28 408.12 C 136.51 408.15 137.79 410.32 139.34 411.61 C 145.65 418.47 155.98 419.52 164.62 417.52 C 172.39 415.18 177.58 408.56 183.21 403.18 C 185.97 403.16 188.25 405.45 191.00 405.89 C 196.21 406.68 202.15 406.75 206.49 403.28 C 211.00 400.18 212.49 394.12 211.74 388.95 C 210.71 384.24 209.05 379.02 204.66 376.39 C 201.59 374.00 197.52 375.25 193.96 374.52 C 198.24 358.38 186.99 339.60 170.37 336.50 C 162.68 334.66 154.80 337.55 148.80 342.35 C 147.19 330.92 141.75 319.76 132.48 312.65 C 124.57 306.86 114.33 306.46 104.92 307.17 C 93.61 308.44 82.44 314.91 77.38 325.38 Z" />
<path fill="#3f1203" opacity="1.00" d=" M 98.34 59.96 C 101.49 59.90 104.80 59.66 107.43 61.74 C 111.05 62.75 112.98 66.15 116.24 67.76 C 118.35 71.07 120.97 74.02 122.93 77.44 C 122.98 77.94 123.08 78.93 123.13 79.43 C 124.11 80.55 123.94 82.08 124.20 83.44 C 125.26 84.53 125.22 85.56 124.10 86.56 C 124.03 87.54 123.97 88.53 123.93 89.52 C 123.06 91.56 121.50 93.04 119.49 93.95 C 117.15 93.98 114.81 94.00 112.47 93.97 C 105.41 89.94 99.55 83.90 96.12 76.50 C 96.05 76.02 95.92 75.05 95.85 74.57 C 94.08 71.54 95.37 67.79 95.04 64.45 C 95.99 62.85 97.10 61.35 98.34 59.96 M 100.02 63.78 C 99.18 66.79 98.61 70.03 99.75 73.05 C 102.10 80.24 107.37 86.94 114.64 89.58 C 116.53 90.27 119.77 90.60 120.14 87.89 C 121.13 81.70 117.66 75.83 113.87 71.23 C 110.11 67.59 105.63 63.51 100.02 63.78 Z" />
<path fill="#3f1203" opacity="1.00" d=" M 406.47 83.67 C 408.04 82.77 409.85 83.01 411.58 82.97 C 412.71 84.21 413.91 85.39 415.17 86.51 C 415.01 87.58 414.70 88.60 414.23 89.57 C 414.02 90.87 413.90 92.20 413.38 93.43 C 412.65 94.75 411.95 96.08 411.23 97.41 C 410.74 98.48 410.24 99.54 409.78 100.63 C 405.18 108.16 399.66 115.66 391.60 119.76 C 390.52 120.26 389.46 120.80 388.41 121.35 C 386.54 122.39 384.11 121.47 382.44 122.94 C 380.49 122.92 378.35 123.44 376.60 122.32 C 375.47 121.77 374.34 121.22 373.19 120.75 C 372.49 119.04 371.06 116.98 372.89 115.41 C 372.94 114.93 373.02 113.96 373.07 113.48 C 376.47 109.03 379.67 104.40 382.84 99.78 C 386.65 95.25 391.58 91.84 396.56 88.73 C 398.31 87.87 399.90 86.75 401.52 85.66 C 403.12 84.88 404.74 84.13 406.47 83.67 M 404.19 89.15 C 398.08 92.48 392.37 96.58 387.22 101.24 C 383.14 105.71 380.31 111.21 377.84 116.70 C 382.01 116.66 386.46 117.28 390.32 115.31 C 395.38 113.05 399.01 108.69 402.51 104.55 C 406.33 99.65 409.69 93.99 410.13 87.65 C 408.08 87.82 405.98 88.07 404.19 89.15 Z" />
<path fill="#3f1203" opacity="1.00" d=" M 42.43 295.85 C 44.51 294.34 47.20 295.19 49.57 295.01 C 51.02 296.58 52.55 298.09 54.18 299.48 C 54.06 300.59 53.71 301.62 53.13 302.57 C 53.08 303.06 52.98 304.04 52.94 304.53 C 51.99 305.41 51.21 306.45 50.65 307.62 C 46.50 310.08 42.78 313.21 38.45 315.36 C 37.25 316.19 35.75 316.25 34.59 315.31 C 33.49 314.77 32.39 314.23 31.27 313.73 C 30.99 313.16 30.43 312.02 30.15 311.45 C 30.08 310.98 29.93 310.04 29.86 309.57 C 28.78 308.52 28.79 307.48 29.87 306.44 C 29.93 305.95 30.04 304.98 30.09 304.49 C 31.91 300.08 36.71 298.42 40.50 296.12 C 40.99 296.05 41.95 295.92 42.43 295.85 M 36.37 303.25 C 33.41 304.77 33.60 308.34 33.76 311.18 C 38.69 312.37 42.37 308.44 46.03 305.86 C 47.94 304.43 50.52 301.80 48.59 299.38 C 44.20 298.45 39.99 301.09 36.37 303.25 Z" />
<path fill="#3f1203" opacity="1.00" d=" M 429.57 296.67 C 431.36 295.55 433.53 296.09 435.52 296.02 C 438.35 297.30 440.28 299.68 441.34 302.56 C 442.26 303.81 442.29 305.47 441.11 306.59 C 441.07 307.11 441.00 308.14 440.96 308.65 C 439.61 309.06 438.43 309.83 437.56 310.94 C 435.97 311.23 433.73 310.28 432.73 311.98 C 431.74 311.31 430.63 310.94 429.46 310.80 C 427.79 310.02 426.31 308.92 425.00 307.65 C 424.97 307.13 424.93 306.10 424.90 305.58 C 423.75 304.48 424.03 302.91 423.98 301.51 C 425.02 299.05 427.13 297.56 429.57 296.67 M 429.27 300.53 C 427.89 301.27 428.10 303.35 428.40 304.67 C 429.64 309.56 439.55 308.57 437.87 303.02 C 436.92 299.41 432.09 299.41 429.27 300.53 Z" />
</g>
<g id="#a33608ff">
<path fill="#a33608" opacity="1.00" d=" M 225.96 20.03 C 226.35 18.16 226.93 16.33 227.54 14.51 C 229.24 21.73 231.30 28.86 233.08 36.06 C 235.80 46.76 239.95 57.01 243.54 67.43 C 246.57 75.45 249.60 83.53 253.79 91.02 C 256.97 96.41 261.32 101.86 267.66 103.48 C 273.03 104.72 278.52 102.74 283.21 100.20 C 293.05 94.36 300.67 85.67 308.35 77.36 C 316.55 68.61 323.56 58.85 331.08 49.53 C 330.55 55.28 328.60 60.75 327.52 66.40 C 324.40 81.46 321.67 96.63 320.10 111.94 C 319.91 121.45 318.94 131.65 323.80 140.28 C 327.69 148.14 335.72 153.09 344.03 155.10 C 350.88 156.48 357.95 157.21 364.91 156.25 C 386.06 153.36 406.82 148.29 427.64 143.72 C 425.07 146.80 421.98 149.40 419.38 152.46 C 408.62 165.32 397.48 178.36 391.16 194.11 C 388.40 201.07 386.91 209.11 389.62 216.33 C 392.02 223.27 397.49 228.89 404.09 231.99 C 414.33 237.34 425.80 239.38 437.08 241.32 C 434.84 242.78 432.54 244.15 430.03 245.09 C 418.19 249.37 406.19 254.13 396.37 262.21 C 390.56 267.21 385.04 272.86 381.81 279.91 C 380.25 282.92 379.68 286.34 378.11 289.35 C 375.76 290.17 373.32 288.67 370.99 288.33 C 362.65 286.28 353.69 286.40 345.52 289.12 C 345.75 283.92 348.19 278.73 346.43 273.57 C 345.18 269.54 343.56 265.43 340.63 262.31 C 337.51 259.04 333.17 257.38 328.99 255.93 C 337.40 249.05 343.59 239.01 344.12 227.98 C 345.32 217.13 341.94 205.62 334.15 197.82 C 323.40 186.96 305.53 184.44 292.02 191.39 C 297.89 178.63 297.62 163.27 291.24 150.76 C 287.02 142.56 279.43 136.57 271.04 133.02 C 261.06 128.79 249.79 126.71 239.09 129.21 C 226.56 131.67 214.74 139.28 208.68 150.71 C 205.67 156.61 202.85 163.32 204.80 170.03 C 197.93 165.55 190.84 160.82 182.58 159.49 C 167.78 157.10 152.00 164.14 143.52 176.43 C 137.67 186.60 137.84 199.37 141.91 210.14 C 144.01 215.89 148.32 220.40 152.79 224.41 C 144.02 224.31 134.97 226.55 128.07 232.16 C 121.79 237.31 116.99 244.66 116.17 252.87 C 115.30 261.82 115.78 271.51 120.71 279.32 C 125.48 286.38 132.54 292.10 140.83 294.43 C 138.16 298.28 136.90 302.81 135.94 307.33 C 125.99 300.70 113.54 299.54 101.94 301.09 C 96.85 301.91 91.86 303.45 87.31 305.89 C 88.57 292.11 81.09 279.46 72.83 269.06 C 65.36 259.85 56.23 251.89 45.81 246.16 C 36.35 240.43 25.86 236.81 15.39 233.44 C 21.22 232.46 27.16 233.33 33.03 232.93 C 47.44 231.90 62.10 230.19 75.49 224.43 C 80.72 221.98 85.84 217.91 87.27 212.04 C 88.93 205.10 87.93 197.84 86.29 190.99 C 84.16 180.67 79.35 171.12 73.86 162.21 C 66.91 150.07 58.05 139.16 51.07 127.03 C 66.21 133.76 81.87 139.29 97.60 144.49 C 109.75 148.13 122.80 151.97 135.46 148.45 C 142.30 146.62 147.46 140.70 149.16 133.93 C 152.06 123.09 151.04 111.72 150.95 100.63 C 157.58 105.42 162.76 112.08 170.19 115.82 C 175.35 118.61 181.96 120.40 187.48 117.53 C 191.55 115.78 194.21 112.02 196.40 108.33 C 205.84 91.95 210.83 73.58 216.54 55.69 C 219.73 43.82 223.49 32.08 225.96 20.03 Z" />
<path fill="#a33608" opacity="1.00" d=" M 100.02 63.78 C 105.63 63.51 110.11 67.59 113.87 71.23 C 117.66 75.83 121.13 81.70 120.14 87.89 C 119.77 90.60 116.53 90.27 114.64 89.58 C 107.37 86.94 102.10 80.24 99.75 73.05 C 98.61 70.03 99.18 66.79 100.02 63.78 Z" />
<path fill="#a33608" opacity="1.00" d=" M 404.19 89.15 C 405.98 88.07 408.08 87.82 410.13 87.65 C 409.69 93.99 406.33 99.65 402.51 104.55 C 399.01 108.69 395.38 113.05 390.32 115.31 C 386.46 117.28 382.01 116.66 377.84 116.70 C 380.31 111.21 383.14 105.71 387.22 101.24 C 392.37 96.58 398.08 92.48 404.19 89.15 Z" />
<path fill="#a33608" opacity="1.00" d=" M 327.14 310.92 C 337.77 293.57 362.75 287.80 380.28 297.77 C 395.97 304.95 403.34 323.50 401.28 339.97 C 408.05 335.69 417.31 334.12 424.41 338.50 C 430.60 342.67 435.22 349.33 436.46 356.76 C 437.69 362.02 436.37 367.34 435.11 372.46 C 434.59 371.71 434.08 370.97 433.58 370.23 C 432.40 375.27 427.84 378.21 423.73 380.76 C 416.60 384.57 407.75 385.10 400.38 381.60 C 391.63 378.03 386.77 369.55 381.10 362.55 C 379.57 367.67 378.00 373.10 374.09 376.99 C 370.18 380.87 366.42 385.47 360.92 387.08 C 354.94 388.89 348.19 389.07 342.38 386.56 C 337.09 383.95 332.29 380.32 328.38 375.89 C 324.58 381.47 320.31 387.61 313.41 389.47 C 306.92 391.01 299.96 390.46 293.63 388.45 C 288.93 386.83 285.34 383.25 281.93 379.80 C 278.14 383.70 274.80 388.41 269.64 390.61 C 262.64 393.65 254.50 393.94 247.26 391.61 C 243.41 390.31 241.10 386.57 240.04 382.84 C 239.80 375.72 241.79 368.15 246.83 362.91 C 249.89 359.43 254.33 357.14 258.99 356.99 C 264.11 356.76 269.07 358.33 273.87 359.94 C 274.07 355.00 273.31 349.85 275.13 345.13 C 277.98 337.06 284.72 330.24 292.97 327.77 C 302.30 325.61 312.51 326.53 320.84 331.48 C 321.82 324.37 322.87 316.91 327.14 310.92 Z" />
<path fill="#a33608" opacity="1.00" d=" M 36.37 303.25 C 39.99 301.09 44.20 298.45 48.59 299.38 C 50.52 301.80 47.94 304.43 46.03 305.86 C 42.37 308.44 38.69 312.37 33.76 311.18 C 33.60 308.34 33.41 304.77 36.37 303.25 Z" />
<path fill="#a33608" opacity="1.00" d=" M 429.27 300.53 C 432.09 299.41 436.92 299.41 437.87 303.02 C 439.55 308.57 429.64 309.56 428.40 304.67 C 428.10 303.35 427.89 301.27 429.27 300.53 Z" />
<path fill="#a33608" opacity="1.00" d=" M 77.38 325.38 C 82.44 314.91 93.61 308.44 104.92 307.17 C 114.33 306.46 124.57 306.86 132.48 312.65 C 141.75 319.76 147.19 330.92 148.80 342.35 C 154.80 337.55 162.68 334.66 170.37 336.50 C 186.99 339.60 198.24 358.38 193.96 374.52 C 190.29 381.43 182.98 385.19 176.12 388.26 C 161.49 392.70 144.38 384.63 138.27 370.64 C 133.70 377.71 128.59 384.78 121.32 389.30 C 114.66 393.43 105.48 393.60 98.96 389.07 C 93.04 385.69 88.33 380.61 84.92 374.76 C 82.53 380.42 80.20 386.42 75.68 390.76 C 69.17 396.18 59.85 397.84 51.78 395.39 C 48.34 394.19 45.52 391.79 42.49 389.85 C 44.61 393.33 47.40 397.96 52.10 397.62 C 51.78 398.18 51.16 399.29 50.84 399.85 C 54.01 401.44 57.16 403.55 60.82 403.63 C 64.53 403.69 68.31 404.00 71.95 403.09 C 73.96 402.68 76.07 401.98 78.09 402.76 C 71.31 407.06 62.31 406.86 55.14 403.66 C 47.02 399.39 40.46 391.95 37.91 383.06 C 35.69 374.76 35.49 365.08 41.00 357.97 C 46.31 351.47 53.48 345.95 61.84 344.26 C 66.21 343.25 70.09 346.01 74.06 347.34 C 73.05 339.88 73.68 332.07 77.38 325.38 Z" />
<path fill="#a33608" opacity="1.00" d=" M 201.29 354.53 C 203.82 355.47 206.35 356.63 209.09 356.82 C 211.75 356.77 214.12 355.36 216.50 354.32 C 219.13 357.79 222.35 360.89 226.34 362.74 C 229.93 364.57 234.07 364.28 237.97 364.29 C 235.45 369.82 233.74 375.91 234.25 382.04 C 234.10 383.37 234.98 385.69 233.16 386.21 C 229.53 387.70 225.58 388.06 221.70 388.13 C 220.21 388.07 218.72 387.99 217.24 387.89 C 217.04 381.44 213.40 375.41 208.18 371.74 C 205.71 370.17 202.93 369.20 200.33 367.90 C 200.33 364.54 200.08 361.17 199.10 357.94 L 199.42 357.43 C 200.04 356.45 200.66 355.49 201.29 354.53 Z" />
</g>
<g id="#c06d0dff">
<path fill="#c06d0d" opacity="1.00" d=" M 239.09 129.21 C 249.79 126.71 261.06 128.79 271.04 133.02 C 279.43 136.57 287.02 142.56 291.24 150.76 C 297.62 163.27 297.89 178.63 292.02 191.39 C 305.53 184.44 323.40 186.96 334.15 197.82 C 341.94 205.62 345.32 217.13 344.12 227.98 C 343.59 239.01 337.40 249.05 328.99 255.93 C 333.17 257.38 337.51 259.04 340.63 262.31 C 343.56 265.43 345.18 269.54 346.43 273.57 C 348.19 278.73 345.75 283.92 345.52 289.12 C 336.58 292.38 328.49 298.19 323.25 306.21 C 319.95 311.38 316.76 317.07 316.86 323.40 C 309.00 320.92 300.42 318.80 292.32 321.46 C 284.36 324.17 276.83 329.16 272.48 336.51 C 270.06 341.35 268.48 346.60 267.79 351.97 C 260.90 350.00 252.98 350.64 247.03 354.85 C 243.31 357.24 240.46 360.69 237.97 364.29 C 234.07 364.28 229.93 364.57 226.34 362.74 C 222.35 360.89 219.13 357.79 216.50 354.32 C 214.12 355.36 211.75 356.77 209.09 356.82 C 206.35 356.63 203.82 355.47 201.29 354.53 C 200.66 355.49 200.04 356.45 199.42 357.43 C 196.19 345.97 187.79 335.54 176.15 331.98 C 168.41 329.11 159.96 329.94 152.20 332.26 C 149.93 322.32 143.45 313.96 135.94 307.33 C 136.90 302.81 138.16 298.28 140.83 294.43 C 132.54 292.10 125.48 286.38 120.71 279.32 C 115.78 271.51 115.30 261.82 116.17 252.87 C 116.99 244.66 121.79 237.31 128.07 232.16 C 134.97 226.55 144.02 224.31 152.79 224.41 C 148.32 220.40 144.01 215.89 141.91 210.14 C 137.84 199.37 137.67 186.60 143.52 176.43 C 152.00 164.14 167.78 157.10 182.58 159.49 C 190.84 160.82 197.93 165.55 204.80 170.03 C 202.85 163.32 205.67 156.61 208.68 150.71 C 214.74 139.28 226.56 131.67 239.09 129.21 M 212.47 191.45 C 206.45 197.47 201.37 205.43 201.67 214.25 C 192.59 206.62 177.01 208.29 170.55 218.51 C 164.79 227.10 166.69 238.79 172.55 246.83 C 164.52 246.85 158.19 252.82 154.42 259.39 C 152.21 263.50 152.58 268.40 152.60 272.91 C 152.75 279.73 156.56 285.95 161.63 290.31 C 166.52 294.72 173.79 295.90 180.02 294.13 C 179.82 300.59 179.73 307.70 183.77 313.15 C 188.00 318.95 195.37 323.49 202.75 321.71 C 206.90 320.11 209.37 315.98 210.59 311.89 C 212.08 315.58 214.04 319.75 218.33 320.70 C 222.71 322.18 225.86 317.74 227.43 314.30 C 231.91 303.61 233.08 291.93 235.35 280.65 C 237.00 286.17 237.46 291.99 239.45 297.42 C 242.10 305.78 248.51 312.76 256.39 316.53 C 261.20 319.00 266.73 320.55 272.13 319.28 C 280.65 317.20 289.29 311.84 292.05 303.05 C 294.24 295.95 294.07 287.85 291.07 281.00 C 299.98 282.44 307.45 275.79 311.55 268.59 C 314.60 262.29 316.87 255.15 315.61 248.10 C 314.35 240.52 309.91 233.73 304.20 228.72 C 297.45 223.39 287.87 222.40 279.88 225.28 C 280.82 214.96 279.38 203.72 272.56 195.49 C 258.12 178.33 229.00 176.11 212.47 191.45 Z" />
</g>
<g id="#dcbb17ff">
<path fill="#dcbb17" opacity="1.00" d=" M 212.47 191.45 C 229.00 176.11 258.12 178.33 272.56 195.49 C 279.38 203.72 280.82 214.96 279.88 225.28 C 287.87 222.40 297.45 223.39 304.20 228.72 C 309.91 233.73 314.35 240.52 315.61 248.10 C 316.87 255.15 314.60 262.29 311.55 268.59 C 307.45 275.79 299.98 282.44 291.07 281.00 C 294.07 287.85 294.24 295.95 292.05 303.05 C 289.29 311.84 280.65 317.20 272.13 319.28 C 266.73 320.55 261.20 319.00 256.39 316.53 C 248.51 312.76 242.10 305.78 239.45 297.42 C 237.46 291.99 237.00 286.17 235.35 280.65 C 233.08 291.93 231.91 303.61 227.43 314.30 C 225.86 317.74 222.71 322.18 218.33 320.70 C 214.04 319.75 212.08 315.58 210.59 311.89 C 209.37 315.98 206.90 320.11 202.75 321.71 C 195.37 323.49 188.00 318.95 183.77 313.15 C 179.73 307.70 179.82 300.59 180.02 294.13 C 173.79 295.90 166.52 294.72 161.63 290.31 C 156.56 285.95 152.75 279.73 152.60 272.91 C 152.58 268.40 152.21 263.50 154.42 259.39 C 158.19 252.82 164.52 246.85 172.55 246.83 C 166.69 238.79 164.79 227.10 170.55 218.51 C 177.01 208.29 192.59 206.62 201.67 214.25 C 201.37 205.43 206.45 197.47 212.47 191.45 Z" />
</g>
<g id="#772005ff">
<path fill="#772005" opacity="1.00" d=" M 381.10 362.55 C 386.77 369.55 391.63 378.03 400.38 381.60 C 407.75 385.10 416.60 384.57 423.73 380.76 C 427.84 378.21 432.40 375.27 433.58 370.23 C 434.08 370.97 434.59 371.71 435.11 372.46 C 433.49 378.49 427.32 381.20 423.73 385.70 C 422.32 392.83 420.80 400.30 416.21 406.18 C 411.55 412.29 403.79 416.13 396.06 415.33 C 390.06 415.01 384.32 412.12 380.36 407.63 C 379.57 407.01 378.46 405.13 377.40 406.42 C 373.20 410.53 369.48 415.57 363.74 417.66 C 355.50 420.02 346.02 419.36 338.99 414.10 C 335.55 412.25 334.03 408.28 330.92 406.16 C 327.18 408.15 324.32 411.56 320.39 413.33 C 309.37 418.96 294.86 417.72 285.27 409.76 C 281.55 406.97 280.85 402.13 279.57 397.97 C 275.29 399.92 271.62 403.22 266.91 404.15 C 260.25 405.46 253.02 403.64 247.81 399.26 C 243.26 395.05 240.27 389.09 240.04 382.84 C 241.10 386.57 243.41 390.31 247.26 391.61 C 254.50 393.94 262.64 393.65 269.64 390.61 C 274.80 388.41 278.14 383.70 281.93 379.80 C 285.34 383.25 288.93 386.83 293.63 388.45 C 299.96 390.46 306.92 391.01 313.41 389.47 C 320.31 387.61 324.58 381.47 328.38 375.89 C 332.29 380.32 337.09 383.95 342.38 386.56 C 348.19 389.07 354.94 388.89 360.92 387.08 C 366.42 385.47 370.18 380.87 374.09 376.99 C 378.00 373.10 379.57 367.67 381.10 362.55 Z" />
<path fill="#772005" opacity="1.00" d=" M 138.27 370.64 C 144.38 384.63 161.49 392.70 176.12 388.26 C 182.98 385.19 190.29 381.43 193.96 374.52 C 197.52 375.25 201.59 374.00 204.66 376.39 C 209.05 379.02 210.71 384.24 211.74 388.95 C 212.49 394.12 211.00 400.18 206.49 403.28 C 202.15 406.75 196.21 406.68 191.00 405.89 C 188.25 405.45 185.97 403.16 183.21 403.18 C 177.58 408.56 172.39 415.18 164.62 417.52 C 155.98 419.52 145.65 418.47 139.34 411.61 C 137.79 410.32 136.51 408.15 134.28 408.12 C 130.43 412.61 127.17 417.94 121.80 420.87 C 111.17 425.28 98.36 424.75 88.65 418.32 C 83.37 414.59 80.79 408.40 78.09 402.76 C 76.07 401.98 73.96 402.68 71.95 403.09 C 68.31 404.00 64.53 403.69 60.82 403.63 C 57.16 403.55 54.01 401.44 50.84 399.85 C 51.16 399.29 51.78 398.18 52.10 397.62 C 47.40 397.96 44.61 393.33 42.49 389.85 C 45.52 391.79 48.34 394.19 51.78 395.39 C 59.85 397.84 69.17 396.18 75.68 390.76 C 80.20 386.42 82.53 380.42 84.92 374.76 C 88.33 380.61 93.04 385.69 98.96 389.07 C 105.48 393.60 114.66 393.43 121.32 389.30 C 128.59 384.78 133.70 377.71 138.27 370.64 Z" />
<path fill="#772005" opacity="1.00" d=" M 221.70 388.13 C 225.58 388.06 229.53 387.70 233.16 386.21 C 236.30 389.47 236.41 394.35 239.10 397.89 C 242.92 402.87 247.79 407.31 253.81 409.41 C 261.06 411.67 268.98 410.66 275.65 407.14 C 277.19 410.14 279.70 412.42 281.70 415.09 C 280.54 420.11 277.62 424.55 276.39 429.57 C 273.06 441.72 269.44 453.80 266.53 466.07 C 264.25 459.75 262.72 453.19 260.29 446.92 C 258.09 441.30 258.58 434.82 255.38 429.59 C 251.79 442.40 244.52 453.65 239.25 465.75 C 238.64 465.40 238.15 464.93 237.79 464.33 C 231.17 454.14 222.73 445.29 215.91 435.24 C 214.71 433.71 214.17 431.21 211.98 430.86 C 210.02 436.72 210.55 443.07 208.93 449.01 C 207.35 454.56 207.71 460.40 206.39 465.99 C 203.89 460.22 201.83 454.28 199.74 448.36 C 195.93 438.58 191.99 428.84 188.05 419.12 C 186.82 416.23 186.03 413.19 185.33 410.15 C 193.86 413.42 204.05 412.92 211.57 407.46 C 216.97 403.32 217.92 396.03 217.43 389.69 C 218.92 389.36 220.42 389.00 221.70 388.13 Z" />
</g>
</svg>
