<?xml version="1.0" encoding="UTF-8" ?>
<!DOCTYPE svg PUBLIC "-//W3C//DTD SVG 1.1//EN" "http://www.w3.org/Graphics/SVG/1.1/DTD/svg11.dtd">
<svg width="452pt" height="479pt" viewBox="0 0 452 479" version="1.1" xmlns="http://www.w3.org/2000/svg">
<g id="#ffffffff">
<path fill="#ffffff" opacity="1.00" d=" M 0.00 0.00 L 452.00 0.00 L 452.00 479.00 L 0.00 479.00 L 0.00 0.00 M 221.65 146.11 C 220.45 146.91 218.99 147.00 217.63 147.29 C 216.07 148.10 214.30 147.99 212.61 148.18 C 211.61 148.60 210.60 148.99 209.58 149.35 C 208.57 149.67 207.54 149.95 206.52 150.20 C 205.49 150.76 204.46 151.34 203.45 151.93 C 202.98 151.98 202.04 152.06 201.57 152.10 C 189.71 158.40 178.72 167.33 172.74 179.59 C 172.24 180.54 171.75 181.50 171.24 182.46 C 171.00 182.98 170.50 184.03 170.25 184.55 C 169.97 185.57 169.66 186.58 169.33 187.58 C 168.99 188.60 168.63 189.61 168.26 190.61 C 168.01 191.98 167.86 193.39 167.20 194.65 C 166.98 196.34 167.18 198.19 166.11 199.65 C 166.02 201.43 166.00 203.21 165.97 205.00 C 160.53 205.07 155.08 204.94 149.63 205.09 C 148.19 206.34 146.26 205.95 144.53 206.10 C 143.56 206.67 142.59 207.25 141.63 207.84 C 140.28 208.37 138.94 208.92 137.52 209.23 C 136.51 209.73 135.51 210.23 134.51 210.73 C 131.19 212.56 128.40 215.15 125.23 217.20 C 122.66 221.52 118.65 224.91 116.77 229.61 C 116.22 230.59 115.66 231.57 115.09 232.54 C 115.03 233.01 114.92 233.93 114.86 234.39 C 114.42 235.38 114.01 236.38 113.63 237.40 C 112.87 239.43 113.29 241.77 112.11 243.66 C 112.23 247.62 111.23 251.86 112.73 255.62 C 113.00 256.98 113.14 258.39 113.82 259.64 C 113.89 260.09 114.04 260.98 114.11 261.43 C 114.40 261.95 114.98 263.00 115.27 263.53 C 115.76 264.51 116.24 265.50 116.73 266.49 C 117.04 267.01 117.65 268.06 117.95 268.58 C 117.98 269.61 118.00 270.65 118.03 271.68 C 117.42 271.93 116.20 272.43 115.59 272.67 C 112.89 273.85 110.56 275.67 108.10 277.26 C 102.63 280.38 99.69 286.29 96.73 291.58 C 95.89 293.25 95.07 294.94 94.11 296.55 C 94.04 297.00 93.89 297.91 93.81 298.36 C 93.12 300.08 92.92 301.96 92.12 303.65 C 92.01 305.89 92.00 308.15 91.96 310.40 C 91.69 310.86 91.14 311.79 90.87 312.25 C 93.16 314.51 91.12 318.04 92.72 320.63 C 93.00 321.98 93.17 323.39 93.81 324.64 C 93.89 325.10 94.03 326.01 94.11 326.47 C 94.67 327.45 95.24 328.44 95.80 329.44 C 96.02 329.95 96.45 330.96 96.67 331.47 C 98.57 334.77 101.15 337.59 103.19 340.79 C 107.45 343.43 110.77 347.47 115.59 349.27 C 117.24 350.10 118.90 350.94 120.54 351.82 C 121.93 351.99 123.39 352.03 124.63 352.81 C 126.32 353.04 128.21 352.74 129.62 353.93 C 132.54 354.05 135.46 354.04 138.38 353.92 C 140.26 352.37 142.78 353.15 144.99 352.98 C 144.99 355.10 144.99 357.22 145.09 359.35 C 146.22 360.79 145.98 362.66 146.18 364.36 C 146.59 365.36 146.98 366.38 147.34 367.41 C 147.66 368.41 147.96 369.43 148.24 370.45 C 148.49 370.98 148.98 372.04 149.22 372.57 C 151.98 377.70 155.78 382.71 161.47 384.72 C 161.99 385.00 163.04 385.55 163.56 385.82 C 164.96 386.00 166.44 386.03 167.67 386.88 C 171.02 387.04 174.38 386.98 177.74 387.00 C 177.97 388.24 178.31 389.45 178.79 390.63 C 178.90 391.06 179.12 391.94 179.23 392.38 C 179.83 394.10 180.15 395.91 180.79 397.63 C 180.89 398.06 181.10 398.94 181.21 399.38 C 181.61 400.39 181.96 401.43 182.26 402.49 C 183.32 404.32 184.18 406.27 184.22 408.43 C 184.62 409.41 185.00 410.40 185.37 411.40 C 186.01 412.98 186.02 414.69 186.21 416.36 C 186.84 417.61 187.01 419.01 187.29 420.37 C 187.84 421.64 188.01 423.03 188.25 424.39 C 188.64 425.39 189.00 426.39 189.36 427.41 C 190.19 429.16 189.97 431.12 190.08 433.01 C 188.89 433.00 187.70 432.98 186.52 432.97 C 185.57 432.11 184.59 431.29 183.50 430.63 C 182.99 430.42 181.96 430.00 181.45 429.80 C 180.46 429.25 179.47 428.71 178.48 428.17 C 177.06 427.99 175.55 428.01 174.35 427.09 C 172.11 426.97 169.87 426.97 167.63 427.09 C 166.46 428.03 164.94 427.97 163.54 428.18 C 162.19 428.93 160.81 429.62 159.40 430.24 C 154.30 433.13 149.71 436.94 147.21 442.40 C 146.75 443.46 146.26 444.52 145.80 445.60 C 145.23 446.57 144.67 447.55 144.10 448.53 C 143.95 450.17 144.21 451.91 143.49 453.46 C 141.01 454.52 138.21 453.85 135.59 454.05 C 135.05 454.36 133.98 454.97 133.45 455.27 C 130.07 456.45 127.98 459.44 126.61 462.59 C 125.79 463.79 126.01 465.23 126.52 466.51 C 128.46 469.10 130.62 471.77 133.56 473.26 C 134.57 473.79 135.57 474.35 136.55 474.95 C 138.91 475.17 141.59 474.35 143.64 475.93 C 147.25 476.47 151.37 474.93 154.62 476.94 C 165.52 477.15 176.44 476.82 187.35 477.07 C 188.42 477.91 189.64 478.29 191.01 478.20 C 220.67 478.08 250.34 478.08 280.00 478.17 C 281.37 478.30 282.59 477.93 283.65 477.06 C 295.89 476.81 308.13 477.15 320.38 476.93 C 322.38 475.38 325.02 476.16 327.35 475.89 C 328.55 474.99 330.06 475.01 331.47 474.83 C 332.46 474.30 333.47 473.78 334.49 473.29 C 336.71 472.21 338.23 470.21 340.00 468.56 C 340.00 467.21 339.99 465.86 339.98 464.52 C 338.87 462.79 337.65 461.13 336.66 459.33 C 334.91 458.40 333.36 457.13 331.60 456.23 C 330.18 455.63 328.81 454.94 327.48 454.18 C 326.07 453.98 324.56 454.02 323.36 453.11 C 322.23 453.04 321.11 452.99 319.99 452.96 C 319.56 448.80 320.98 444.24 319.16 440.36 C 319.10 439.91 318.96 439.00 318.89 438.55 C 318.06 437.23 317.37 435.83 316.76 434.40 C 315.45 431.18 312.48 429.22 310.24 426.71 C 308.94 425.23 307.39 424.01 305.58 423.24 C 304.15 422.62 302.76 421.92 301.44 421.11 C 300.99 421.04 300.08 420.90 299.63 420.84 C 296.28 419.11 292.26 420.27 288.64 420.10 C 287.64 420.59 286.60 420.97 285.52 421.26 C 284.16 421.94 282.79 422.63 281.41 423.29 C 280.92 423.53 279.96 424.01 279.47 424.25 C 278.49 424.75 277.50 425.24 276.52 425.74 C 276.00 426.04 274.95 426.65 274.43 426.95 C 273.28 426.97 272.12 426.99 270.98 427.01 C 270.99 425.55 271.02 424.09 271.07 422.63 C 271.80 421.30 272.20 419.83 272.73 418.42 C 273.01 417.41 273.34 416.41 273.70 415.43 C 274.00 414.41 274.32 413.40 274.67 412.40 C 275.02 411.37 275.41 410.37 275.83 409.38 C 275.90 408.92 276.03 408.00 276.09 407.53 C 276.67 406.53 277.23 405.52 277.79 404.51 C 278.04 403.45 278.36 402.43 278.75 401.42 C 278.83 399.26 279.66 397.28 280.79 395.47 C 280.42 392.11 284.33 390.73 286.62 392.95 C 287.53 392.95 288.45 392.95 289.37 392.94 C 291.36 391.35 294.01 392.16 296.33 391.87 C 297.55 391.02 299.05 391.01 300.46 390.82 C 301.46 390.29 302.46 389.77 303.48 389.27 C 309.81 386.39 313.38 380.32 316.77 374.60 C 317.37 373.19 318.05 371.82 318.75 370.47 C 319.03 369.41 319.38 368.38 319.80 367.38 C 319.89 366.94 320.09 366.07 320.18 365.64 C 321.95 361.68 320.58 357.08 321.00 352.87 C 322.58 353.01 324.30 352.85 325.65 353.90 C 330.08 354.06 334.51 353.93 338.94 354.03 C 340.54 353.99 342.27 354.22 343.64 353.15 C 344.10 353.09 345.00 352.96 345.45 352.90 C 347.12 351.90 348.88 351.06 350.56 350.07 C 351.05 350.04 352.02 349.97 352.51 349.94 C 357.86 345.97 363.02 341.40 366.28 335.48 C 366.95 334.09 367.66 332.72 368.42 331.38 C 369.11 329.40 368.75 327.15 369.89 325.33 C 370.04 321.11 370.03 316.88 369.90 312.66 C 368.73 310.84 369.11 308.59 368.43 306.62 C 367.67 305.28 366.95 303.93 366.24 302.57 C 364.41 297.13 359.07 294.19 354.57 291.27 C 354.03 290.98 352.96 290.40 352.42 290.11 C 351.97 290.05 351.07 289.94 350.62 289.88 C 349.91 289.56 348.50 288.92 347.79 288.60 C 348.07 286.35 349.30 284.42 350.25 282.41 C 350.76 281.44 351.27 280.46 351.79 279.49 C 352.04 278.46 352.33 277.43 352.65 276.42 C 353.01 275.39 353.41 274.37 353.84 273.37 C 353.94 272.46 354.05 271.56 354.17 270.66 C 355.36 268.72 354.56 266.22 355.91 264.36 C 356.05 261.46 356.05 258.55 355.90 255.65 C 354.79 254.20 355.02 252.35 354.80 250.66 C 353.86 249.14 354.01 247.32 353.80 245.63 C 353.38 244.62 353.03 243.58 352.76 242.52 C 351.93 240.86 351.11 239.21 350.25 237.58 C 349.61 236.22 348.95 234.88 348.31 233.53 C 347.20 230.84 344.30 229.60 343.03 227.04 C 342.02 224.41 338.93 223.93 337.31 221.85 C 336.24 220.56 335.01 219.39 333.45 218.73 C 331.36 217.80 329.63 216.27 327.61 215.23 C 326.16 214.64 324.77 213.95 323.46 213.10 C 323.01 213.03 322.09 212.89 321.63 212.82 C 320.40 212.13 318.98 212.00 317.63 211.74 C 315.08 210.18 311.77 211.95 309.35 210.09 C 307.45 210.01 305.55 210.01 303.65 210.10 C 302.45 210.92 300.99 211.00 299.62 211.29 C 297.88 212.26 295.84 211.95 293.94 212.08 C 293.99 210.94 294.04 209.79 294.11 208.66 C 296.28 205.59 293.68 201.38 295.92 198.34 C 295.93 197.44 295.93 196.55 295.93 195.66 C 294.53 193.95 295.09 191.67 294.84 189.66 C 294.10 188.42 293.99 186.99 293.74 185.61 C 293.37 184.61 293.03 183.59 292.71 182.57 C 292.22 181.25 291.82 179.91 291.32 178.60 C 290.29 176.62 289.11 174.66 288.78 172.42 C 286.16 169.26 284.49 165.35 281.25 162.70 C 276.86 159.33 272.41 155.98 267.59 153.24 C 267.06 152.99 265.99 152.49 265.46 152.24 C 264.48 151.98 263.52 151.70 262.56 151.39 C 262.04 151.10 261.02 150.50 260.50 150.21 C 258.99 150.04 257.66 149.33 256.35 148.61 C 254.41 147.83 252.17 148.25 250.34 147.16 C 248.32 146.92 246.09 147.41 244.35 146.10 C 236.78 146.03 229.22 146.00 221.65 146.11 M 362.56 173.71 C 357.07 175.94 353.12 180.37 349.00 184.41 C 349.00 184.93 348.98 185.97 348.97 186.49 C 348.32 187.50 347.67 188.52 347.02 189.53 C 347.01 191.87 347.02 194.22 346.99 196.56 C 348.60 198.37 350.53 199.83 352.62 201.04 C 353.66 199.41 355.78 200.16 357.37 199.80 C 358.37 199.38 359.41 199.03 360.47 198.74 C 361.83 198.05 363.20 197.37 364.60 196.75 C 368.80 195.20 370.61 190.93 372.93 187.48 C 372.98 187.02 373.09 186.10 373.14 185.64 C 374.29 184.39 374.18 182.69 373.24 181.38 C 373.00 180.08 372.78 178.78 372.48 177.50 C 371.08 175.36 369.14 173.69 367.46 171.81 C 365.70 172.10 364.10 172.89 362.56 173.71 M 95.36 369.84 C 94.93 369.94 94.07 370.13 93.65 370.23 C 92.62 370.61 91.58 370.95 90.52 371.24 C 89.55 371.74 88.57 372.24 87.60 372.75 C 83.50 373.76 81.48 377.42 79.08 380.46 C 79.02 380.94 78.90 381.89 78.84 382.37 C 77.96 383.54 78.04 385.00 77.96 386.38 C 78.59 387.38 79.19 388.40 79.74 389.46 C 81.51 392.32 84.66 396.71 88.47 395.45 C 92.70 392.41 97.15 389.61 100.74 385.81 C 103.48 384.41 105.61 382.21 106.97 379.45 C 106.97 377.81 106.98 376.18 106.98 374.55 C 106.08 372.95 105.03 371.44 103.70 370.18 C 102.50 370.05 101.38 369.67 100.35 369.05 C 98.65 369.04 96.80 368.67 95.36 369.84 Z" />
</g>
<g id="#3a1002ff">
<path fill="#3a1002" opacity="1.00" d=" M 221.65 146.11 C 229.22 146.00 236.78 146.03 244.35 146.10 C 246.09 147.41 248.32 146.92 250.34 147.16 C 252.17 148.25 254.41 147.83 256.35 148.61 C 257.66 149.33 258.99 150.04 260.50 150.21 C 261.02 150.50 262.04 151.10 262.56 151.39 C 263.52 151.70 264.48 151.98 265.46 152.24 C 265.99 152.49 267.06 152.99 267.59 153.24 C 272.41 155.98 276.86 159.33 281.25 162.70 C 284.49 165.35 286.16 169.26 288.78 172.42 C 289.11 174.66 290.29 176.62 291.32 178.60 C 291.82 179.91 292.22 181.25 292.71 182.57 C 293.03 183.59 293.37 184.61 293.74 185.61 C 293.99 186.99 294.10 188.42 294.84 189.66 C 295.09 191.67 294.53 193.95 295.93 195.66 C 295.93 196.55 295.93 197.44 295.92 198.34 C 293.68 201.38 296.28 205.59 294.11 208.66 C 294.04 209.79 293.99 210.94 293.94 212.08 C 295.84 211.95 297.88 212.26 299.62 211.29 C 300.99 211.00 302.45 210.92 303.65 210.10 C 305.55 210.01 307.45 210.01 309.35 210.09 C 311.77 211.95 315.08 210.18 317.63 211.74 C 318.98 212.00 320.40 212.13 321.63 212.82 C 322.09 212.89 323.01 213.03 323.46 213.10 C 324.77 213.95 326.16 214.64 327.61 215.23 C 329.63 216.27 331.36 217.80 333.45 218.73 C 335.01 219.39 336.24 220.56 337.31 221.85 C 338.93 223.93 342.02 224.41 343.03 227.04 C 344.30 229.60 347.20 230.84 348.31 233.53 C 348.95 234.88 349.61 236.22 350.25 237.58 C 351.11 239.21 351.93 240.86 352.76 242.52 C 353.03 243.58 353.38 244.62 353.80 245.63 C 354.01 247.32 353.86 249.14 354.80 250.66 C 355.02 252.35 354.79 254.20 355.90 255.65 C 356.05 258.55 356.05 261.46 355.91 264.36 C 354.56 266.22 355.36 268.72 354.17 270.66 C 354.05 271.56 353.94 272.46 353.84 273.37 C 353.41 274.37 353.01 275.39 352.65 276.42 C 352.33 277.43 352.04 278.46 351.79 279.49 C 351.27 280.46 350.76 281.44 350.25 282.41 C 349.30 284.42 348.07 286.35 347.79 288.60 C 348.50 288.92 349.91 289.56 350.62 289.88 C 351.07 289.94 351.97 290.05 352.42 290.11 C 352.96 290.40 354.03 290.98 354.57 291.27 C 359.07 294.19 364.41 297.13 366.24 302.57 C 366.95 303.93 367.67 305.28 368.43 306.62 C 369.11 308.59 368.73 310.84 369.90 312.66 C 370.03 316.88 370.04 321.11 369.89 325.33 C 368.75 327.15 369.11 329.40 368.42 331.38 C 367.66 332.72 366.95 334.09 366.28 335.48 C 363.02 341.40 357.86 345.97 352.51 349.94 C 352.02 349.97 351.05 350.04 350.56 350.07 C 348.88 351.06 347.12 351.90 345.45 352.90 C 345.00 352.96 344.10 353.09 343.64 353.15 C 342.27 354.22 340.54 353.99 338.94 354.03 C 334.51 353.93 330.08 354.06 325.65 353.90 C 324.30 352.85 322.58 353.01 321.00 352.87 C 320.58 357.08 321.95 361.68 320.18 365.64 C 320.09 366.07 319.89 366.94 319.80 367.38 C 319.38 368.38 319.03 369.41 318.75 370.47 C 318.05 371.82 317.37 373.19 316.77 374.60 C 313.38 380.32 309.81 386.39 303.48 389.27 C 302.46 389.77 301.46 390.29 300.46 390.82 C 299.05 391.01 297.55 391.02 296.33 391.87 C 294.01 392.16 291.36 391.35 289.37 392.94 C 288.45 392.95 287.53 392.95 286.62 392.95 C 284.33 390.73 280.42 392.11 280.79 395.47 C 279.66 397.28 278.83 399.26 278.75 401.42 C 278.36 402.43 278.04 403.45 277.79 404.51 C 277.23 405.52 276.67 406.53 276.09 407.53 C 276.03 408.00 275.90 408.92 275.83 409.38 C 275.41 410.37 275.02 411.37 274.67 412.40 C 274.32 413.40 274.00 414.41 273.70 415.43 C 273.34 416.41 273.01 417.41 272.73 418.42 C 272.20 419.83 271.80 421.30 271.07 422.63 C 271.02 424.09 270.99 425.55 270.98 427.01 C 272.12 426.99 273.28 426.97 274.43 426.95 C 274.95 426.65 276.00 426.04 276.52 425.74 C 277.50 425.24 278.49 424.75 279.47 424.25 C 279.96 424.01 280.92 423.53 281.41 423.29 C 282.79 422.63 284.16 421.94 285.52 421.26 C 286.60 420.97 287.64 420.59 288.64 420.10 C 292.26 420.27 296.28 419.11 299.63 420.84 C 300.08 420.90 300.99 421.04 301.44 421.11 C 302.76 421.92 304.15 422.62 305.58 423.24 C 307.39 424.01 308.94 425.23 310.24 426.71 C 312.48 429.22 315.45 431.18 316.76 434.40 C 317.37 435.83 318.06 437.23 318.89 438.55 C 318.96 439.00 319.10 439.91 319.16 440.36 C 320.98 444.24 319.56 448.80 319.99 452.96 C 321.11 452.99 322.23 453.04 323.36 453.11 C 324.56 454.02 326.07 453.98 327.48 454.18 C 328.81 454.94 330.18 455.63 331.60 456.23 C 333.36 457.13 334.91 458.40 336.66 459.33 C 337.65 461.13 338.87 462.79 339.98 464.52 C 339.99 465.86 340.00 467.21 340.00 468.56 C 338.23 470.21 336.71 472.21 334.49 473.29 C 333.47 473.78 332.46 474.30 331.47 474.83 C 330.06 475.01 328.55 474.99 327.35 475.89 C 325.02 476.16 322.38 475.38 320.38 476.93 C 308.13 477.15 295.89 476.81 283.65 477.06 C 282.59 477.93 281.37 478.30 280.00 478.17 C 250.34 478.08 220.67 478.08 191.01 478.20 C 189.64 478.29 188.42 477.91 187.35 477.07 C 176.44 476.82 165.52 477.15 154.62 476.94 C 151.37 474.93 147.25 476.47 143.64 475.93 C 141.59 474.35 138.91 475.17 136.55 474.95 C 135.57 474.35 134.57 473.79 133.56 473.26 C 130.62 471.77 128.46 469.10 126.52 466.51 C 126.01 465.23 125.79 463.79 126.61 462.59 C 127.98 459.44 130.07 456.45 133.45 455.27 C 133.98 454.97 135.05 454.36 135.59 454.05 C 138.21 453.85 141.01 454.52 143.49 453.46 C 144.21 451.91 143.95 450.17 144.10 448.53 C 144.67 447.55 145.23 446.57 145.80 445.60 C 146.26 444.52 146.75 443.46 147.21 442.40 C 149.71 436.94 154.30 433.13 159.40 430.24 C 160.81 429.62 162.19 428.93 163.54 428.18 C 164.94 427.97 166.46 428.03 167.63 427.09 C 169.87 426.97 172.11 426.97 174.35 427.09 C 175.55 428.01 177.06 427.99 178.48 428.17 C 179.47 428.71 180.46 429.25 181.45 429.80 C 181.96 430.00 182.99 430.42 183.50 430.63 C 184.59 431.29 185.57 432.11 186.52 432.97 C 187.70 432.98 188.89 433.00 190.08 433.01 C 189.97 431.12 190.19 429.16 189.36 427.41 C 189.00 426.39 188.64 425.39 188.25 424.39 C 188.01 423.03 187.84 421.64 187.29 420.37 C 187.01 419.01 186.84 417.61 186.21 416.36 C 186.02 414.69 186.01 412.98 185.37 411.40 C 185.00 410.40 184.62 409.41 184.22 408.43 C 184.18 406.27 183.32 404.32 182.26 402.49 C 181.96 401.43 181.61 400.39 181.21 399.38 C 181.10 398.94 180.89 398.06 180.79 397.63 C 180.15 395.91 179.83 394.10 179.23 392.38 C 179.12 391.94 178.90 391.06 178.79 390.63 C 178.31 389.45 177.97 388.24 177.74 387.00 C 174.38 386.98 171.02 387.04 167.67 386.88 C 166.44 386.03 164.96 386.00 163.56 385.82 C 163.04 385.55 161.99 385.00 161.47 384.72 C 155.78 382.71 151.98 377.70 149.22 372.57 C 148.98 372.04 148.49 370.98 148.24 370.45 C 147.96 369.43 147.66 368.41 147.34 367.41 C 146.98 366.38 146.59 365.36 146.18 364.36 C 145.98 362.66 146.22 360.79 145.09 359.35 C 144.99 357.22 144.99 355.10 144.99 352.98 C 142.78 353.15 140.26 352.37 138.38 353.92 C 135.46 354.04 132.54 354.05 129.62 353.93 C 128.21 352.74 126.32 353.04 124.63 352.81 C 123.39 352.03 121.93 351.99 120.54 351.82 C 118.90 350.94 117.24 350.10 115.59 349.27 C 110.77 347.47 107.45 343.43 103.19 340.79 C 101.15 337.59 98.57 334.77 96.67 331.47 C 96.45 330.96 96.02 329.95 95.80 329.44 C 95.24 328.44 94.67 327.45 94.11 326.47 C 94.03 326.01 93.89 325.10 93.81 324.64 C 93.17 323.39 93.00 321.98 92.72 320.63 C 91.12 318.04 93.16 314.51 90.87 312.25 C 91.14 311.79 91.69 310.86 91.96 310.40 C 92.00 308.15 92.01 305.89 92.12 303.65 C 92.92 301.96 93.12 300.08 93.81 298.36 C 93.89 297.91 94.04 297.00 94.11 296.55 C 95.07 294.94 95.89 293.25 96.73 291.58 C 99.69 286.29 102.63 280.38 108.10 277.26 C 110.56 275.67 112.89 273.85 115.59 272.67 C 116.20 272.43 117.42 271.93 118.03 271.68 C 118.00 270.65 117.98 269.61 117.95 268.58 C 117.65 268.06 117.04 267.01 116.73 266.49 C 116.24 265.50 115.76 264.51 115.27 263.53 C 114.98 263.00 114.40 261.95 114.11 261.43 C 114.04 260.98 113.89 260.09 113.82 259.64 C 113.14 258.39 113.00 256.98 112.73 255.62 C 111.23 251.86 112.23 247.62 112.11 243.66 C 113.29 241.77 112.87 239.43 113.63 237.40 C 114.01 236.38 114.42 235.38 114.86 234.39 C 114.92 233.93 115.03 233.01 115.09 232.54 C 115.66 231.57 116.22 230.59 116.77 229.61 C 118.65 224.91 122.66 221.52 125.23 217.20 C 128.40 215.15 131.19 212.56 134.51 210.73 C 135.51 210.23 136.51 209.73 137.52 209.23 C 138.94 208.92 140.28 208.37 141.63 207.84 C 142.59 207.25 143.56 206.67 144.53 206.10 C 146.26 205.95 148.19 206.34 149.63 205.09 C 155.08 204.94 160.53 205.07 165.97 205.00 C 166.00 203.21 166.02 201.43 166.11 199.65 C 167.18 198.19 166.98 196.34 167.20 194.65 C 167.86 193.39 168.01 191.98 168.26 190.61 C 168.63 189.61 168.99 188.60 169.33 187.58 C 169.66 186.58 169.97 185.57 170.25 184.55 C 170.50 184.03 171.00 182.98 171.24 182.46 C 171.75 181.50 172.24 180.54 172.74 179.59 C 178.72 167.33 189.71 158.40 201.57 152.10 C 202.04 152.06 202.98 151.98 203.45 151.93 C 204.46 151.34 205.49 150.76 206.52 150.20 C 207.54 149.95 208.57 149.67 209.58 149.35 C 210.60 148.99 211.61 148.60 212.61 148.18 C 214.30 147.99 216.07 148.10 217.63 147.29 C 218.99 147.00 220.45 146.91 221.65 146.11 M 220.89 151.65 C 208.69 153.25 197.14 158.79 188.05 167.04 C 179.57 174.61 174.13 185.14 171.40 196.07 C 169.80 201.75 171.35 207.53 172.93 213.01 C 169.98 211.83 167.08 210.38 163.90 209.93 C 153.63 208.79 142.65 210.17 133.94 216.09 C 122.27 223.32 115.70 237.40 116.48 250.94 C 116.90 259.62 121.00 267.65 126.47 274.24 C 113.18 274.84 103.09 285.90 98.49 297.58 C 96.26 304.75 94.61 312.62 96.85 320.01 C 100.03 332.41 109.74 342.49 121.37 347.45 C 127.42 349.36 134.00 349.35 140.24 348.48 C 143.94 348.07 147.07 345.40 150.78 345.34 C 151.90 347.07 150.79 349.12 150.52 350.95 C 148.41 358.32 149.95 366.47 154.05 372.88 C 155.96 375.88 158.27 378.89 161.63 380.34 C 169.95 383.78 180.21 384.56 187.92 379.20 C 189.39 378.55 190.82 376.61 192.53 377.19 C 194.51 381.00 195.34 385.42 198.24 388.74 C 206.82 400.09 222.54 403.64 236.02 401.33 C 245.96 399.81 254.74 393.30 259.65 384.60 C 261.14 381.93 261.79 378.89 263.12 376.14 C 265.27 375.84 266.28 378.11 267.67 379.32 C 276.25 389.02 291.53 390.17 302.69 384.62 C 309.45 381.33 312.97 374.26 315.52 367.57 C 317.99 360.38 316.36 352.69 314.84 345.49 C 318.03 346.19 320.88 347.87 323.99 348.81 C 334.45 351.52 346.35 349.70 354.87 342.81 C 360.92 338.26 364.45 331.15 365.84 323.83 C 367.33 317.45 365.18 310.99 362.93 305.08 C 359.19 296.43 349.18 293.48 340.65 292.13 C 341.81 290.08 343.02 288.06 344.28 286.07 C 350.43 275.99 353.00 263.73 350.92 252.06 C 348.71 242.17 343.96 232.52 335.83 226.18 C 326.58 217.52 313.38 213.96 300.93 215.17 C 295.92 215.71 291.65 218.60 286.98 220.24 C 288.25 214.18 290.51 208.27 290.66 202.02 C 290.96 193.30 289.26 184.45 285.56 176.54 C 282.18 169.26 275.69 164.12 269.06 159.94 C 254.66 151.37 237.26 149.56 220.89 151.65 M 266.19 385.10 C 264.07 387.72 262.69 390.86 260.44 393.39 C 253.69 400.90 244.36 406.32 234.21 407.34 C 224.04 408.43 213.14 407.16 204.38 401.52 C 197.81 397.59 193.08 391.45 188.18 385.73 C 186.19 386.47 184.20 387.24 182.22 388.02 C 185.80 401.60 190.20 414.97 193.32 428.67 C 194.88 435.29 197.58 441.56 199.46 448.09 C 202.23 441.49 206.84 435.90 211.90 430.93 C 218.75 425.16 228.02 421.23 237.07 423.07 C 244.10 424.56 249.30 430.05 253.30 435.67 C 256.19 439.76 257.42 444.67 259.37 449.22 C 261.23 440.89 264.99 433.16 266.87 424.85 C 269.60 414.11 273.88 403.86 277.41 393.38 C 278.28 391.41 275.54 391.20 274.40 390.46 C 271.27 389.32 269.01 386.76 266.19 385.10 M 275.41 431.49 C 268.79 435.64 265.30 443.35 264.98 450.99 C 264.93 454.52 264.29 458.53 266.59 461.55 C 272.07 456.62 279.79 454.10 287.01 456.34 C 294.09 457.76 297.49 464.81 300.32 470.71 C 310.87 470.43 321.56 471.98 332.02 470.02 C 336.18 469.97 335.92 463.66 333.22 461.80 C 327.78 457.30 320.38 459.25 313.95 458.96 C 316.02 453.22 317.37 446.78 315.25 440.85 C 313.65 435.92 309.35 432.70 305.79 429.21 C 302.43 425.88 297.51 424.95 292.96 424.75 C 286.47 424.60 280.77 428.27 275.41 431.49 M 158.00 437.06 C 150.92 441.42 147.91 450.02 147.71 457.99 C 147.56 460.66 144.53 459.29 142.88 459.21 C 140.10 458.45 137.10 458.93 135.01 461.00 C 132.23 463.00 132.47 467.73 135.30 469.57 C 137.56 471.05 140.40 470.88 142.99 471.07 C 149.63 471.14 156.27 471.20 162.90 470.89 C 164.14 467.71 164.00 464.22 165.01 461.01 C 168.03 454.75 175.28 451.87 181.85 451.47 C 188.15 451.39 192.91 455.71 197.60 459.26 C 197.44 455.97 198.65 452.31 196.70 449.35 C 192.35 442.18 185.99 435.66 177.69 433.38 C 170.96 431.49 163.89 433.77 158.00 437.06 Z" />
<path fill="#3a1002" opacity="1.00" d=" M 362.56 173.71 C 364.10 172.89 365.70 172.10 367.46 171.81 C 369.14 173.69 371.08 175.36 372.48 177.50 C 372.78 178.78 373.00 180.08 373.24 181.38 C 374.18 182.69 374.29 184.39 373.14 185.64 C 373.09 186.10 372.98 187.02 372.93 187.48 C 370.61 190.93 368.80 195.20 364.60 196.75 C 363.20 197.37 361.83 198.05 360.47 198.74 C 359.41 199.03 358.37 199.38 357.37 199.80 C 355.78 200.16 353.66 199.41 352.62 201.04 C 350.53 199.83 348.60 198.37 346.99 196.56 C 347.02 194.22 347.01 191.87 347.02 189.53 C 347.67 188.52 348.32 187.50 348.97 186.49 C 348.98 185.97 349.00 184.93 349.00 184.41 C 353.12 180.37 357.07 175.94 362.56 173.71 M 354.69 184.70 C 352.21 187.96 350.16 192.30 351.52 196.44 C 357.39 196.10 363.38 193.67 366.92 188.82 C 369.42 185.49 369.37 180.80 367.40 177.24 C 362.64 178.63 357.98 180.88 354.69 184.70 Z" />
<path fill="#3a1002" opacity="1.00" d=" M 95.36 369.84 C 96.80 368.67 98.65 369.04 100.35 369.05 C 101.38 369.67 102.50 370.05 103.70 370.18 C 105.03 371.44 106.08 372.95 106.98 374.55 C 106.98 376.18 106.97 377.81 106.97 379.45 C 105.61 382.21 103.48 384.41 100.74 385.81 C 97.15 389.61 92.70 392.41 88.47 395.45 C 84.66 396.71 81.51 392.32 79.74 389.46 C 79.19 388.40 78.59 387.38 77.96 386.38 C 78.04 385.00 77.96 383.54 78.84 382.37 C 78.90 381.89 79.02 380.94 79.08 380.46 C 81.48 377.42 83.50 373.76 87.60 372.75 C 88.57 372.24 89.55 371.74 90.52 371.24 C 91.58 370.95 92.62 370.61 93.65 370.23 C 94.07 370.13 94.93 369.94 95.36 369.84 M 96.29 374.38 C 92.09 375.10 87.32 375.83 84.54 379.44 C 81.86 382.25 81.80 386.82 84.07 389.90 C 84.82 390.85 85.98 392.39 87.34 391.47 C 92.08 389.02 95.22 384.48 99.47 381.36 C 101.55 379.78 104.63 377.46 102.54 374.60 C 100.61 373.62 98.35 374.20 96.29 374.38 Z" />
</g>
<g id="#c16e0dff">
<path fill="#c16e0d" opacity="1.00" d=" M 220.89 151.65 C 237.26 149.56 254.66 151.37 269.06 159.94 C 275.69 164.12 282.18 169.26 285.56 176.54 C 289.26 184.45 290.96 193.30 290.66 202.02 C 290.51 208.27 288.25 214.18 286.98 220.24 C 291.65 218.60 295.92 215.71 300.93 215.17 C 313.38 213.96 326.58 217.52 335.83 226.18 C 343.96 232.52 348.71 242.17 350.92 252.06 C 353.00 263.73 350.43 275.99 344.28 286.07 C 343.02 288.06 341.81 290.08 340.65 292.13 C 349.18 293.48 359.19 296.43 362.93 305.08 C 365.18 310.99 367.33 317.45 365.84 323.83 C 364.45 331.15 360.92 338.26 354.87 342.81 C 346.35 349.70 334.45 351.52 323.99 348.81 C 320.88 347.87 318.03 346.19 314.84 345.49 C 316.36 352.69 317.99 360.38 315.52 367.57 C 312.97 374.26 309.45 381.33 302.69 384.62 C 291.53 390.17 276.25 389.02 267.67 379.32 C 266.28 378.11 265.27 375.84 263.12 376.14 C 261.79 378.89 261.14 381.93 259.65 384.60 C 254.74 393.30 245.96 399.81 236.02 401.33 C 222.54 403.64 206.82 400.09 198.24 388.74 C 195.34 385.42 194.51 381.00 192.53 377.19 C 190.82 376.61 189.39 378.55 187.92 379.20 C 180.21 384.56 169.95 383.78 161.63 380.34 C 158.27 378.89 155.96 375.88 154.05 372.88 C 149.95 366.47 148.41 358.32 150.52 350.95 C 150.79 349.12 151.90 347.07 150.78 345.34 C 147.07 345.40 143.94 348.07 140.24 348.48 C 134.00 349.35 127.42 349.36 121.37 347.45 C 109.74 342.49 100.03 332.41 96.85 320.01 C 94.61 312.62 96.26 304.75 98.49 297.58 C 103.09 285.90 113.18 274.84 126.47 274.24 C 121.00 267.65 116.90 259.62 116.48 250.94 C 115.70 237.40 122.27 223.32 133.94 216.09 C 142.65 210.17 153.63 208.79 163.90 209.93 C 167.08 210.38 169.98 211.83 172.93 213.01 C 171.35 207.53 169.80 201.75 171.40 196.07 C 174.13 185.14 179.57 174.61 188.05 167.04 C 197.14 158.79 208.69 153.25 220.89 151.65 M 200.56 236.57 C 194.65 245.00 191.54 255.87 193.85 266.08 C 186.22 263.71 177.61 264.24 170.91 268.86 C 165.25 272.01 162.94 278.46 161.42 284.37 C 160.10 290.70 162.87 297.08 166.39 302.22 C 157.43 303.80 150.13 312.79 151.63 321.98 C 151.80 328.92 157.59 334.30 163.87 336.28 C 170.75 338.30 178.31 337.73 184.87 334.84 C 183.45 343.50 185.71 352.79 191.73 359.30 C 196.32 363.75 202.57 366.52 209.02 366.42 C 216.78 367.10 224.13 362.90 229.21 357.33 C 232.17 354.26 233.68 350.21 236.07 346.75 C 238.54 348.67 239.95 351.63 242.44 353.55 C 247.56 357.84 254.44 359.21 260.97 359.10 C 271.13 359.77 281.71 355.01 287.50 346.54 C 290.37 342.46 292.10 337.66 293.35 332.87 C 294.37 325.72 295.57 317.70 291.43 311.26 C 296.68 308.99 302.14 306.31 305.47 301.45 C 311.26 293.66 312.88 283.22 310.46 273.90 C 308.90 267.88 304.65 262.99 299.98 259.07 C 291.94 252.61 280.39 252.23 271.15 256.20 C 271.11 242.84 263.45 229.43 251.07 223.88 C 234.10 215.57 211.48 221.04 200.56 236.57 Z" />
</g>
<g id="#a13207ff">
<path fill="#a13207" opacity="1.00" d=" M 354.69 184.70 C 357.98 180.88 362.64 178.63 367.40 177.24 C 369.37 180.80 369.42 185.49 366.92 188.82 C 363.38 193.67 357.39 196.10 351.52 196.44 C 350.16 192.30 352.21 187.96 354.69 184.70 Z" />
<path fill="#a13207" opacity="1.00" d=" M 96.29 374.38 C 98.35 374.20 100.61 373.62 102.54 374.60 C 104.63 377.46 101.55 379.78 99.47 381.36 C 95.22 384.48 92.08 389.02 87.34 391.47 C 85.98 392.39 84.82 390.85 84.07 389.90 C 81.80 386.82 81.86 382.25 84.54 379.44 C 87.32 375.83 92.09 375.10 96.29 374.38 Z" />
</g>
<g id="#ddbb17ff">
<path fill="#ddbb17" opacity="1.00" d=" M 200.56 236.57 C 211.48 221.04 234.10 215.57 251.07 223.88 C 263.45 229.43 271.11 242.84 271.15 256.20 C 280.39 252.23 291.94 252.61 299.98 259.07 C 304.65 262.99 308.90 267.88 310.46 273.90 C 312.88 283.22 311.26 293.66 305.47 301.45 C 302.14 306.31 296.68 308.99 291.43 311.26 C 295.57 317.70 294.37 325.72 293.35 332.87 C 292.10 337.66 290.37 342.46 287.50 346.54 C 281.71 355.01 271.13 359.77 260.97 359.10 C 254.44 359.21 247.56 357.84 242.44 353.55 C 239.95 351.63 238.54 348.67 236.07 346.75 C 233.68 350.21 232.17 354.26 229.21 357.33 C 224.13 362.90 216.78 367.10 209.02 366.42 C 202.57 366.52 196.32 363.75 191.73 359.30 C 185.71 352.79 183.45 343.50 184.87 334.84 C 178.31 337.73 170.75 338.30 163.87 336.28 C 157.59 334.30 151.80 328.92 151.63 321.98 C 150.13 312.79 157.43 303.80 166.39 302.22 C 162.87 297.08 160.10 290.70 161.42 284.37 C 162.94 278.46 165.25 272.01 170.91 268.86 C 177.61 264.24 186.22 263.71 193.85 266.08 C 191.54 255.87 194.65 245.00 200.56 236.57 Z" />
</g>
<g id="#782105ff">
<path fill="#782105" opacity="1.00" d=" M 266.19 385.10 C 269.01 386.76 271.27 389.32 274.40 390.46 C 275.54 391.20 278.28 391.41 277.41 393.38 C 273.88 403.86 269.60 414.11 266.87 424.85 C 264.99 433.16 261.23 440.89 259.37 449.22 C 257.42 444.67 256.19 439.76 253.30 435.67 C 249.30 430.05 244.10 424.56 237.07 423.07 C 228.02 421.23 218.75 425.16 211.90 430.93 C 206.84 435.90 202.23 441.49 199.46 448.09 C 197.58 441.56 194.88 435.29 193.32 428.67 C 190.20 414.97 185.80 401.60 182.22 388.02 C 184.20 387.24 186.19 386.47 188.18 385.73 C 193.08 391.45 197.81 397.59 204.38 401.52 C 213.14 407.16 224.04 408.43 234.21 407.34 C 244.36 406.32 253.69 400.90 260.44 393.39 C 262.69 390.86 264.07 387.72 266.19 385.10 Z" />
</g>
<g id="#591804ff">
<path fill="#591804" opacity="1.00" d=" M 275.41 431.49 C 280.77 428.27 286.47 424.60 292.96 424.75 C 297.51 424.95 302.43 425.88 305.79 429.21 C 309.35 432.70 313.65 435.92 315.25 440.85 C 317.37 446.78 316.02 453.22 313.95 458.96 C 320.38 459.25 327.78 457.30 333.22 461.80 C 335.92 463.66 336.18 469.97 332.02 470.02 C 321.56 471.98 310.87 470.43 300.32 470.71 C 297.49 464.81 294.09 457.76 287.01 456.34 C 279.79 454.10 272.07 456.62 266.59 461.55 C 264.29 458.53 264.93 454.52 264.98 450.99 C 265.30 443.35 268.79 435.64 275.41 431.49 Z" />
<path fill="#591804" opacity="1.00" d=" M 158.00 437.06 C 163.89 433.77 170.96 431.49 177.69 433.38 C 185.99 435.66 192.35 442.18 196.70 449.35 C 198.65 452.31 197.44 455.97 197.60 459.26 C 192.91 455.71 188.15 451.39 181.85 451.47 C 175.28 451.87 168.03 454.75 165.01 461.01 C 164.00 464.22 164.14 467.71 162.90 470.89 C 156.27 471.20 149.63 471.14 142.99 471.07 C 140.40 470.88 137.56 471.05 135.30 469.57 C 132.47 467.73 132.23 463.00 135.01 461.00 C 137.10 458.93 140.10 458.45 142.88 459.21 C 144.53 459.29 147.56 460.66 147.71 457.99 C 147.91 450.02 150.92 441.42 158.00 437.06 Z" />
</g>
</svg>
