<?xml version="1.0" encoding="UTF-8" ?>
<!DOCTYPE svg PUBLIC "-//W3C//DTD SVG 1.1//EN" "http://www.w3.org/Graphics/SVG/1.1/DTD/svg11.dtd">
<svg width="452pt" height="479pt" viewBox="0 0 452 479" version="1.1" xmlns="http://www.w3.org/2000/svg">
<g id="#3b1002ff">
<path fill="#3b1002" opacity="1.00" d=" M 198.47 94.83 C 200.03 93.55 202.11 94.09 203.95 93.97 C 208.97 94.10 213.99 93.84 219.00 94.07 C 219.38 94.26 220.15 94.64 220.53 94.83 C 222.21 95.02 224.03 94.78 225.52 95.77 C 226.88 96.01 228.37 95.96 229.54 96.83 C 230.04 96.90 231.05 97.03 231.55 97.10 C 232.52 97.70 233.48 98.30 234.45 98.91 C 234.97 98.96 236.01 99.06 236.53 99.11 C 237.04 99.40 238.06 99.99 238.58 100.28 C 241.04 101.40 243.33 102.84 245.60 104.30 C 246.05 104.64 246.96 105.34 247.41 105.68 C 250.36 107.66 253.07 110.03 255.78 112.33 C 256.69 114.82 259.17 116.19 260.36 118.52 C 261.71 120.35 262.77 122.37 263.73 124.42 C 264.38 125.80 265.07 127.16 265.86 128.48 C 265.94 128.98 266.10 129.97 266.19 130.47 C 266.61 131.45 267.00 132.45 267.35 133.47 C 267.92 134.73 268.02 136.11 268.25 137.47 C 269.00 138.68 269.01 140.11 269.23 141.48 C 270.56 143.43 269.85 145.89 270.02 148.09 C 271.55 147.96 273.23 148.22 274.53 147.19 C 275.01 147.10 275.98 146.90 276.46 146.80 C 276.84 146.62 277.59 146.25 277.96 146.07 C 282.65 145.92 287.36 145.92 292.05 146.08 C 292.42 146.25 293.15 146.59 293.52 146.77 C 294.88 147.00 296.37 146.95 297.54 147.82 C 298.04 147.90 299.05 148.05 299.55 148.12 C 300.50 148.68 301.45 149.23 302.41 149.77 C 303.77 150.38 305.12 151.02 306.47 151.66 C 307.48 152.31 308.48 152.98 309.48 153.64 C 312.89 156.05 316.11 159.03 318.32 162.59 C 318.66 163.05 319.34 163.95 319.68 164.40 C 320.30 165.53 321.07 166.54 321.91 167.52 C 321.95 168.03 322.04 169.04 322.08 169.55 C 322.69 170.51 323.30 171.47 323.91 172.43 C 323.97 172.94 324.10 173.96 324.17 174.47 C 325.28 175.91 324.95 177.78 325.17 179.47 C 326.51 181.81 326.58 185.22 325.13 187.53 C 324.89 189.54 325.44 191.77 324.20 193.54 C 324.10 194.02 323.91 194.99 323.81 195.47 C 322.77 196.77 323.04 198.45 322.91 199.98 C 325.11 200.16 327.62 199.40 329.53 200.85 C 330.53 200.94 331.53 201.02 332.54 201.10 C 333.49 201.66 334.44 202.23 335.40 202.78 C 336.46 203.26 337.53 203.75 338.59 204.24 C 339.54 204.73 340.50 205.22 341.47 205.69 C 342.48 206.32 343.47 206.97 344.48 207.63 C 348.25 210.33 351.68 213.73 354.36 217.52 C 355.73 219.34 356.76 221.37 357.71 223.43 C 358.00 223.94 358.58 224.96 358.87 225.47 C 358.94 225.97 359.10 226.97 359.18 227.47 C 359.62 228.45 360.01 229.45 360.36 230.46 C 361.10 232.03 361.00 233.78 361.17 235.47 C 362.54 238.46 362.56 242.54 361.17 245.53 C 361.00 247.21 361.12 248.97 360.36 250.54 C 360.01 251.55 359.61 252.55 359.17 253.53 C 359.11 254.04 358.97 255.06 358.90 255.57 C 358.29 256.53 357.69 257.49 357.08 258.45 C 357.04 258.95 356.95 259.96 356.91 260.47 C 356.07 261.44 355.30 262.47 354.68 263.59 C 354.34 264.05 353.66 264.96 353.32 265.41 C 349.83 270.94 344.16 274.76 338.54 277.88 C 338.01 277.93 336.96 278.03 336.44 278.08 C 335.48 278.70 334.52 279.32 333.57 279.95 C 333.02 279.96 331.93 279.99 331.39 280.01 C 330.95 280.51 330.06 281.50 329.62 282.00 C 328.40 282.00 327.19 282.00 325.99 282.00 C 326.00 283.16 326.02 284.31 326.06 285.48 C 327.13 286.70 328.08 288.02 328.93 289.42 C 328.99 289.93 329.11 290.96 329.17 291.47 C 329.63 292.44 330.02 293.44 330.35 294.47 C 330.90 295.74 331.03 297.12 331.24 298.48 C 332.45 301.53 332.59 305.53 331.15 308.53 C 331.05 309.52 330.96 310.52 330.88 311.52 C 330.05 312.82 329.37 314.20 328.77 315.62 C 327.76 317.86 326.02 319.61 324.25 321.27 C 322.03 323.33 320.17 325.84 317.49 327.35 C 316.19 328.21 314.89 329.07 313.58 329.92 C 313.06 329.98 312.04 330.10 311.53 330.17 C 310.55 330.62 309.55 331.02 308.53 331.35 C 306.98 332.15 305.20 331.99 303.53 332.17 C 302.23 333.27 300.52 332.97 298.97 333.03 C 293.33 332.98 287.68 333.00 282.04 332.99 C 282.00 334.48 281.97 335.97 281.89 337.46 C 280.85 338.59 281.03 340.13 280.82 341.53 C 280.05 342.84 279.37 344.21 278.78 345.61 C 278.03 346.94 277.21 348.22 276.37 349.49 C 274.58 352.22 272.31 354.78 269.37 356.30 C 268.93 356.71 268.03 357.53 267.58 357.95 C 267.07 358.00 266.04 358.10 265.53 358.15 C 264.56 358.63 263.56 359.04 262.53 359.37 C 261.46 359.72 260.37 360.00 259.27 360.21 C 259.00 360.78 258.47 361.92 258.20 362.49 C 258.03 363.85 257.93 365.26 257.34 366.53 C 257.00 367.52 256.65 368.51 256.32 369.51 C 255.99 370.51 255.67 371.51 255.34 372.52 C 255.03 373.55 254.63 374.56 254.15 375.53 C 254.10 376.05 254.01 377.10 253.97 377.62 C 253.49 378.06 252.52 378.94 252.04 379.38 C 251.94 381.12 252.33 383.02 251.20 384.53 C 251.10 385.01 250.89 385.98 250.79 386.46 C 250.01 388.05 249.93 389.86 249.36 391.53 C 249.00 392.54 248.62 393.54 248.20 394.53 C 248.10 395.01 247.90 395.98 247.79 396.47 C 246.94 398.04 247.03 399.92 246.24 401.52 C 245.98 402.88 246.08 404.38 245.17 405.53 C 244.92 407.21 245.34 409.13 244.12 410.53 C 244.05 411.69 244.00 412.86 243.96 414.03 C 245.13 413.99 246.30 413.94 247.47 413.89 C 249.01 412.51 251.15 413.11 253.01 412.95 C 255.18 413.13 257.62 412.45 259.53 413.82 C 260.03 413.90 261.04 414.06 261.54 414.14 C 262.84 414.94 264.20 415.63 265.61 416.22 C 269.57 418.39 272.73 421.89 275.36 425.50 C 276.20 426.77 277.02 428.07 277.77 429.41 C 278.04 429.93 278.58 430.97 278.85 431.49 C 278.94 431.98 279.11 432.97 279.19 433.46 C 280.14 435.03 279.84 437.00 280.86 438.55 C 280.91 439.16 281.00 440.38 281.05 440.98 C 283.20 441.17 285.70 440.36 287.53 441.87 C 288.85 441.95 290.18 442.02 291.52 442.10 C 292.48 442.65 293.47 443.18 294.46 443.70 C 296.98 444.98 298.92 447.12 300.37 449.52 C 301.01 450.51 301.67 451.52 302.29 452.55 C 302.80 453.52 303.33 454.50 303.88 455.47 C 303.96 456.47 304.05 457.47 304.15 458.47 C 305.52 460.48 305.49 463.50 304.16 465.54 C 304.11 466.05 303.99 467.09 303.94 467.60 C 302.64 469.72 300.87 471.50 299.64 473.66 C 297.91 474.71 296.22 475.81 294.57 476.97 C 235.89 477.11 177.20 476.85 118.53 477.10 C 117.13 478.41 114.89 478.39 113.47 477.15 C 112.96 477.10 111.94 477.01 111.43 476.96 C 109.46 475.05 107.38 473.16 106.22 470.62 C 105.63 469.19 104.95 467.79 104.08 466.51 C 104.30 463.20 103.10 459.47 104.84 456.46 C 104.90 455.95 105.02 454.93 105.08 454.42 C 105.92 453.11 106.78 451.81 107.65 450.52 C 109.38 447.77 111.70 445.31 114.53 443.70 C 115.53 443.19 116.51 442.66 117.49 442.12 C 118.48 442.03 119.48 441.94 120.47 441.85 C 122.49 440.50 125.56 440.44 127.53 441.90 C 129.35 441.98 131.18 442.01 133.01 442.02 C 133.26 439.19 132.20 435.99 133.83 433.46 C 133.90 432.96 134.03 431.94 134.09 431.44 C 136.59 427.57 138.92 423.09 143.44 421.26 C 145.14 420.27 146.78 419.16 148.43 418.09 C 148.93 418.02 149.95 417.90 150.46 417.83 C 152.20 416.54 154.44 417.11 156.45 416.88 C 157.50 415.82 158.53 415.83 159.55 416.91 C 161.70 417.00 163.85 417.01 166.00 417.01 C 166.00 413.85 166.06 410.69 165.90 407.53 C 164.90 406.41 165.03 404.88 164.77 403.52 C 163.74 402.04 164.03 400.21 163.83 398.53 C 162.94 397.37 163.00 395.88 162.76 394.52 C 161.28 392.40 162.76 389.55 161.19 387.48 C 161.09 386.99 160.89 386.02 160.79 385.53 C 160.36 384.54 159.98 383.54 159.66 382.52 C 159.33 381.51 159.00 380.51 158.68 379.51 C 158.33 378.51 157.99 377.52 157.67 376.52 C 157.33 375.51 157.00 374.51 156.68 373.51 C 156.33 372.51 155.99 371.52 155.65 370.53 C 155.03 368.87 155.09 367.00 154.14 365.47 C 154.09 364.86 153.99 363.62 153.94 363.00 C 150.82 362.98 147.69 363.05 144.57 362.89 C 142.83 361.38 140.25 362.60 138.46 361.18 C 137.97 361.10 136.99 360.94 136.49 360.87 C 135.98 360.58 134.95 360.00 134.44 359.71 C 133.47 359.24 132.50 358.78 131.52 358.34 C 126.94 354.95 122.49 350.84 120.15 345.53 C 120.06 345.03 119.90 344.03 119.81 343.53 C 119.37 342.55 118.98 341.55 118.65 340.53 C 117.51 338.18 118.11 335.48 118.00 332.97 C 116.51 332.99 115.02 333.02 113.53 333.10 C 112.43 334.12 110.89 333.96 109.53 334.24 C 107.29 335.64 104.51 334.79 102.02 335.02 C 99.52 334.74 96.64 335.75 94.47 334.13 C 92.46 333.89 90.22 334.45 88.46 333.18 C 87.97 333.10 86.98 332.93 86.49 332.85 C 85.97 332.58 84.92 332.04 84.40 331.77 C 83.07 331.03 81.78 330.21 80.52 329.37 C 77.41 327.32 74.68 324.61 72.65 321.49 C 71.79 320.19 70.93 318.90 70.08 317.59 C 70.02 317.08 69.90 316.04 69.84 315.53 C 69.37 314.55 68.97 313.56 68.65 312.53 C 67.40 309.85 68.20 306.79 67.98 303.95 C 68.15 301.78 67.44 299.35 68.82 297.47 C 68.90 296.97 69.06 295.98 69.13 295.49 C 69.43 294.98 70.01 293.95 70.30 293.44 C 70.98 292.11 71.62 290.75 72.21 289.38 C 72.97 288.06 73.79 286.77 74.64 285.51 C 75.96 283.15 78.06 281.41 79.99 279.58 C 80.01 279.02 80.04 277.90 80.05 277.34 C 78.32 275.86 76.45 274.55 74.52 273.34 C 70.71 270.98 68.08 267.22 64.74 264.29 C 62.62 262.52 61.38 260.05 60.28 257.58 C 59.62 256.19 58.92 254.83 58.14 253.51 C 58.06 253.02 57.90 252.03 57.82 251.53 C 56.95 250.36 57.00 248.89 56.76 247.53 C 55.47 245.42 56.15 242.86 55.89 240.53 C 55.68 240.16 55.27 239.41 55.06 239.03 C 55.32 234.23 54.10 229.04 55.77 224.48 C 56.02 223.11 55.95 221.61 56.86 220.46 C 56.94 219.46 57.02 218.47 57.10 217.47 C 57.66 216.51 58.23 215.56 58.79 214.60 C 59.26 213.51 59.73 212.43 60.19 211.35 C 60.98 210.05 61.79 208.77 62.64 207.50 C 63.81 205.76 65.30 204.24 66.26 202.37 C 66.95 201.65 67.65 200.94 68.37 200.25 C 70.81 199.26 72.21 196.85 74.51 195.63 C 75.51 194.98 76.51 194.32 77.53 193.69 C 78.50 193.21 79.46 192.74 80.42 192.26 C 81.77 191.62 83.11 190.97 84.43 190.29 C 84.94 190.00 85.96 189.42 86.47 189.13 C 86.97 189.06 87.97 188.90 88.47 188.82 C 89.45 188.37 90.44 187.98 91.46 187.64 C 93.33 186.73 95.44 187.03 97.44 186.87 C 98.48 185.82 99.51 185.83 100.55 186.88 C 101.17 186.92 102.41 187.00 103.03 187.04 C 102.99 185.87 102.94 184.70 102.88 183.53 C 101.34 180.90 101.59 177.21 102.76 174.47 C 102.98 173.11 103.02 171.68 103.76 170.47 C 104.00 169.10 103.97 167.64 104.81 166.46 C 104.89 165.96 105.05 164.97 105.13 164.48 C 105.42 163.97 106.00 162.94 106.29 162.43 C 107.24 160.37 108.26 158.34 109.64 156.52 C 112.51 152.08 116.78 148.70 121.41 146.24 C 121.93 145.97 122.97 145.42 123.49 145.15 C 123.98 145.06 124.97 144.90 125.46 144.81 C 126.64 143.97 128.11 144.00 129.48 143.76 C 130.97 142.77 132.78 143.02 134.47 142.83 C 137.44 141.48 141.62 141.36 144.53 142.90 C 146.33 142.99 148.14 143.01 149.95 143.02 C 150.10 141.16 149.53 139.05 150.83 137.47 C 150.99 135.79 150.86 134.02 151.65 132.47 C 151.99 131.45 152.37 130.45 152.82 129.47 C 152.89 128.97 153.05 127.97 153.13 127.46 C 153.42 126.96 154.01 125.94 154.30 125.44 C 154.99 124.10 155.63 122.74 156.20 121.36 C 157.30 119.18 159.16 117.53 160.28 115.38 C 163.63 112.08 166.54 108.14 170.59 105.68 C 171.04 105.34 171.94 104.65 172.39 104.30 C 174.67 102.85 176.95 101.40 179.42 100.28 C 179.93 99.99 180.96 99.42 181.48 99.14 C 181.97 99.05 182.97 98.89 183.47 98.81 C 184.44 98.30 185.48 97.96 186.57 97.79 C 187.54 97.24 188.50 96.67 189.46 96.08 C 190.79 96.02 192.13 95.96 193.47 95.88 C 194.86 94.63 196.78 95.08 198.47 94.83 M 170.05 111.21 C 159.37 120.56 152.81 134.87 154.02 149.16 C 146.17 146.55 137.53 145.90 129.59 148.52 C 121.97 150.40 114.67 155.04 111.14 162.25 C 107.75 169.48 105.85 177.68 107.40 185.62 C 108.08 187.80 108.86 189.95 109.22 192.22 C 104.10 191.29 98.79 190.23 93.65 191.58 C 82.05 194.52 71.82 202.29 65.24 212.22 C 59.05 221.35 59.01 233.09 60.48 243.62 C 62.03 254.72 68.97 264.77 78.57 270.47 C 83.16 273.54 88.82 274.42 93.33 277.57 C 85.14 280.91 77.54 286.99 74.59 295.58 C 71.28 304.53 72.76 315.51 79.45 322.55 C 84.71 328.69 93.46 329.58 101.02 330.03 C 108.73 330.63 115.95 327.68 123.23 325.69 C 123.24 327.96 123.04 330.22 122.71 332.46 C 121.36 340.86 125.65 349.82 132.96 354.15 C 138.73 358.08 146.13 358.18 152.85 357.66 C 159.04 357.22 164.54 354.18 170.13 351.77 C 172.31 355.50 174.39 359.35 177.32 362.57 C 181.78 367.85 188.08 371.13 194.38 373.71 C 212.89 380.15 234.71 368.87 241.27 350.66 C 248.45 355.44 258.48 358.30 266.33 353.41 C 272.07 349.52 276.13 343.23 277.46 336.43 C 278.66 332.56 276.87 328.69 276.85 324.78 C 280.46 325.26 283.70 327.13 287.31 327.62 C 295.56 328.72 304.33 328.59 311.99 324.98 C 318.70 322.16 324.57 316.54 326.42 309.35 C 328.03 302.14 326.64 294.42 323.02 288.02 C 320.78 284.27 316.93 281.95 313.93 278.87 C 317.93 276.47 322.71 277.96 327.05 277.04 C 341.13 274.48 353.25 262.95 355.62 248.69 C 356.59 240.67 356.86 232.13 353.44 224.62 C 349.41 215.93 341.18 209.84 332.42 206.48 C 327.51 204.43 322.17 205.00 317.00 204.92 C 314.82 203.96 316.73 201.61 317.11 200.07 C 320.05 194.04 321.34 187.17 320.49 180.50 C 318.57 167.98 309.61 156.24 297.19 152.72 C 287.04 149.47 276.16 151.14 266.02 153.55 C 266.42 140.08 262.35 126.06 252.76 116.28 C 242.25 104.63 226.32 99.07 210.93 98.43 C 196.52 98.37 181.27 101.69 170.05 111.21 M 167.51 359.40 C 164.47 360.92 160.84 361.29 158.04 363.15 C 158.85 367.81 160.97 372.11 162.25 376.65 C 164.34 382.95 165.50 389.49 167.12 395.92 C 169.37 404.10 170.21 412.63 173.26 420.59 C 174.83 421.89 176.41 423.19 177.99 424.48 C 178.56 418.31 179.12 412.12 180.23 406.02 C 181.44 399.16 181.82 392.16 183.58 385.41 C 183.98 401.22 189.73 416.21 191.44 431.81 C 197.94 428.81 205.25 429.86 211.76 432.23 C 216.74 416.69 222.52 401.37 226.09 385.43 C 227.10 391.62 226.64 397.93 227.31 404.16 C 227.94 409.90 228.48 415.66 229.03 421.42 C 232.26 419.24 235.59 417.07 238.27 414.23 C 241.72 403.84 244.92 393.36 247.84 382.81 C 250.26 375.70 252.83 368.60 254.07 361.16 C 250.41 360.82 246.81 360.12 243.31 359.02 C 239.57 367.33 231.98 373.07 224.08 377.16 C 211.79 382.70 196.89 382.47 185.00 375.99 C 178.13 371.72 172.18 365.99 167.51 359.40 M 237.24 423.28 C 229.15 429.88 224.47 439.69 222.13 449.70 C 218.97 445.92 215.86 441.95 211.54 439.43 C 206.36 435.79 199.43 435.59 193.61 437.63 C 189.34 439.29 187.42 443.67 185.15 447.29 C 182.54 440.90 180.77 433.40 174.75 429.23 C 170.54 426.48 166.22 423.28 161.03 422.84 C 156.59 422.39 151.88 422.00 147.62 423.64 C 142.79 426.09 139.19 430.84 138.15 436.17 C 136.86 441.92 137.96 447.79 138.92 453.50 C 137.27 452.73 135.95 451.50 134.72 450.20 C 130.92 445.94 124.37 446.00 119.28 447.44 C 114.62 449.72 109.82 453.54 109.09 459.02 C 108.67 462.82 108.54 467.04 110.68 470.39 C 113.50 471.35 116.72 471.01 119.60 470.41 C 123.38 468.58 126.91 466.01 131.17 465.36 C 134.66 464.60 138.18 465.58 141.48 466.69 C 142.19 461.87 143.89 456.97 147.64 453.66 C 152.54 449.28 159.39 445.86 166.06 447.89 C 175.98 449.95 182.60 458.87 185.52 468.06 C 189.28 461.97 195.66 457.43 202.96 457.18 C 211.24 456.61 217.66 462.72 223.66 467.51 C 225.77 458.84 233.31 452.31 241.57 449.64 C 248.34 447.56 255.24 450.49 260.85 454.17 C 264.39 456.74 265.78 461.07 267.27 464.98 C 271.94 464.39 276.81 463.02 281.44 464.55 C 283.96 465.23 285.03 467.78 286.31 469.79 C 290.24 469.73 294.23 470.04 298.11 469.23 C 300.58 466.22 300.23 461.80 299.70 458.18 C 298.16 454.21 296.42 449.47 292.03 447.93 C 285.87 445.21 279.44 448.79 274.29 452.04 C 274.98 446.09 277.78 439.79 275.01 433.97 C 272.45 429.13 269.82 423.81 264.85 421.02 C 259.64 417.59 253.07 417.62 247.10 418.19 C 243.57 419.32 240.30 421.22 237.24 423.28 Z" />
<path fill="#3b1002" opacity="1.00" d=" M 54.44 134.04 C 57.47 133.98 60.50 133.97 63.53 134.06 C 64.03 134.37 65.04 134.99 65.55 135.30 C 66.52 135.76 67.50 136.22 68.48 136.66 C 70.94 138.03 72.95 140.09 74.36 142.52 C 75.72 144.33 76.76 146.36 77.71 148.43 C 78.00 148.94 78.59 149.97 78.89 150.48 C 78.97 151.48 79.06 152.47 79.15 153.47 C 80.57 155.20 79.86 157.53 80.01 159.56 C 78.49 161.01 77.01 162.49 75.55 164.00 C 73.19 163.84 70.54 164.63 68.46 163.17 C 67.96 163.10 66.95 162.98 66.44 162.91 C 64.78 161.83 63.14 160.72 61.42 159.74 C 59.11 158.79 57.41 156.94 55.61 155.29 C 52.54 153.70 51.19 150.15 49.02 147.59 C 48.99 144.87 48.99 142.15 49.03 139.44 C 50.21 137.07 52.06 135.20 54.44 134.04 M 56.26 138.27 C 51.40 139.22 51.98 146.22 54.82 149.09 C 59.85 154.19 66.45 158.78 73.88 158.78 C 76.04 157.86 75.25 154.94 74.86 153.17 C 73.54 149.44 71.95 145.66 69.40 142.59 C 65.96 139.41 61.01 137.01 56.26 138.27 Z" />
<path fill="#3b1002" opacity="1.00" d=" M 383.47 273.85 C 385.02 272.55 387.10 273.08 388.95 272.94 C 390.81 273.10 392.95 272.52 394.53 273.85 C 395.52 273.94 396.51 274.03 397.52 274.12 C 398.48 274.66 399.46 275.18 400.46 275.69 C 402.17 276.34 403.10 277.90 403.98 279.42 C 403.98 281.14 403.98 282.86 403.99 284.58 C 401.68 289.29 397.04 291.69 392.55 293.86 C 392.05 293.94 391.04 294.10 390.54 294.18 C 387.87 295.51 384.10 295.60 381.48 294.14 C 380.45 294.05 379.42 293.98 378.40 293.92 C 377.45 293.30 376.50 292.68 375.55 292.06 C 375.02 292.04 373.96 292.00 373.43 291.98 C 371.65 290.14 369.85 288.34 368.00 286.57 C 367.99 285.52 368.00 284.47 368.00 283.42 C 368.43 282.97 369.29 282.09 369.72 281.64 C 370.17 280.22 371.14 279.20 372.52 278.66 C 373.77 277.79 375.04 276.97 376.36 276.22 C 377.78 275.63 379.17 274.95 380.47 274.11 C 381.46 274.02 382.47 273.94 383.47 273.85 M 382.39 278.49 C 378.23 278.99 374.92 281.72 371.80 284.27 C 375.38 288.82 381.45 290.19 386.97 290.18 C 392.67 290.21 398.51 286.69 400.29 281.12 C 395.58 276.41 388.33 277.63 382.39 278.49 Z" />
<path fill="#3b1002" opacity="1.00" d=" M 69.45 352.04 C 70.83 352.01 72.22 351.99 73.60 351.97 C 75.28 353.61 76.77 355.42 77.98 357.42 C 78.00 359.46 78.00 361.51 77.97 363.56 C 75.54 367.12 73.47 371.24 69.49 373.36 C 68.23 374.21 66.95 375.03 65.63 375.78 C 64.21 376.36 62.82 377.04 61.53 377.88 C 60.53 377.96 59.52 378.05 58.52 378.15 C 57.39 379.17 55.85 378.94 54.46 379.05 C 52.89 378.02 51.39 376.90 49.98 375.67 C 49.96 375.14 49.90 374.08 49.87 373.55 C 48.73 372.37 48.67 370.64 49.87 369.48 C 49.94 368.45 50.01 367.43 50.08 366.41 C 51.49 364.37 52.68 362.17 54.23 360.23 C 56.15 358.71 58.27 357.47 60.37 356.24 C 61.79 355.63 63.17 354.94 64.47 354.11 C 64.99 354.06 66.04 353.97 66.56 353.92 C 67.53 353.29 68.49 352.67 69.45 352.04 M 70.38 357.35 C 65.54 359.19 60.52 361.10 56.64 364.64 C 54.01 366.97 52.88 371.38 54.72 374.48 C 62.47 374.52 69.67 368.99 73.11 362.20 C 74.41 360.02 73.76 355.41 70.38 357.35 Z" />
</g>
<g id="#ad3a08ff">
<path fill="#ad3a08" opacity="1.00" d=" M 170.05 111.21 C 181.27 101.69 196.52 98.37 210.93 98.43 C 226.32 99.07 242.25 104.63 252.76 116.28 C 262.35 126.06 266.42 140.08 266.02 153.55 C 276.16 151.14 287.04 149.47 297.19 152.72 C 309.61 156.24 318.57 167.98 320.49 180.50 C 321.34 187.17 320.05 194.04 317.11 200.07 C 316.73 201.61 314.82 203.96 317.00 204.92 C 322.17 205.00 327.51 204.43 332.42 206.48 C 341.18 209.84 349.41 215.93 353.44 224.62 C 356.86 232.13 356.59 240.67 355.62 248.69 C 353.25 262.95 341.13 274.48 327.05 277.04 C 322.71 277.96 317.93 276.47 313.93 278.87 C 316.93 281.95 320.78 284.27 323.02 288.02 C 326.64 294.42 328.03 302.14 326.42 309.35 C 324.57 316.54 318.70 322.16 311.99 324.98 C 304.33 328.59 295.56 328.72 287.31 327.62 C 283.70 327.13 280.46 325.26 276.85 324.78 C 276.87 328.69 278.66 332.56 277.46 336.43 C 276.13 343.23 272.07 349.52 266.33 353.41 C 258.48 358.30 248.45 355.44 241.27 350.66 C 234.71 368.87 212.89 380.15 194.38 373.71 C 188.08 371.13 181.78 367.85 177.32 362.57 C 174.39 359.35 172.31 355.50 170.13 351.77 C 164.54 354.18 159.04 357.22 152.85 357.66 C 146.13 358.18 138.73 358.08 132.96 354.15 C 125.65 349.82 121.36 340.86 122.71 332.46 C 123.04 330.22 123.24 327.96 123.23 325.69 C 115.95 327.68 108.73 330.63 101.02 330.03 C 93.46 329.58 84.71 328.69 79.45 322.55 C 72.76 315.51 71.28 304.53 74.59 295.58 C 77.54 286.99 85.14 280.91 93.33 277.57 C 88.82 274.42 83.16 273.54 78.57 270.47 C 68.97 264.77 62.03 254.72 60.48 243.62 C 59.01 233.09 59.05 221.35 65.24 212.22 C 71.82 202.29 82.05 194.52 93.65 191.58 C 98.79 190.23 104.10 191.29 109.22 192.22 C 108.86 189.95 108.08 187.80 107.40 185.62 C 105.85 177.68 107.75 169.48 111.14 162.25 C 114.67 155.04 121.97 150.40 129.59 148.52 C 137.53 145.90 146.17 146.55 154.02 149.16 C 152.81 134.87 159.37 120.56 170.05 111.21 M 197.00 170.84 C 183.84 173.98 171.88 183.04 166.69 195.74 C 164.17 202.36 161.77 209.75 163.96 216.81 C 161.45 215.48 158.79 214.39 155.98 213.93 C 148.99 212.17 141.64 214.97 135.97 219.00 C 120.90 230.50 120.78 255.98 135.28 267.99 C 129.35 268.47 124.26 272.61 121.99 278.00 C 120.03 283.71 119.54 290.02 121.09 295.89 C 123.94 302.64 130.09 307.93 137.18 309.82 C 144.32 312.13 152.36 310.75 158.85 307.20 C 159.12 311.37 158.36 315.80 160.23 319.69 C 162.71 325.18 166.73 330.18 172.24 332.84 C 179.51 336.75 188.70 336.66 195.98 332.85 C 202.15 329.05 207.12 323.11 209.33 316.15 C 211.51 319.99 214.31 323.88 218.58 325.54 C 224.84 328.26 232.55 329.50 238.63 325.65 C 245.01 321.97 248.02 314.85 249.88 308.07 C 253.77 312.44 259.66 315.67 265.65 314.71 C 272.28 313.16 278.90 308.59 280.51 301.62 C 281.75 295.85 281.69 289.58 279.42 284.07 C 292.53 280.12 303.14 268.71 305.03 255.01 C 305.41 249.21 305.69 243.08 303.30 237.64 C 299.04 227.01 289.72 218.26 278.56 215.38 C 269.39 213.09 260.35 217.46 252.92 222.48 C 255.66 212.17 252.11 201.63 247.58 192.39 C 243.38 184.78 236.06 179.67 228.91 175.08 C 219.26 169.79 207.70 168.49 197.00 170.84 Z" />
<path fill="#ad3a08" opacity="1.00" d=" M 56.26 138.27 C 61.01 137.01 65.96 139.41 69.40 142.59 C 71.95 145.66 73.54 149.44 74.86 153.17 C 75.25 154.94 76.04 157.86 73.88 158.78 C 66.45 158.78 59.85 154.19 54.82 149.09 C 51.98 146.22 51.40 139.22 56.26 138.27 Z" />
<path fill="#ad3a08" opacity="1.00" d=" M 382.39 278.49 C 388.33 277.63 395.58 276.41 400.29 281.12 C 398.51 286.69 392.67 290.21 386.97 290.18 C 381.45 290.19 375.38 288.82 371.80 284.27 C 374.92 281.72 378.23 278.99 382.39 278.49 Z" />
<path fill="#ad3a08" opacity="1.00" d=" M 70.38 357.35 C 73.76 355.41 74.41 360.02 73.11 362.20 C 69.67 368.99 62.47 374.52 54.72 374.48 C 52.88 371.38 54.01 366.97 56.64 364.64 C 60.52 361.10 65.54 359.19 70.38 357.35 Z" />
</g>
<g id="#c16e0dff">
<path fill="#c16e0d" opacity="1.00" d=" M 197.00 170.84 C 207.70 168.49 219.26 169.79 228.91 175.08 C 236.06 179.67 243.38 184.78 247.58 192.39 C 252.11 201.63 255.66 212.17 252.92 222.48 C 260.35 217.46 269.39 213.09 278.56 215.38 C 289.72 218.26 299.04 227.01 303.30 237.64 C 305.69 243.08 305.41 249.21 305.03 255.01 C 303.14 268.71 292.53 280.12 279.42 284.07 C 281.69 289.58 281.75 295.85 280.51 301.62 C 278.90 308.59 272.28 313.16 265.65 314.71 C 259.66 315.67 253.77 312.44 249.88 308.07 C 248.02 314.85 245.01 321.97 238.63 325.65 C 232.55 329.50 224.84 328.26 218.58 325.54 C 214.31 323.88 211.51 319.99 209.33 316.15 C 207.12 323.11 202.15 329.05 195.98 332.85 C 188.70 336.66 179.51 336.75 172.24 332.84 C 166.73 330.18 162.71 325.18 160.23 319.69 C 158.36 315.80 159.12 311.37 158.85 307.20 C 152.36 310.75 144.32 312.13 137.18 309.82 C 130.09 307.93 123.94 302.64 121.09 295.89 C 119.54 290.02 120.03 283.71 121.99 278.00 C 124.26 272.61 129.35 268.47 135.28 267.99 C 120.78 255.98 120.90 230.50 135.97 219.00 C 141.64 214.97 148.99 212.17 155.98 213.93 C 158.79 214.39 161.45 215.48 163.96 216.81 C 161.77 209.75 164.17 202.36 166.69 195.74 C 171.88 183.04 183.84 173.98 197.00 170.84 Z" />
</g>
<g id="#832505ff">
<path fill="#832505" opacity="1.00" d=" M 167.51 359.40 C 172.18 365.99 178.13 371.72 185.00 375.99 C 196.89 382.47 211.79 382.70 224.08 377.16 C 231.98 373.07 239.57 367.33 243.31 359.02 C 246.81 360.12 250.41 360.82 254.07 361.16 C 252.83 368.60 250.26 375.70 247.84 382.81 C 244.92 393.36 241.72 403.84 238.27 414.23 C 235.59 417.07 232.26 419.24 229.03 421.42 C 228.48 415.66 227.94 409.90 227.31 404.16 C 226.64 397.93 227.10 391.62 226.09 385.43 C 222.52 401.37 216.74 416.69 211.76 432.23 C 205.25 429.86 197.94 428.81 191.44 431.81 C 189.73 416.21 183.98 401.22 183.58 385.41 C 181.82 392.16 181.44 399.16 180.23 406.02 C 179.12 412.12 178.56 418.31 177.99 424.48 C 176.41 423.19 174.83 421.89 173.26 420.59 C 170.21 412.63 169.37 404.10 167.12 395.92 C 165.50 389.49 164.34 382.95 162.25 376.65 C 160.97 372.11 158.85 367.81 158.04 363.15 C 160.84 361.29 164.47 360.92 167.51 359.40 Z" />
</g>
<g id="#5e1904ff">
<path fill="#5e1904" opacity="1.00" d=" M 237.24 423.28 C 240.30 421.22 243.57 419.32 247.10 418.19 C 253.07 417.62 259.64 417.59 264.85 421.02 C 269.82 423.81 272.45 429.13 275.01 433.97 C 277.78 439.79 274.98 446.09 274.29 452.04 C 279.44 448.79 285.87 445.21 292.03 447.93 C 296.42 449.47 298.16 454.21 299.70 458.18 C 300.23 461.80 300.58 466.22 298.11 469.23 C 294.23 470.04 290.24 469.73 286.31 469.79 C 285.03 467.78 283.96 465.23 281.44 464.55 C 276.81 463.02 271.94 464.39 267.27 464.98 C 265.78 461.07 264.39 456.74 260.85 454.17 C 255.24 450.49 248.34 447.56 241.57 449.64 C 233.31 452.31 225.77 458.84 223.66 467.51 C 217.66 462.72 211.24 456.61 202.96 457.18 C 195.66 457.43 189.28 461.97 185.52 468.06 C 182.60 458.87 175.98 449.95 166.06 447.89 C 159.39 445.86 152.54 449.28 147.64 453.66 C 143.89 456.97 142.19 461.87 141.48 466.69 C 138.18 465.58 134.66 464.60 131.17 465.36 C 126.91 466.01 123.38 468.58 119.60 470.41 C 116.72 471.01 113.50 471.35 110.68 470.39 C 108.54 467.04 108.67 462.82 109.09 459.02 C 109.82 453.54 114.62 449.72 119.28 447.44 C 124.37 446.00 130.92 445.94 134.72 450.20 C 135.95 451.50 137.27 452.73 138.92 453.50 C 137.96 447.79 136.86 441.92 138.15 436.17 C 139.19 430.84 142.79 426.09 147.62 423.64 C 151.88 422.00 156.59 422.39 161.03 422.84 C 166.22 423.28 170.54 426.48 174.75 429.23 C 180.77 433.40 182.54 440.90 185.15 447.29 C 187.42 443.67 189.34 439.29 193.61 437.63 C 199.43 435.59 206.36 435.79 211.54 439.43 C 215.86 441.95 218.97 445.92 222.13 449.70 C 224.47 439.69 229.15 429.88 237.24 423.28 Z" />
</g>
</svg>
