<?xml version="1.0" encoding="UTF-8" ?>
<!DOCTYPE svg PUBLIC "-//W3C//DTD SVG 1.1//EN" "http://www.w3.org/Graphics/SVG/1.1/DTD/svg11.dtd">
<svg width="452pt" height="479pt" viewBox="0 0 452 479" version="1.1" xmlns="http://www.w3.org/2000/svg">
<g id="#ffffffff">
<path fill="#ffffff" opacity="1.00" d=" M 0.00 0.00 L 452.00 0.00 L 452.00 479.00 L 0.00 479.00 L 0.00 0.00 M 238.34 107.00 C 238.06 107.64 237.49 108.91 237.21 109.55 C 237.02 110.90 236.86 112.27 236.37 113.56 C 236.01 114.57 235.63 115.56 235.25 116.56 C 235.03 117.92 234.92 119.33 234.27 120.58 C 234.03 121.92 233.85 123.28 233.34 124.55 C 233.01 125.55 232.68 126.55 232.34 127.55 C 232.00 128.57 231.62 129.58 231.20 130.57 C 231.10 131.03 230.90 131.95 230.80 132.42 C 230.06 134.05 229.88 135.84 229.35 137.54 C 229.02 138.54 228.67 139.54 228.31 140.53 C 228.00 141.54 227.67 142.54 227.31 143.53 C 227.00 144.54 226.68 145.54 226.34 146.54 C 226.01 147.57 225.62 148.58 225.19 149.58 C 225.10 150.04 224.92 150.97 224.82 151.44 C 224.25 152.77 223.80 154.16 223.30 155.52 C 223.00 156.57 222.63 157.59 222.19 158.59 C 222.12 159.06 221.98 160.01 221.91 160.48 C 221.33 161.47 220.76 162.46 220.20 163.46 C 219.95 164.49 219.67 165.52 219.37 166.54 C 219.01 167.58 218.61 168.59 218.17 169.59 C 218.11 170.06 217.99 171.02 217.94 171.49 C 217.31 172.49 216.69 173.50 216.07 174.50 C 216.03 174.99 215.95 175.96 215.92 176.45 C 215.63 176.98 215.05 178.04 214.76 178.57 C 212.01 182.75 209.89 187.76 205.49 190.48 C 202.26 191.23 198.47 191.72 195.42 190.19 C 194.96 190.10 194.04 189.91 193.58 189.82 C 192.57 189.38 191.52 189.03 190.45 188.76 C 189.49 188.02 188.53 187.27 187.45 186.72 C 185.68 185.87 184.11 184.70 182.43 183.73 C 177.17 180.50 171.68 177.39 167.34 172.94 C 166.42 174.04 165.76 175.32 165.03 176.54 C 165.03 177.83 165.04 179.12 165.07 180.41 C 167.44 183.35 164.59 187.64 166.92 190.61 C 167.04 193.54 166.97 196.47 167.08 199.40 C 167.30 199.81 167.74 200.62 167.96 201.03 C 167.68 205.50 168.98 210.41 167.18 214.60 C 166.96 216.28 167.26 218.14 166.15 219.59 C 166.10 220.08 166.00 221.04 165.95 221.52 C 164.27 224.68 161.68 227.28 158.52 228.95 C 157.54 229.00 156.57 229.06 155.59 229.13 C 153.99 230.45 151.87 229.94 149.99 230.04 C 145.02 229.91 140.05 230.18 135.10 229.97 C 134.68 229.76 133.84 229.34 133.42 229.13 C 131.41 228.92 129.16 229.47 127.42 228.17 C 125.73 227.97 123.88 228.25 122.41 227.18 C 120.72 226.98 118.88 227.23 117.41 226.19 C 116.96 226.10 116.04 225.91 115.59 225.82 C 113.74 224.63 111.40 225.26 109.44 224.37 C 108.43 224.01 107.43 223.64 106.43 223.27 C 105.09 223.05 103.72 222.88 102.45 222.34 C 101.44 222.02 100.44 221.69 99.44 221.35 C 98.41 221.00 97.40 220.62 96.41 220.18 C 95.94 220.12 94.99 219.98 94.52 219.91 C 93.53 219.33 92.53 218.77 91.52 218.22 C 90.43 218.01 89.39 217.66 88.40 217.18 C 87.93 217.12 86.98 217.00 86.50 216.94 C 85.50 216.31 84.49 215.69 83.49 215.06 C 83.00 215.04 82.01 214.99 81.52 214.96 C 80.51 214.33 79.51 213.70 78.50 213.08 C 78.02 213.03 77.06 212.91 76.58 212.86 C 75.86 212.54 74.44 211.91 73.72 211.60 C 75.32 216.20 80.00 218.45 82.36 222.53 C 84.30 225.26 87.03 227.29 89.28 229.75 C 97.44 240.27 106.89 249.91 113.73 261.46 C 115.34 264.22 117.28 266.77 118.96 269.49 C 118.99 269.98 119.06 270.96 119.09 271.45 C 119.38 271.97 119.96 273.02 120.25 273.54 C 120.79 274.54 121.34 275.53 121.90 276.52 C 121.97 276.99 122.11 277.93 122.18 278.41 C 122.62 279.40 123.00 280.42 123.33 281.47 C 123.68 282.45 124.01 283.45 124.34 284.45 C 125.10 285.99 125.01 287.74 125.18 289.41 C 126.56 292.79 126.58 297.21 125.16 300.59 C 125.10 301.07 124.99 302.04 124.93 302.52 C 119.91 311.10 112.23 317.90 103.64 322.79 C 102.55 323.25 101.47 323.75 100.37 324.21 C 97.67 326.10 94.12 327.27 92.69 330.48 C 93.41 330.84 94.84 331.57 95.56 331.94 C 99.53 332.45 103.82 331.10 107.57 332.74 C 108.88 332.96 110.19 333.17 111.47 333.56 C 111.98 333.90 113.00 334.58 113.51 334.92 C 113.99 334.98 114.96 335.08 115.44 335.14 C 116.13 335.45 117.51 336.09 118.20 336.40 C 118.09 337.36 117.85 338.29 117.47 339.17 C 113.07 341.14 110.79 345.65 108.20 349.44 C 108.00 350.53 107.67 351.58 107.21 352.58 C 107.11 353.04 106.90 353.96 106.80 354.42 C 106.04 356.08 106.02 357.98 105.15 359.61 C 104.88 361.60 105.49 363.89 104.10 365.59 C 104.04 366.74 104.00 367.89 103.96 369.05 C 102.84 369.01 101.71 368.96 100.59 368.92 C 99.54 367.78 98.47 367.77 97.41 368.90 C 96.45 368.97 95.50 369.03 94.55 369.11 C 94.02 369.39 92.95 369.96 92.42 370.24 C 90.39 371.19 88.78 372.76 86.95 374.01 C 82.32 376.93 80.15 382.19 77.08 386.48 C 77.02 386.97 76.90 387.93 76.84 388.42 C 76.40 389.41 76.00 390.41 75.64 391.44 C 74.55 393.81 75.12 396.49 74.98 399.01 C 75.15 401.20 74.45 403.65 75.82 405.59 C 75.92 406.04 76.11 406.96 76.20 407.42 C 76.64 408.41 76.99 409.44 77.25 410.50 C 77.74 411.49 78.22 412.48 78.71 413.48 C 81.72 419.16 86.65 423.74 92.59 426.24 C 93.57 426.78 94.55 427.33 95.53 427.90 C 96.00 427.96 96.93 428.08 97.40 428.14 C 98.84 429.27 100.72 428.93 102.40 429.16 C 104.13 430.55 106.40 429.89 108.42 429.94 C 109.79 428.56 111.79 429.08 113.51 428.91 C 114.51 428.29 115.51 427.66 116.51 427.04 C 117.57 427.00 118.62 426.97 119.68 426.94 C 123.26 432.17 127.67 436.95 133.44 439.79 C 134.51 440.03 135.56 440.34 136.59 440.72 C 137.94 441.02 139.49 440.90 140.58 441.94 C 141.52 441.94 142.47 441.94 143.42 441.94 C 144.77 440.63 146.73 441.07 148.41 440.81 C 149.41 440.38 150.42 439.99 151.44 439.64 C 152.46 439.32 153.48 439.02 154.51 438.76 C 156.15 437.90 157.80 437.08 159.47 436.29 C 162.38 434.56 165.27 432.69 167.40 430.00 C 168.79 429.99 170.17 429.99 171.57 430.01 C 173.32 432.39 176.06 433.52 178.55 434.93 C 182.16 434.99 185.78 435.01 189.39 434.89 C 191.77 433.35 196.57 433.06 197.29 436.56 C 197.76 437.52 198.24 438.49 198.72 439.47 C 199.02 439.99 199.62 441.02 199.92 441.54 C 199.95 442.02 200.03 443.00 200.06 443.49 C 200.68 444.49 201.31 445.49 201.93 446.51 C 201.99 446.98 202.10 447.94 202.16 448.41 C 202.77 449.53 203.12 450.74 203.21 452.04 C 201.25 451.89 199.07 452.45 197.39 451.14 C 196.13 451.04 194.87 450.97 193.61 450.88 C 191.24 449.46 187.76 449.44 185.40 450.88 C 184.44 450.95 183.49 451.02 182.53 451.10 C 181.21 451.93 179.82 452.63 178.39 453.25 C 175.69 453.97 174.83 456.69 173.03 458.49 C 173.02 459.13 173.00 460.42 172.99 461.06 C 170.29 461.28 167.55 460.91 165.47 459.03 C 163.43 459.07 161.17 458.51 159.40 459.85 C 158.92 459.91 157.96 460.01 157.47 460.07 C 153.95 462.03 151.03 465.01 149.02 468.49 C 149.01 469.84 149.00 471.20 149.00 472.57 C 149.81 473.35 150.61 474.14 151.42 474.94 C 151.92 475.00 152.92 475.11 153.42 475.16 C 155.02 476.08 157.02 475.85 158.56 476.92 C 164.84 477.15 171.13 476.83 177.40 477.06 C 178.57 478.39 180.38 478.21 181.96 478.28 C 220.64 477.86 259.34 478.17 298.02 478.24 C 299.39 478.36 300.58 477.97 301.59 477.07 C 306.40 476.89 311.22 477.02 316.03 477.03 C 317.59 476.99 319.30 477.25 320.60 476.14 C 321.08 476.09 322.04 475.98 322.52 475.93 C 324.64 474.78 326.45 473.16 328.20 471.52 C 328.01 470.41 327.66 469.37 327.13 468.40 C 327.09 467.90 327.00 466.91 326.96 466.41 C 324.21 463.41 321.20 460.70 317.45 459.03 C 315.72 459.05 313.80 458.59 312.40 459.91 C 310.73 459.98 309.07 460.00 307.41 460.00 C 305.87 456.58 302.84 453.91 299.55 452.21 C 298.47 451.98 297.42 451.65 296.41 451.21 C 295.96 451.11 295.04 450.91 294.59 450.81 C 291.17 449.49 286.81 449.46 283.41 450.82 C 282.96 450.91 282.05 451.11 281.59 451.20 C 279.62 452.52 277.18 451.86 274.98 452.01 C 275.00 451.39 275.04 450.15 275.06 449.52 C 275.65 448.54 276.23 447.54 276.80 446.55 C 276.98 445.45 277.32 444.41 277.83 443.44 C 277.90 442.96 278.04 442.00 278.11 441.53 C 278.40 441.02 279.00 440.00 279.29 439.49 C 280.03 438.02 280.72 436.53 281.30 435.00 C 282.73 434.99 284.16 434.99 285.60 435.00 C 287.26 436.92 289.07 438.79 291.46 439.78 C 292.54 440.00 293.59 440.34 294.60 440.80 C 296.27 441.06 298.20 440.67 299.58 441.92 C 302.19 442.03 304.80 442.03 307.41 441.90 C 308.39 441.39 309.40 440.97 310.44 440.62 C 311.47 440.31 312.51 440.04 313.56 439.80 C 317.59 437.84 320.21 434.01 323.41 431.00 C 324.80 430.99 326.20 430.99 327.60 431.00 C 329.81 433.20 331.73 435.81 334.53 437.33 C 336.24 438.08 337.91 438.92 339.53 439.87 C 340.00 439.95 340.94 440.10 341.41 440.17 C 343.53 441.79 346.58 440.07 348.56 441.95 C 350.19 442.00 351.83 442.00 353.47 441.97 C 354.44 441.36 355.43 440.78 356.44 440.24 C 356.97 439.95 358.02 439.37 358.55 439.09 C 359.03 439.05 360.00 438.96 360.49 438.92 C 365.58 435.49 369.81 431.00 373.31 425.98 C 375.01 426.00 376.71 425.99 378.41 425.91 C 379.98 424.91 381.94 425.02 383.59 424.18 C 384.06 424.10 385.00 423.96 385.47 423.88 C 386.79 423.06 388.18 422.36 389.62 421.76 C 393.75 419.37 397.37 415.75 399.76 411.62 C 400.36 410.18 401.06 408.78 401.88 407.46 C 401.95 406.99 402.09 406.06 402.16 405.59 C 403.75 403.02 402.72 399.86 403.00 397.03 C 402.77 394.49 403.68 391.66 402.16 389.41 C 402.09 388.93 401.96 387.99 401.90 387.51 C 401.33 386.54 400.78 385.57 400.24 384.60 C 398.44 379.96 394.38 376.53 390.47 373.67 C 387.90 372.52 385.48 370.83 382.57 370.80 C 381.47 369.75 380.41 369.80 379.40 370.94 C 377.93 370.98 376.46 371.00 375.00 371.03 C 375.00 368.88 375.00 366.74 374.91 364.60 C 373.68 363.19 374.05 361.27 373.82 359.58 C 372.92 358.38 373.01 356.87 372.86 355.47 C 372.26 354.46 371.66 353.47 371.05 352.48 C 371.02 351.99 370.96 351.00 370.93 350.51 C 367.42 345.86 363.63 341.11 358.53 338.15 C 358.15 337.27 357.90 336.36 357.77 335.41 C 361.14 332.67 364.89 330.45 368.49 328.03 C 368.99 328.01 369.98 327.97 370.48 327.95 C 371.48 327.31 372.49 326.67 373.50 326.05 C 374.47 325.99 375.44 325.93 376.41 325.87 C 378.12 324.49 380.40 325.10 382.41 324.87 C 383.57 323.90 385.11 324.02 386.51 323.84 C 387.72 322.95 390.39 322.53 389.94 320.53 C 388.69 318.73 386.19 318.36 384.44 317.12 C 383.97 317.07 383.02 316.96 382.54 316.91 C 381.21 316.07 379.80 315.37 378.36 314.76 C 370.62 310.01 362.31 305.15 358.18 296.64 C 356.37 293.71 357.12 290.23 356.97 286.98 C 357.03 284.79 356.64 282.48 357.63 280.43 C 357.99 279.41 358.39 278.41 358.82 277.42 C 358.89 276.94 359.03 276.00 359.10 275.53 C 359.39 275.01 359.98 273.96 360.28 273.44 C 361.35 270.96 362.82 268.70 364.28 266.45 C 367.14 261.16 371.93 257.23 375.27 252.25 C 382.91 244.44 390.81 236.88 398.37 228.99 C 396.44 229.00 394.51 229.02 392.59 229.11 C 391.17 230.30 389.26 229.94 387.57 230.17 C 386.39 231.00 384.93 230.99 383.58 231.26 C 381.76 232.36 379.59 231.94 377.58 232.13 C 376.17 233.32 374.27 232.95 372.59 233.20 C 370.81 234.42 368.61 233.93 366.60 234.13 C 363.95 235.89 360.56 234.67 357.58 235.07 C 357.17 235.29 356.33 235.74 355.92 235.96 C 351.27 236.15 346.61 235.93 341.96 236.05 C 340.09 235.98 338.08 236.34 336.42 235.26 C 335.05 234.99 333.59 234.98 332.40 234.17 C 331.92 234.11 330.97 234.00 330.49 233.94 C 328.76 232.86 327.09 231.71 325.37 230.64 C 324.75 229.49 323.94 228.46 323.07 227.51 C 323.02 227.03 322.90 226.07 322.84 225.59 C 321.99 224.41 322.01 222.93 321.75 221.57 C 321.58 221.16 321.24 220.34 321.07 219.93 C 321.20 216.46 320.12 212.56 321.87 209.40 C 322.08 207.39 321.59 205.18 322.82 203.41 C 322.99 201.72 322.86 199.95 323.73 198.42 C 323.97 197.08 324.16 195.72 324.64 194.44 C 324.97 193.45 325.32 192.46 325.69 191.48 C 325.99 190.46 326.32 189.45 326.68 188.45 C 326.98 187.45 327.31 186.45 327.66 185.46 C 328.00 184.43 328.38 183.41 328.83 182.41 C 328.89 181.94 329.01 180.98 329.07 180.50 C 329.69 179.49 330.31 178.49 330.95 177.48 C 330.97 176.99 331.02 176.00 331.04 175.50 C 331.68 174.50 332.31 173.50 332.95 172.50 C 332.97 172.00 333.02 171.01 333.04 170.51 C 333.67 169.51 334.31 168.50 334.95 167.50 C 334.97 167.00 335.02 166.01 335.04 165.51 C 335.67 164.51 336.30 163.51 336.94 162.51 C 336.97 162.02 337.04 161.03 337.07 160.54 C 337.37 160.02 337.97 158.98 338.27 158.46 C 338.75 157.50 339.24 156.53 339.72 155.57 C 340.38 154.15 341.08 152.75 341.95 151.45 C 341.94 150.74 341.92 149.31 341.91 148.59 C 339.50 149.89 337.14 151.33 335.20 153.28 C 326.94 159.64 319.19 166.60 310.83 172.85 C 306.48 176.90 301.12 179.63 296.47 183.30 C 294.33 184.25 292.50 185.73 290.52 186.95 C 290.04 187.00 289.08 187.12 288.59 187.17 C 287.60 187.60 286.59 188.00 285.57 188.37 C 281.06 189.53 276.05 189.27 271.48 188.50 C 268.01 185.72 264.32 182.73 262.73 178.44 C 261.89 176.82 261.09 175.18 260.28 173.55 C 259.98 173.03 259.38 171.99 259.08 171.46 C 259.04 170.98 258.96 170.01 258.92 169.53 C 258.33 168.54 257.76 167.54 257.20 166.53 C 256.97 165.46 256.63 164.42 256.20 163.41 C 256.10 162.95 255.90 162.04 255.80 161.59 C 254.95 160.37 255.01 158.87 254.86 157.47 C 254.28 156.49 253.71 155.50 253.14 154.52 C 252.98 153.12 253.03 151.63 252.19 150.41 C 252.09 149.96 251.89 149.04 251.79 148.58 C 251.02 146.93 250.94 145.07 250.20 143.42 C 250.10 142.96 249.90 142.04 249.80 141.59 C 249.03 140.38 248.99 138.93 248.75 137.57 C 248.36 136.57 247.99 135.56 247.64 134.55 C 247.16 133.27 246.96 131.91 246.72 130.57 C 246.09 128.89 245.94 127.06 245.19 125.42 C 245.09 124.96 244.90 124.04 244.80 123.58 C 244.38 122.59 243.98 121.58 243.62 120.57 C 243.17 119.27 242.96 117.91 242.72 116.57 C 242.10 114.88 241.94 113.06 241.18 111.42 C 241.10 110.96 240.93 110.03 240.84 109.57 C 240.54 108.92 239.95 107.64 239.66 107.00 C 239.33 107.00 238.67 107.00 238.34 107.00 M 110.01 148.51 C 110.11 150.55 109.51 152.80 110.82 154.58 C 110.92 155.04 111.11 155.95 111.20 156.41 C 111.64 157.40 111.99 158.43 112.26 159.49 C 112.74 160.48 113.22 161.48 113.69 162.48 C 115.04 164.98 117.47 166.65 118.80 169.19 C 121.66 171.17 124.61 173.02 127.50 174.97 C 128.02 174.98 129.08 175.01 129.61 175.02 C 131.28 173.35 132.81 171.55 134.00 169.51 C 133.98 168.20 133.95 166.90 133.90 165.60 C 133.35 164.63 132.96 163.60 132.73 162.52 C 132.48 162.00 131.99 160.98 131.74 160.46 C 131.25 159.48 130.76 158.50 130.29 157.52 C 129.15 155.73 128.07 153.89 126.76 152.21 C 123.48 150.15 120.80 147.32 117.54 145.21 C 116.38 145.16 115.40 144.76 114.59 144.00 C 112.55 144.94 110.95 146.45 110.01 148.51 M 54.39 270.88 C 53.90 270.92 52.92 271.01 52.43 271.05 C 51.30 272.19 50.16 273.32 49.00 274.43 C 49.00 276.14 49.00 277.86 48.99 279.59 C 50.37 280.98 51.78 282.38 53.52 283.34 C 54.88 283.96 56.24 284.61 57.62 285.22 C 58.60 285.79 59.56 286.38 60.52 286.99 C 62.25 286.95 64.15 287.38 65.60 286.14 C 66.08 286.09 67.04 285.99 67.52 285.94 C 69.14 285.00 70.65 283.90 72.04 282.65 C 72.01 281.23 72.00 279.82 71.99 278.42 C 70.24 276.74 68.63 274.83 66.47 273.67 C 64.77 272.91 63.11 272.07 61.48 271.19 C 60.08 270.91 58.36 271.28 57.39 269.91 C 56.30 269.95 55.30 270.28 54.39 270.88 Z" />
</g>
<g id="#3a1003ff">
<path fill="#3a1003" opacity="1.00" d=" M 238.34 107.00 C 238.67 107.00 239.33 107.00 239.66 107.00 C 239.95 107.64 240.54 108.92 240.84 109.57 C 240.93 110.03 241.10 110.96 241.18 111.42 C 241.94 113.06 242.10 114.88 242.72 116.57 C 242.96 117.91 243.17 119.27 243.62 120.57 C 243.98 121.58 244.38 122.59 244.80 123.58 C 244.90 124.04 245.09 124.96 245.19 125.42 C 245.94 127.06 246.09 128.89 246.72 130.57 C 246.96 131.91 247.16 133.27 247.64 134.55 C 247.99 135.56 248.36 136.57 248.75 137.57 C 248.99 138.93 249.03 140.38 249.80 141.59 C 249.90 142.04 250.10 142.96 250.20 143.42 C 250.94 145.07 251.02 146.93 251.79 148.58 C 251.89 149.04 252.09 149.96 252.19 150.41 C 253.03 151.63 252.98 153.12 253.14 154.52 C 253.71 155.50 254.28 156.49 254.86 157.47 C 255.01 158.87 254.95 160.37 255.80 161.59 C 255.90 162.04 256.10 162.95 256.20 163.41 C 256.63 164.42 256.97 165.46 257.20 166.53 C 257.76 167.54 258.33 168.54 258.92 169.53 C 258.96 170.01 259.04 170.98 259.08 171.46 C 259.38 171.99 259.98 173.03 260.28 173.55 C 261.09 175.18 261.89 176.82 262.73 178.44 C 264.32 182.73 268.01 185.72 271.48 188.50 C 276.05 189.27 281.06 189.53 285.57 188.37 C 286.59 188.00 287.60 187.60 288.59 187.17 C 289.08 187.12 290.04 187.00 290.52 186.95 C 292.50 185.73 294.33 184.25 296.47 183.30 C 301.12 179.63 306.48 176.90 310.83 172.85 C 319.19 166.60 326.94 159.64 335.20 153.28 C 337.14 151.33 339.50 149.89 341.91 148.59 C 341.92 149.31 341.94 150.74 341.95 151.45 C 341.08 152.75 340.38 154.15 339.72 155.57 C 339.24 156.53 338.75 157.50 338.27 158.46 C 337.97 158.98 337.37 160.02 337.07 160.54 C 337.04 161.03 336.97 162.02 336.94 162.51 C 336.30 163.51 335.67 164.51 335.04 165.51 C 335.02 166.01 334.97 167.00 334.95 167.50 C 334.31 168.50 333.67 169.51 333.04 170.51 C 333.02 171.01 332.97 172.00 332.95 172.50 C 332.31 173.50 331.68 174.50 331.04 175.50 C 331.02 176.00 330.97 176.99 330.95 177.48 C 330.31 178.49 329.69 179.49 329.07 180.50 C 329.01 180.98 328.89 181.94 328.83 182.41 C 328.38 183.41 328.00 184.43 327.66 185.46 C 327.31 186.45 326.98 187.45 326.68 188.45 C 326.32 189.45 325.99 190.46 325.69 191.48 C 325.32 192.46 324.97 193.45 324.64 194.44 C 324.16 195.72 323.97 197.08 323.73 198.42 C 322.86 199.95 322.99 201.72 322.82 203.41 C 321.59 205.18 322.08 207.39 321.87 209.40 C 320.12 212.56 321.20 216.46 321.07 219.93 C 321.24 220.34 321.58 221.16 321.75 221.57 C 322.01 222.93 321.99 224.41 322.84 225.59 C 322.90 226.07 323.02 227.03 323.07 227.51 C 323.94 228.46 324.75 229.49 325.37 230.64 C 327.09 231.71 328.76 232.86 330.49 233.94 C 330.97 234.00 331.92 234.11 332.40 234.17 C 333.59 234.98 335.05 234.99 336.42 235.26 C 338.08 236.34 340.09 235.98 341.96 236.05 C 346.61 235.93 351.27 236.15 355.92 235.96 C 356.33 235.74 357.17 235.29 357.58 235.07 C 360.56 234.67 363.95 235.89 366.60 234.13 C 368.61 233.93 370.81 234.42 372.59 233.20 C 374.27 232.95 376.17 233.32 377.58 232.13 C 379.59 231.94 381.76 232.36 383.58 231.26 C 384.93 230.99 386.39 231.00 387.57 230.17 C 389.26 229.94 391.17 230.30 392.59 229.11 C 394.51 229.02 396.44 229.00 398.37 228.99 C 390.81 236.88 382.91 244.44 375.27 252.25 C 371.93 257.23 367.14 261.16 364.28 266.45 C 362.82 268.70 361.35 270.96 360.28 273.44 C 359.98 273.96 359.39 275.01 359.10 275.53 C 359.03 276.00 358.89 276.94 358.82 277.42 C 358.39 278.41 357.99 279.41 357.63 280.43 C 356.64 282.48 357.03 284.79 356.97 286.98 C 357.12 290.23 356.37 293.71 358.18 296.64 C 362.31 305.15 370.62 310.01 378.36 314.76 C 379.80 315.37 381.21 316.07 382.54 316.91 C 383.02 316.96 383.97 317.07 384.44 317.12 C 386.19 318.36 388.69 318.73 389.94 320.53 C 390.39 322.53 387.72 322.95 386.51 323.84 C 385.11 324.02 383.57 323.90 382.41 324.87 C 380.40 325.10 378.12 324.49 376.41 325.87 C 375.44 325.93 374.47 325.99 373.50 326.05 C 372.49 326.67 371.48 327.31 370.48 327.95 C 369.98 327.97 368.99 328.01 368.49 328.03 C 364.89 330.45 361.14 332.67 357.77 335.41 C 357.90 336.36 358.15 337.27 358.53 338.15 C 363.63 341.11 367.42 345.86 370.93 350.51 C 370.96 351.00 371.02 351.99 371.05 352.48 C 371.66 353.47 372.26 354.46 372.86 355.47 C 373.01 356.87 372.92 358.38 373.82 359.58 C 374.05 361.27 373.68 363.19 374.91 364.60 C 375.00 366.74 375.00 368.88 375.00 371.03 C 376.46 371.00 377.93 370.98 379.40 370.94 C 380.41 369.80 381.47 369.75 382.57 370.80 C 385.48 370.83 387.90 372.52 390.47 373.67 C 394.38 376.53 398.44 379.96 400.24 384.60 C 400.78 385.57 401.33 386.54 401.90 387.51 C 401.96 387.99 402.09 388.93 402.16 389.41 C 403.68 391.66 402.77 394.49 403.00 397.03 C 402.72 399.86 403.75 403.02 402.16 405.59 C 402.09 406.06 401.95 406.99 401.88 407.46 C 401.06 408.78 400.36 410.18 399.76 411.62 C 397.37 415.75 393.75 419.37 389.62 421.76 C 388.18 422.36 386.79 423.06 385.47 423.88 C 385.00 423.96 384.06 424.10 383.59 424.18 C 381.94 425.02 379.98 424.91 378.41 425.91 C 376.71 425.99 375.01 426.00 373.31 425.98 C 369.81 431.00 365.58 435.49 360.49 438.92 C 360.00 438.96 359.03 439.05 358.55 439.09 C 358.02 439.37 356.97 439.95 356.44 440.24 C 355.43 440.78 354.44 441.36 353.47 441.97 C 351.83 442.00 350.19 442.00 348.56 441.95 C 346.58 440.07 343.53 441.79 341.41 440.17 C 340.94 440.10 340.00 439.95 339.53 439.87 C 337.91 438.92 336.24 438.08 334.53 437.33 C 331.73 435.81 329.81 433.20 327.60 431.00 C 326.20 430.99 324.80 430.99 323.41 431.00 C 320.21 434.01 317.59 437.84 313.56 439.80 C 312.51 440.04 311.47 440.31 310.44 440.62 C 309.40 440.97 308.39 441.39 307.41 441.90 C 304.80 442.03 302.19 442.03 299.58 441.92 C 298.20 440.67 296.27 441.06 294.60 440.80 C 293.59 440.34 292.54 440.00 291.46 439.78 C 289.07 438.79 287.26 436.92 285.60 435.00 C 284.16 434.99 282.73 434.99 281.30 435.00 C 280.72 436.53 280.03 438.02 279.29 439.49 C 279.00 440.00 278.40 441.02 278.11 441.53 C 278.04 442.00 277.90 442.96 277.83 443.44 C 277.32 444.41 276.98 445.45 276.80 446.55 C 276.23 447.54 275.65 448.54 275.06 449.52 C 275.04 450.15 275.00 451.39 274.98 452.01 C 277.18 451.86 279.62 452.52 281.59 451.20 C 282.05 451.11 282.96 450.91 283.41 450.82 C 286.81 449.46 291.17 449.49 294.59 450.81 C 295.04 450.91 295.96 451.11 296.41 451.21 C 297.42 451.65 298.47 451.98 299.55 452.21 C 302.84 453.91 305.87 456.58 307.41 460.00 C 309.07 460.00 310.73 459.98 312.40 459.91 C 313.80 458.59 315.72 459.05 317.45 459.03 C 321.20 460.70 324.21 463.41 326.96 466.41 C 327.00 466.91 327.09 467.90 327.13 468.40 C 327.66 469.37 328.01 470.41 328.20 471.52 C 326.45 473.16 324.64 474.78 322.52 475.93 C 322.04 475.98 321.08 476.09 320.60 476.14 C 319.30 477.25 317.59 476.99 316.03 477.03 C 311.22 477.02 306.40 476.89 301.59 477.07 C 300.58 477.97 299.39 478.36 298.02 478.24 C 259.34 478.17 220.64 477.86 181.96 478.28 C 180.38 478.21 178.57 478.39 177.40 477.06 C 171.13 476.83 164.84 477.15 158.56 476.92 C 157.02 475.85 155.02 476.08 153.42 475.16 C 152.92 475.11 151.92 475.00 151.42 474.94 C 150.61 474.14 149.81 473.35 149.00 472.57 C 149.00 471.20 149.01 469.84 149.02 468.49 C 151.03 465.01 153.95 462.03 157.47 460.07 C 157.96 460.01 158.92 459.91 159.40 459.85 C 161.17 458.51 163.43 459.07 165.47 459.03 C 167.55 460.91 170.29 461.28 172.99 461.06 C 173.00 460.42 173.02 459.13 173.03 458.49 C 174.83 456.69 175.69 453.97 178.39 453.25 C 179.82 452.63 181.21 451.93 182.53 451.10 C 183.49 451.02 184.44 450.95 185.40 450.88 C 187.76 449.44 191.24 449.46 193.61 450.88 C 194.87 450.97 196.13 451.04 197.39 451.14 C 199.07 452.45 201.25 451.89 203.21 452.04 C 203.12 450.74 202.77 449.53 202.16 448.41 C 202.10 447.94 201.99 446.98 201.93 446.51 C 201.31 445.49 200.68 444.49 200.06 443.49 C 200.03 443.00 199.95 442.02 199.92 441.54 C 199.62 441.02 199.02 439.99 198.72 439.47 C 198.24 438.49 197.76 437.52 197.29 436.56 C 196.57 433.06 191.77 433.35 189.39 434.89 C 185.78 435.01 182.16 434.99 178.55 434.93 C 176.06 433.52 173.32 432.39 171.57 430.01 C 170.17 429.99 168.79 429.99 167.40 430.00 C 165.27 432.69 162.38 434.56 159.47 436.29 C 157.80 437.08 156.15 437.90 154.51 438.76 C 153.48 439.02 152.46 439.32 151.44 439.64 C 150.42 439.99 149.41 440.38 148.41 440.81 C 146.73 441.07 144.77 440.63 143.42 441.94 C 142.47 441.94 141.52 441.94 140.58 441.94 C 139.49 440.90 137.94 441.02 136.59 440.72 C 135.56 440.34 134.51 440.03 133.44 439.79 C 127.67 436.95 123.26 432.17 119.68 426.94 C 118.62 426.97 117.57 427.00 116.51 427.04 C 115.51 427.66 114.51 428.29 113.51 428.91 C 111.79 429.08 109.79 428.56 108.42 429.94 C 106.40 429.89 104.13 430.55 102.40 429.16 C 100.72 428.93 98.84 429.27 97.40 428.14 C 96.93 428.08 96.00 427.96 95.53 427.90 C 94.55 427.33 93.57 426.78 92.59 426.24 C 86.65 423.74 81.72 419.16 78.71 413.48 C 78.22 412.48 77.74 411.49 77.25 410.50 C 76.99 409.44 76.64 408.41 76.20 407.42 C 76.11 406.96 75.92 406.04 75.82 405.59 C 74.45 403.65 75.15 401.20 74.98 399.01 C 75.12 396.49 74.55 393.81 75.64 391.44 C 76.00 390.41 76.40 389.41 76.84 388.42 C 76.90 387.93 77.02 386.97 77.08 386.48 C 80.15 382.19 82.32 376.93 86.95 374.01 C 88.78 372.76 90.39 371.19 92.42 370.24 C 92.95 369.96 94.02 369.39 94.55 369.11 C 95.50 369.03 96.45 368.97 97.41 368.90 C 98.47 367.77 99.54 367.78 100.59 368.92 C 101.71 368.96 102.84 369.01 103.96 369.05 C 104.00 367.89 104.04 366.74 104.10 365.59 C 105.49 363.89 104.88 361.60 105.15 359.61 C 106.02 357.98 106.04 356.08 106.80 354.42 C 106.90 353.96 107.11 353.04 107.21 352.58 C 107.67 351.58 108.00 350.53 108.20 349.44 C 110.79 345.65 113.07 341.14 117.47 339.17 C 117.85 338.29 118.09 337.36 118.20 336.40 C 117.51 336.09 116.13 335.45 115.44 335.14 C 114.96 335.08 113.99 334.98 113.51 334.92 C 113.00 334.58 111.98 333.90 111.47 333.56 C 110.19 333.17 108.88 332.96 107.57 332.74 C 103.82 331.10 99.53 332.45 95.56 331.94 C 94.84 331.57 93.41 330.84 92.69 330.48 C 94.12 327.27 97.67 326.10 100.37 324.21 C 101.47 323.75 102.55 323.25 103.64 322.79 C 112.23 317.90 119.91 311.10 124.93 302.52 C 124.99 302.04 125.10 301.07 125.16 300.59 C 126.58 297.21 126.56 292.79 125.18 289.41 C 125.01 287.74 125.10 285.99 124.34 284.45 C 124.01 283.45 123.68 282.45 123.33 281.47 C 123.00 280.42 122.62 279.40 122.18 278.41 C 122.11 277.93 121.97 276.99 121.90 276.52 C 121.34 275.53 120.79 274.54 120.25 273.54 C 119.96 273.02 119.38 271.97 119.09 271.45 C 119.06 270.96 118.99 269.98 118.96 269.49 C 117.28 266.77 115.34 264.22 113.73 261.46 C 106.89 249.91 97.44 240.27 89.28 229.75 C 87.03 227.29 84.30 225.26 82.36 222.53 C 80.00 218.45 75.32 216.20 73.72 211.60 C 74.44 211.91 75.86 212.54 76.58 212.86 C 77.06 212.91 78.02 213.03 78.50 213.08 C 79.51 213.70 80.51 214.33 81.52 214.96 C 82.01 214.99 83.00 215.04 83.49 215.06 C 84.49 215.69 85.50 216.31 86.50 216.94 C 86.98 217.00 87.93 217.12 88.40 217.18 C 89.39 217.66 90.43 218.01 91.52 218.22 C 92.53 218.77 93.53 219.33 94.52 219.91 C 94.99 219.98 95.94 220.12 96.41 220.18 C 97.40 220.62 98.41 221.00 99.44 221.35 C 100.44 221.69 101.44 222.02 102.45 222.34 C 103.72 222.88 105.09 223.05 106.43 223.27 C 107.43 223.64 108.43 224.01 109.44 224.37 C 111.40 225.26 113.74 224.63 115.59 225.82 C 116.04 225.91 116.96 226.10 117.41 226.19 C 118.88 227.23 120.72 226.98 122.41 227.18 C 123.88 228.25 125.73 227.97 127.42 228.17 C 129.16 229.47 131.41 228.92 133.42 229.13 C 133.84 229.34 134.68 229.76 135.10 229.97 C 140.05 230.18 145.02 229.91 149.99 230.04 C 151.87 229.94 153.99 230.45 155.59 229.13 C 156.57 229.06 157.54 229.00 158.52 228.95 C 161.68 227.28 164.27 224.68 165.95 221.52 C 166.00 221.04 166.10 220.08 166.15 219.59 C 167.26 218.14 166.96 216.28 167.18 214.60 C 168.98 210.41 167.68 205.50 167.96 201.03 C 167.74 200.62 167.30 199.81 167.08 199.40 C 166.97 196.47 167.04 193.54 166.92 190.61 C 164.59 187.64 167.44 183.35 165.07 180.41 C 165.04 179.12 165.03 177.83 165.03 176.54 C 165.76 175.32 166.42 174.04 167.34 172.94 C 171.68 177.39 177.17 180.50 182.43 183.73 C 184.11 184.70 185.68 185.87 187.45 186.72 C 188.53 187.27 189.49 188.02 190.45 188.76 C 191.52 189.03 192.57 189.38 193.58 189.82 C 194.04 189.91 194.96 190.10 195.42 190.19 C 198.47 191.72 202.26 191.23 205.49 190.48 C 209.89 187.76 212.01 182.75 214.76 178.57 C 215.05 178.04 215.63 176.98 215.92 176.45 C 215.95 175.96 216.03 174.99 216.07 174.50 C 216.69 173.50 217.31 172.49 217.94 171.49 C 217.99 171.02 218.11 170.06 218.17 169.59 C 218.61 168.59 219.01 167.58 219.37 166.54 C 219.67 165.52 219.95 164.49 220.20 163.46 C 220.76 162.46 221.33 161.47 221.91 160.48 C 221.98 160.01 222.12 159.06 222.19 158.59 C 222.63 157.59 223.00 156.57 223.30 155.52 C 223.80 154.16 224.25 152.77 224.82 151.44 C 224.92 150.97 225.10 150.04 225.19 149.58 C 225.62 148.58 226.01 147.57 226.34 146.54 C 226.68 145.54 227.00 144.54 227.31 143.53 C 227.67 142.54 228.00 141.54 228.31 140.53 C 228.67 139.54 229.02 138.54 229.35 137.54 C 229.88 135.84 230.06 134.05 230.80 132.42 C 230.90 131.95 231.10 131.03 231.20 130.57 C 231.62 129.58 232.00 128.57 232.34 127.55 C 232.68 126.55 233.01 125.55 233.34 124.55 C 233.85 123.28 234.03 121.92 234.27 120.58 C 234.92 119.33 235.03 117.92 235.25 116.56 C 235.63 115.56 236.01 114.57 236.37 113.56 C 236.86 112.27 237.02 110.90 237.21 109.55 C 237.49 108.91 238.06 107.64 238.34 107.00 M 235.51 129.16 C 231.50 144.55 226.16 159.57 220.32 174.36 C 217.99 180.51 215.07 186.64 210.41 191.37 C 207.31 194.47 202.87 196.69 198.41 195.53 C 187.27 192.70 177.76 185.82 168.98 178.67 C 169.75 192.68 173.72 206.97 169.92 220.88 C 167.54 228.64 160.12 233.80 152.16 234.35 C 135.02 235.54 118.09 231.20 101.84 226.17 C 96.09 224.57 90.79 221.78 85.13 219.97 C 91.56 226.87 98.12 233.69 103.89 241.17 C 114.26 253.92 123.52 268.05 127.91 284.05 C 129.98 291.44 130.18 299.64 126.59 306.62 C 121.50 316.46 111.76 322.49 102.42 327.75 C 109.10 328.13 115.50 330.53 120.90 334.47 C 130.60 330.25 141.90 328.30 152.09 331.98 C 165.21 336.45 174.15 349.37 176.19 362.77 C 186.80 359.77 199.39 362.67 206.43 371.49 C 212.29 378.49 214.05 387.72 214.37 396.60 C 217.45 397.44 220.76 398.71 222.15 401.86 C 225.23 406.38 224.37 411.96 225.19 417.08 C 223.01 422.64 219.76 428.34 214.38 431.32 C 209.62 433.88 204.13 432.89 199.07 432.00 C 204.76 442.15 208.11 453.46 214.10 463.45 C 217.27 459.57 220.04 455.13 224.37 452.42 C 231.90 448.13 241.63 446.18 249.66 450.26 C 256.71 453.36 260.95 460.09 265.26 466.11 C 268.66 461.47 269.28 455.63 271.34 450.40 C 273.22 445.02 275.85 439.90 277.08 434.30 C 272.92 435.18 268.52 436.20 264.39 434.58 C 256.94 431.61 252.15 424.62 249.75 417.22 C 248.46 416.92 247.18 416.57 245.88 416.41 C 247.02 416.01 248.15 415.58 249.28 415.14 C 249.25 407.18 250.81 398.47 256.60 392.60 C 260.31 388.66 265.69 386.78 271.03 386.76 C 270.96 375.67 277.81 364.16 288.71 360.74 C 294.81 358.90 301.82 356.90 307.94 359.68 C 309.76 352.00 313.08 344.45 319.30 339.32 C 327.66 331.24 340.33 330.84 351.15 332.72 C 353.63 333.66 355.40 331.47 357.22 330.20 C 363.94 324.99 372.16 322.45 380.33 320.58 C 375.66 316.80 370.00 314.49 365.37 310.65 C 360.65 306.60 355.84 302.13 353.73 296.11 C 351.73 291.36 352.02 285.96 353.47 281.10 C 356.28 271.69 361.32 263.06 367.62 255.56 C 373.80 247.74 380.65 240.47 388.14 233.88 C 376.55 236.55 364.95 239.70 353.00 240.26 C 343.33 241.13 332.34 241.11 324.44 234.62 C 319.17 230.47 317.15 223.51 317.49 217.02 C 317.93 195.84 327.01 176.27 335.00 157.07 C 327.24 165.39 318.06 172.19 309.06 179.09 C 301.19 185.07 292.82 191.02 282.96 193.10 C 276.64 195.01 269.41 192.82 264.99 187.96 C 259.82 182.97 257.39 176.06 254.51 169.65 C 248.11 152.78 244.29 135.09 239.53 117.72 C 237.21 121.13 236.76 125.32 235.51 129.16 M 119.25 343.17 C 110.37 349.79 107.70 361.79 108.35 372.31 C 108.41 374.64 105.50 373.28 104.09 373.43 C 98.16 372.30 92.67 375.68 88.29 379.29 C 81.52 384.74 78.94 393.95 79.69 402.37 C 79.96 414.19 90.58 423.78 101.95 424.99 C 108.01 425.61 114.10 423.73 119.00 420.17 C 120.97 422.20 122.64 424.48 124.18 426.85 C 128.44 433.33 136.25 437.45 144.05 436.80 C 152.27 436.23 160.79 432.47 165.34 425.33 C 166.29 424.06 167.89 421.67 169.62 423.36 C 173.67 426.90 178.30 430.43 184.01 430.20 C 189.26 430.90 193.21 427.10 197.07 424.25 C 199.73 425.24 202.02 427.39 205.00 427.39 C 209.76 427.68 215.00 425.69 217.03 421.08 C 219.44 415.60 220.23 407.99 215.48 403.51 C 213.20 400.84 208.71 403.27 206.67 400.40 C 207.83 399.26 208.00 397.55 208.21 396.04 C 208.91 388.86 207.11 381.23 202.27 375.74 C 197.85 370.38 191.00 367.08 184.00 367.54 C 179.70 367.22 175.85 369.57 171.62 369.73 C 170.61 363.00 169.81 355.91 165.87 350.14 C 161.15 343.05 153.55 337.93 145.18 336.32 C 136.07 334.91 126.62 337.81 119.25 343.17 M 318.95 348.94 C 315.39 353.75 314.84 359.78 313.34 365.38 C 309.97 364.36 306.44 363.98 302.95 364.33 C 296.01 364.93 288.54 366.25 283.43 371.40 C 277.21 376.84 275.27 385.91 277.54 393.70 C 273.77 393.29 269.81 391.04 266.16 393.12 C 258.79 396.57 255.29 404.96 255.60 412.77 C 255.17 419.20 258.54 425.78 264.59 428.39 C 270.48 431.70 277.01 428.36 282.74 426.50 C 287.07 428.58 289.01 433.77 293.67 435.40 C 300.96 438.04 309.40 436.78 316.04 432.91 C 319.19 431.15 320.95 427.89 323.41 425.38 C 324.74 423.96 326.41 425.58 327.53 426.43 C 332.00 430.48 337.30 433.66 342.95 435.75 C 347.95 436.35 353.70 437.07 358.08 434.01 C 360.90 432.23 364.05 430.78 366.29 428.24 C 368.46 425.80 369.18 422.50 370.92 419.80 C 372.11 419.00 373.66 420.06 374.96 420.12 C 381.10 421.98 387.25 418.66 392.02 415.05 C 397.28 411.00 399.91 404.27 399.43 397.72 C 400.01 387.96 393.13 378.85 384.13 375.66 C 379.46 373.96 374.56 375.52 370.39 377.77 C 370.07 373.49 371.76 369.30 370.98 365.04 C 369.95 357.99 367.42 350.82 362.24 345.74 C 356.87 340.57 349.47 337.58 342.00 337.79 C 333.14 337.24 323.49 340.97 318.95 348.94 Z" />
</g>
<g id="#9d3507ff">
<path fill="#9d3507" opacity="1.00" d=" M 235.51 129.16 C 236.76 125.32 237.21 121.13 239.53 117.72 C 244.29 135.09 248.11 152.78 254.51 169.65 C 257.39 176.06 259.82 182.97 264.99 187.96 C 269.41 192.82 276.64 195.01 282.96 193.10 C 292.82 191.02 301.19 185.07 309.06 179.09 C 318.06 172.19 327.24 165.39 335.00 157.07 C 327.01 176.27 317.93 195.84 317.49 217.02 C 317.15 223.51 319.17 230.47 324.44 234.62 C 332.34 241.11 343.33 241.13 353.00 240.26 C 364.95 239.70 376.55 236.55 388.14 233.88 C 380.65 240.47 373.80 247.74 367.62 255.56 C 361.32 263.06 356.28 271.69 353.47 281.10 C 352.02 285.96 351.73 291.36 353.73 296.11 C 355.84 302.13 360.65 306.60 365.37 310.65 C 370.00 314.49 375.66 316.80 380.33 320.58 C 372.16 322.45 363.94 324.99 357.22 330.20 C 355.40 331.47 353.63 333.66 351.15 332.72 C 340.33 330.84 327.66 331.24 319.30 339.32 C 313.08 344.45 309.76 352.00 307.94 359.68 C 301.82 356.90 294.81 358.90 288.71 360.74 C 277.81 364.16 270.96 375.67 271.03 386.76 C 265.69 386.78 260.31 388.66 256.60 392.60 C 250.81 398.47 249.25 407.18 249.28 415.14 C 248.15 415.58 247.02 416.01 245.88 416.41 C 239.11 418.23 232.07 418.16 225.19 417.08 C 224.37 411.96 225.23 406.38 222.15 401.86 C 220.76 398.71 217.45 397.44 214.37 396.60 C 214.05 387.72 212.29 378.49 206.43 371.49 C 199.39 362.67 186.80 359.77 176.19 362.77 C 174.15 349.37 165.21 336.45 152.09 331.98 C 141.90 328.30 130.60 330.25 120.90 334.47 C 115.50 330.53 109.10 328.13 102.42 327.75 C 111.76 322.49 121.50 316.46 126.59 306.62 C 130.18 299.64 129.98 291.44 127.91 284.05 C 123.52 268.05 114.26 253.92 103.89 241.17 C 98.12 233.69 91.56 226.87 85.13 219.97 C 90.79 221.78 96.09 224.57 101.84 226.17 C 118.09 231.20 135.02 235.54 152.16 234.35 C 160.12 233.80 167.54 228.64 169.92 220.88 C 173.72 206.97 169.75 192.68 168.98 178.67 C 177.76 185.82 187.27 192.70 198.41 195.53 C 202.87 196.69 207.31 194.47 210.41 191.37 C 215.07 186.64 217.99 180.51 220.32 174.36 C 226.16 159.57 231.50 144.55 235.51 129.16 M 207.89 256.93 C 203.27 254.62 198.34 252.48 193.08 252.45 C 186.14 252.66 179.84 256.34 174.66 260.70 C 168.75 267.17 166.76 276.41 167.66 284.96 C 167.92 291.88 171.81 298.04 176.74 302.66 C 172.65 304.58 168.51 307.17 166.49 311.38 C 164.30 316.18 162.91 321.66 164.20 326.90 C 165.66 333.06 169.18 338.96 174.65 342.33 C 181.55 346.89 191.21 347.25 198.13 342.53 C 199.65 347.83 201.48 353.46 205.93 357.07 C 211.75 362.64 220.10 364.37 227.92 364.32 C 239.38 364.21 250.48 356.32 253.91 345.30 C 257.75 349.29 262.16 353.27 267.91 353.95 C 280.54 355.76 293.32 345.54 294.69 332.92 C 295.63 328.39 293.99 324.02 291.77 320.15 C 297.22 318.66 302.79 316.82 307.07 312.97 C 313.99 307.18 316.90 297.81 316.91 289.04 C 317.42 273.43 301.02 260.33 285.92 263.12 C 283.06 263.84 280.44 265.26 277.72 266.36 C 281.64 258.26 282.27 248.14 277.85 240.11 C 273.95 232.40 267.18 226.41 259.55 222.55 C 253.38 219.94 246.55 219.20 239.90 219.09 C 221.17 219.83 205.18 238.15 207.89 256.93 Z" />
</g>
<g id="#371103ff">
<path fill="#371103" opacity="1.00" d=" M 110.01 148.51 C 110.95 146.45 112.55 144.94 114.59 144.00 C 115.40 144.76 116.38 145.16 117.54 145.21 C 120.80 147.32 123.48 150.15 126.76 152.21 C 128.07 153.89 129.15 155.73 130.29 157.52 C 130.76 158.50 131.25 159.48 131.74 160.46 C 131.99 160.98 132.48 162.00 132.73 162.52 C 132.96 163.60 133.35 164.63 133.90 165.60 C 133.95 166.90 133.98 168.20 134.00 169.51 C 132.81 171.55 131.28 173.35 129.61 175.02 C 129.08 175.01 128.02 174.98 127.50 174.97 C 124.61 173.02 121.66 171.17 118.80 169.19 C 117.47 166.65 115.04 164.98 113.69 162.48 C 113.22 161.48 112.74 160.48 112.26 159.49 C 111.99 158.43 111.64 157.40 111.20 156.41 C 111.11 155.95 110.92 155.04 110.82 154.58 C 109.51 152.80 110.11 150.55 110.01 148.51 M 113.62 147.64 C 112.90 156.71 118.55 165.38 126.07 170.03 C 127.39 170.77 130.15 171.87 130.62 169.67 C 131.45 165.96 129.54 162.39 127.68 159.32 C 124.46 154.08 119.79 149.16 113.62 147.64 Z" />
</g>
<g id="#9e3107ff">
<path fill="#9e3107" opacity="1.00" d=" M 113.62 147.64 C 119.79 149.16 124.46 154.08 127.68 159.32 C 129.54 162.39 131.45 165.96 130.62 169.67 C 130.15 171.87 127.39 170.77 126.07 170.03 C 118.55 165.38 112.90 156.71 113.62 147.64 Z" />
</g>
<g id="#c16d0dff">
<path fill="#c16d0d" opacity="1.00" d=" M 207.89 256.93 C 205.18 238.15 221.17 219.83 239.90 219.09 C 246.55 219.20 253.38 219.94 259.55 222.55 C 267.18 226.41 273.95 232.40 277.85 240.11 C 282.27 248.14 281.64 258.26 277.72 266.36 C 280.44 265.26 283.06 263.84 285.92 263.12 C 301.02 260.33 317.42 273.43 316.91 289.04 C 316.90 297.81 313.99 307.18 307.07 312.97 C 302.79 316.82 297.22 318.66 291.77 320.15 C 293.99 324.02 295.63 328.39 294.69 332.92 C 293.32 345.54 280.54 355.76 267.91 353.95 C 262.16 353.27 257.75 349.29 253.91 345.30 C 250.48 356.32 239.38 364.21 227.92 364.32 C 220.10 364.37 211.75 362.64 205.93 357.07 C 201.48 353.46 199.65 347.83 198.13 342.53 C 191.21 347.25 181.55 346.89 174.65 342.33 C 169.18 338.96 165.66 333.06 164.20 326.90 C 162.91 321.66 164.30 316.18 166.49 311.38 C 168.51 307.17 172.65 304.58 176.74 302.66 C 171.81 298.04 167.92 291.88 167.66 284.96 C 166.76 276.41 168.75 267.17 174.66 260.70 C 179.84 256.34 186.14 252.66 193.08 252.45 C 198.34 252.48 203.27 254.62 207.89 256.93 Z" />
</g>
<g id="#3b1203ff">
<path fill="#3b1203" opacity="1.00" d=" M 54.39 270.88 C 55.30 270.28 56.30 269.95 57.39 269.91 C 58.36 271.28 60.08 270.91 61.48 271.19 C 63.11 272.07 64.77 272.91 66.47 273.67 C 68.63 274.83 70.24 276.74 71.99 278.42 C 72.00 279.82 72.01 281.23 72.04 282.65 C 70.65 283.90 69.14 285.00 67.52 285.94 C 67.04 285.99 66.08 286.09 65.60 286.14 C 64.15 287.38 62.25 286.95 60.52 286.99 C 59.56 286.38 58.60 285.79 57.62 285.22 C 56.24 284.61 54.88 283.96 53.52 283.34 C 51.78 282.38 50.37 280.98 48.99 279.59 C 49.00 277.86 49.00 276.14 49.00 274.43 C 50.16 273.32 51.30 272.19 52.43 271.05 C 52.92 271.01 53.90 270.92 54.39 270.88 M 53.51 278.38 C 57.62 281.34 63.67 282.91 68.31 280.25 C 65.14 276.16 59.85 275.16 54.97 274.85 C 52.98 274.57 51.47 277.29 53.51 278.38 Z" />
</g>
<g id="#a33207ff">
<path fill="#a33207" opacity="1.00" d=" M 53.51 278.38 C 51.47 277.29 52.98 274.57 54.97 274.85 C 59.85 275.16 65.14 276.16 68.31 280.25 C 63.67 282.91 57.62 281.34 53.51 278.38 Z" />
</g>
<g id="#ae3908ff">
<path fill="#ae3908" opacity="1.00" d=" M 119.25 343.17 C 126.62 337.81 136.07 334.91 145.18 336.32 C 153.55 337.93 161.15 343.05 165.87 350.14 C 169.81 355.91 170.61 363.00 171.62 369.73 C 175.85 369.57 179.70 367.22 184.00 367.54 C 191.00 367.08 197.85 370.38 202.27 375.74 C 207.11 381.23 208.91 388.86 208.21 396.04 C 208.00 397.55 207.83 399.26 206.67 400.40 C 201.77 404.83 195.11 408.15 188.35 406.59 C 183.23 405.89 179.67 401.91 175.45 399.39 C 173.63 398.17 172.69 400.74 171.77 401.88 C 168.48 407.72 163.36 413.24 156.52 414.56 C 149.91 415.33 143.13 412.12 139.00 407.00 C 135.47 402.74 134.62 397.11 132.32 392.21 C 128.65 400.76 123.61 409.92 114.32 413.27 C 106.79 416.86 97.93 416.34 90.67 412.33 C 85.49 410.83 83.89 405.17 79.69 402.37 C 78.94 393.95 81.52 384.74 88.29 379.29 C 92.67 375.68 98.16 372.30 104.09 373.43 C 105.50 373.28 108.41 374.64 108.35 372.31 C 107.70 361.79 110.37 349.79 119.25 343.17 Z" />
</g>
<g id="#ad3908ff">
<path fill="#ad3908" opacity="1.00" d=" M 318.95 348.94 C 323.49 340.97 333.14 337.24 342.00 337.79 C 349.47 337.58 356.87 340.57 362.24 345.74 C 367.42 350.82 369.95 357.99 370.98 365.04 C 371.76 369.30 370.07 373.49 370.39 377.77 C 374.56 375.52 379.46 373.96 384.13 375.66 C 393.13 378.85 400.01 387.96 399.43 397.72 C 395.47 402.00 392.29 407.78 386.15 409.15 C 380.29 411.19 374.55 408.25 368.93 406.98 C 366.27 407.47 364.46 409.89 362.17 411.20 C 358.38 413.84 353.40 413.05 349.26 411.77 C 344.13 410.04 338.80 408.01 335.05 403.93 C 331.64 400.48 330.49 395.61 328.10 391.51 C 324.75 400.16 321.98 410.38 313.20 415.13 C 304.32 419.69 293.38 413.79 289.70 405.12 C 287.19 411.16 281.55 415.15 275.66 417.51 C 268.73 419.94 260.81 417.84 255.60 412.77 C 255.29 404.96 258.79 396.57 266.16 393.12 C 269.81 391.04 273.77 393.29 277.54 393.70 C 275.27 385.91 277.21 376.84 283.43 371.40 C 288.54 366.25 296.01 364.93 302.95 364.33 C 306.44 363.98 309.97 364.36 313.34 365.38 C 314.84 359.78 315.39 353.75 318.95 348.94 Z" />
</g>
<g id="#802205ff">
<path fill="#802205" opacity="1.00" d=" M 313.20 415.13 C 321.98 410.38 324.75 400.16 328.10 391.51 C 330.49 395.61 331.64 400.48 335.05 403.93 C 338.80 408.01 344.13 410.04 349.26 411.77 C 353.40 413.05 358.38 413.84 362.17 411.20 C 364.46 409.89 366.27 407.47 368.93 406.98 C 374.55 408.25 380.29 411.19 386.15 409.15 C 392.29 407.78 395.47 402.00 399.43 397.72 C 399.91 404.27 397.28 411.00 392.02 415.05 C 387.25 418.66 381.10 421.98 374.96 420.12 C 373.66 420.06 372.11 419.00 370.92 419.80 C 369.18 422.50 368.46 425.80 366.29 428.24 C 364.05 430.78 360.90 432.23 358.08 434.01 C 353.70 437.07 347.95 436.35 342.95 435.75 C 337.30 433.66 332.00 430.48 327.53 426.43 C 326.41 425.58 324.74 423.96 323.41 425.38 C 320.95 427.89 319.19 431.15 316.04 432.91 C 309.40 436.78 300.96 438.04 293.67 435.40 C 289.01 433.77 287.07 428.58 282.74 426.50 C 277.01 428.36 270.48 431.70 264.59 428.39 C 258.54 425.78 255.17 419.20 255.60 412.77 C 260.81 417.84 268.73 419.94 275.66 417.51 C 281.55 415.15 287.19 411.16 289.70 405.12 C 293.38 413.79 304.32 419.69 313.20 415.13 Z" />
</g>
<g id="#812305ff">
<path fill="#812305" opacity="1.00" d=" M 114.32 413.27 C 123.61 409.92 128.65 400.76 132.32 392.21 C 134.62 397.11 135.47 402.74 139.00 407.00 C 143.13 412.12 149.91 415.33 156.52 414.56 C 163.36 413.24 168.48 407.72 171.77 401.88 C 172.69 400.74 173.63 398.17 175.45 399.39 C 179.67 401.91 183.23 405.89 188.35 406.59 C 195.11 408.15 201.77 404.83 206.67 400.40 C 208.71 403.27 213.20 400.84 215.48 403.51 C 220.23 407.99 219.44 415.60 217.03 421.08 C 215.00 425.69 209.76 427.68 205.00 427.39 C 202.02 427.39 199.73 425.24 197.07 424.25 C 193.21 427.10 189.26 430.90 184.01 430.20 C 178.30 430.43 173.67 426.90 169.62 423.36 C 167.89 421.67 166.29 424.06 165.34 425.33 C 160.79 432.47 152.27 436.23 144.05 436.80 C 136.25 437.45 128.44 433.33 124.18 426.85 C 122.64 424.48 120.97 422.20 119.00 420.17 C 114.10 423.73 108.01 425.61 101.95 424.99 C 90.58 423.78 79.96 414.19 79.69 402.37 C 83.89 405.17 85.49 410.83 90.67 412.33 C 97.93 416.34 106.79 416.86 114.32 413.27 Z" />
</g>
<g id="#551703ff">
<path fill="#551703" opacity="1.00" d=" M 225.19 417.08 C 232.07 418.16 239.11 418.23 245.88 416.41 C 247.18 416.57 248.46 416.92 249.75 417.22 C 252.15 424.62 256.94 431.61 264.39 434.58 C 268.52 436.20 272.92 435.18 277.08 434.30 C 275.85 439.90 273.22 445.02 271.34 450.40 C 269.28 455.63 268.66 461.47 265.26 466.11 C 260.95 460.09 256.71 453.36 249.66 450.26 C 241.63 446.18 231.90 448.13 224.37 452.42 C 220.04 455.13 217.27 459.57 214.10 463.45 C 208.11 453.46 204.76 442.15 199.07 432.00 C 204.13 432.89 209.62 433.88 214.38 431.32 C 219.76 428.34 223.01 422.64 225.19 417.08 Z" />
</g>
</svg>
