<?xml version="1.0" encoding="UTF-8" ?>
<!DOCTYPE svg PUBLIC "-//W3C//DTD SVG 1.1//EN" "http://www.w3.org/Graphics/SVG/1.1/DTD/svg11.dtd">
<svg width="452pt" height="479pt" viewBox="0 0 452 479" version="1.1" xmlns="http://www.w3.org/2000/svg">
<g id="#ffffffff">
<path fill="#ffffff" opacity="1.00" d=" M 0.00 0.00 L 452.00 0.00 L 452.00 479.00 L 0.00 479.00 L 0.00 0.00 M 224.76 161.74 C 220.74 162.72 216.49 162.92 212.68 164.68 C 206.83 167.55 200.59 170.17 196.24 175.23 C 187.88 182.58 183.98 193.53 181.74 204.14 C 174.21 202.38 166.24 202.48 158.84 204.88 C 154.00 206.68 148.92 208.43 145.24 212.24 C 142.04 215.72 137.99 218.57 135.92 222.94 C 132.68 227.43 131.54 232.94 130.17 238.20 C 129.75 243.06 130.15 247.95 130.00 252.83 C 124.17 253.27 118.95 256.91 114.72 260.73 C 110.96 265.72 107.15 271.16 106.55 277.58 C 104.90 282.98 106.90 288.39 107.20 293.80 C 108.18 300.61 112.37 306.29 116.26 311.74 C 122.06 318.15 130.81 320.59 139.07 321.92 C 144.00 322.15 148.94 321.89 153.87 322.00 C 157.58 330.79 166.31 336.17 175.10 338.92 C 179.13 340.69 183.61 339.83 187.87 339.98 C 188.62 341.31 189.44 342.62 189.92 344.09 C 192.94 354.97 196.49 365.77 197.96 377.02 C 198.56 383.35 200.31 389.54 200.06 395.94 C 201.62 401.18 200.86 406.69 200.96 412.08 C 199.56 411.94 197.95 412.28 196.80 411.23 C 190.01 406.67 181.44 404.54 173.37 406.33 C 170.01 407.95 166.66 409.61 163.36 411.37 C 156.50 416.13 154.03 424.99 153.95 432.94 C 149.47 432.80 144.90 433.78 140.98 435.98 C 136.61 438.75 133.69 443.32 132.18 448.19 C 129.32 459.08 136.61 471.62 147.60 474.38 C 151.95 476.01 156.62 475.81 161.06 476.95 C 180.71 477.07 200.37 476.95 220.02 477.00 C 222.06 476.97 223.93 478.04 225.98 478.04 C 253.65 477.98 281.34 478.01 309.01 478.02 C 313.18 477.45 317.31 476.46 321.39 475.40 C 325.96 474.32 329.44 470.82 332.21 467.21 C 334.73 464.38 333.70 460.33 335.01 456.99 C 333.92 449.83 330.15 443.01 324.02 438.99 C 320.28 436.95 316.14 435.78 312.02 434.75 C 312.55 429.69 310.76 424.83 308.67 420.32 C 304.55 416.12 300.73 411.39 295.59 408.38 C 292.78 407.33 289.86 406.58 286.93 405.98 C 282.69 406.22 278.70 407.96 275.03 410.01 C 273.52 411.01 271.72 411.05 269.99 411.09 C 269.94 408.91 269.90 406.69 270.59 404.60 C 272.05 393.41 274.04 382.20 277.35 371.38 C 279.85 359.98 283.50 348.79 288.26 338.12 C 297.87 337.57 306.54 331.54 312.25 324.03 C 317.48 323.89 322.71 324.14 327.94 323.94 C 333.93 322.64 340.30 321.94 345.61 318.62 C 351.87 314.68 357.45 309.24 360.35 302.35 C 365.94 291.22 365.07 277.18 358.20 266.80 C 356.16 264.51 353.93 262.39 351.74 260.26 C 348.47 257.32 343.94 256.74 339.84 255.74 C 341.62 250.66 340.85 245.25 341.02 239.98 C 341.02 230.52 336.57 221.61 330.19 214.83 C 323.12 209.24 315.33 204.12 306.25 202.72 C 299.56 200.47 292.96 204.52 286.19 204.04 C 285.58 199.18 284.34 194.33 282.02 189.98 C 278.23 182.29 273.10 174.88 265.62 170.38 C 260.96 166.84 255.30 165.11 249.89 163.08 C 246.39 161.64 242.52 162.19 238.94 161.06 C 234.22 161.05 229.37 160.47 224.76 161.74 M 109.37 347.35 C 101.61 349.18 92.86 352.55 89.10 360.10 C 86.54 364.09 89.84 368.50 92.76 371.25 C 96.44 373.62 101.49 375.34 105.36 372.35 C 111.35 370.18 115.42 365.17 119.65 360.67 C 122.04 356.83 121.83 350.89 118.03 348.01 C 115.52 346.32 112.18 346.90 109.37 347.35 Z" />
</g>
<g id="#3d1102ff">
<path fill="#3d1102" opacity="1.00" d=" M 224.76 161.74 C 229.37 160.47 234.22 161.05 238.94 161.06 C 242.52 162.19 246.39 161.64 249.89 163.08 C 255.30 165.11 260.96 166.84 265.62 170.38 C 273.10 174.88 278.23 182.29 282.02 189.98 C 284.34 194.33 285.58 199.18 286.19 204.04 C 292.96 204.52 299.56 200.47 306.25 202.72 C 315.33 204.12 323.12 209.24 330.19 214.83 C 336.57 221.61 341.02 230.52 341.02 239.98 C 340.85 245.25 341.62 250.66 339.84 255.74 C 343.94 256.74 348.47 257.32 351.74 260.26 C 353.93 262.39 356.16 264.51 358.20 266.80 C 365.07 277.18 365.94 291.22 360.35 302.35 C 357.45 309.24 351.87 314.68 345.61 318.62 C 340.30 321.94 333.93 322.64 327.94 323.94 C 322.71 324.14 317.48 323.89 312.25 324.03 C 306.54 331.54 297.87 337.57 288.26 338.12 C 283.50 348.79 279.85 359.98 277.35 371.38 C 274.04 382.20 272.05 393.41 270.59 404.60 C 269.90 406.69 269.94 408.91 269.99 411.09 C 271.72 411.05 273.52 411.01 275.03 410.01 C 278.70 407.96 282.69 406.22 286.93 405.98 C 289.86 406.58 292.78 407.33 295.59 408.38 C 300.73 411.39 304.55 416.12 308.67 420.32 C 310.76 424.83 312.55 429.69 312.02 434.75 C 316.14 435.78 320.28 436.95 324.02 438.99 C 330.15 443.01 333.92 449.83 335.01 456.99 C 333.70 460.33 334.73 464.38 332.21 467.21 C 329.44 470.82 325.96 474.32 321.39 475.40 C 317.31 476.46 313.18 477.45 309.01 478.02 C 281.34 478.01 253.65 477.98 225.98 478.04 C 223.93 478.04 222.06 476.97 220.02 477.00 C 200.37 476.95 180.71 477.07 161.06 476.95 C 156.62 475.81 151.95 476.01 147.60 474.38 C 136.61 471.62 129.32 459.08 132.18 448.19 C 133.69 443.32 136.61 438.75 140.98 435.98 C 144.90 433.78 149.47 432.80 153.95 432.94 C 154.03 424.99 156.50 416.13 163.36 411.37 C 166.66 409.61 170.01 407.95 173.37 406.33 C 181.44 404.54 190.01 406.67 196.80 411.23 C 197.95 412.28 199.56 411.94 200.96 412.08 C 200.86 406.69 201.62 401.18 200.06 395.94 C 200.31 389.54 198.56 383.35 197.96 377.02 C 196.49 365.77 192.94 354.97 189.92 344.09 C 189.44 342.62 188.62 341.31 187.87 339.98 C 183.61 339.83 179.13 340.69 175.10 338.92 C 166.31 336.17 157.58 330.79 153.87 322.00 C 148.94 321.89 144.00 322.15 139.07 321.92 C 130.81 320.59 122.06 318.15 116.26 311.74 C 112.37 306.29 108.18 300.61 107.20 293.80 C 106.90 288.39 104.90 282.98 106.55 277.58 C 107.15 271.16 110.96 265.72 114.72 260.73 C 118.95 256.91 124.17 253.27 130.00 252.83 C 130.15 247.95 129.75 243.06 130.17 238.20 C 131.54 232.94 132.68 227.43 135.92 222.94 C 137.99 218.57 142.04 215.72 145.24 212.24 C 148.92 208.43 154.00 206.68 158.84 204.88 C 166.24 202.48 174.21 202.38 181.74 204.14 C 183.98 193.53 187.88 182.58 196.24 175.23 C 200.59 170.17 206.83 167.55 212.68 164.68 C 216.49 162.92 220.74 162.72 224.76 161.74 M 213.85 168.80 C 205.36 171.76 198.12 177.75 193.10 185.15 C 188.34 192.55 186.40 201.30 185.96 209.99 C 178.24 208.25 170.20 206.17 162.33 208.40 C 148.69 212.01 136.99 223.86 134.88 238.02 C 133.44 244.11 134.82 250.27 135.47 256.35 C 127.74 256.67 120.55 260.80 116.10 267.07 C 110.68 273.86 110.14 283.20 111.79 291.43 C 112.46 298.49 115.68 305.31 120.85 310.19 C 126.17 314.78 133.21 316.87 140.03 317.90 C 145.30 318.79 150.52 317.53 155.73 316.89 C 157.64 320.32 159.41 323.98 162.46 326.58 C 168.83 332.24 177.24 336.50 185.99 335.28 C 195.83 334.96 202.41 326.68 208.28 319.82 C 211.04 323.43 212.06 328.28 215.97 331.03 C 228.81 343.01 251.60 339.53 261.05 325.02 C 262.28 323.55 263.07 320.39 265.57 321.29 C 268.83 324.05 271.74 327.23 275.18 329.80 C 280.95 335.03 289.96 334.99 296.66 331.63 C 302.93 328.09 308.36 323.05 312.29 317.00 C 322.49 320.29 334.33 320.47 343.69 314.68 C 353.64 308.75 360.56 296.88 358.90 285.19 C 358.97 275.35 352.95 264.92 343.34 261.71 C 340.29 260.49 337.05 261.57 333.98 262.06 C 335.00 257.06 337.12 252.23 337.01 247.05 C 337.09 237.88 335.49 227.94 329.18 220.86 C 323.42 213.58 314.66 209.11 305.63 207.44 C 297.69 206.01 289.89 208.71 282.13 210.01 C 281.99 204.45 281.68 198.77 279.36 193.62 C 273.51 178.59 258.82 168.11 243.07 165.78 C 233.28 163.96 223.17 165.54 213.85 168.80 M 235.79 343.61 C 224.52 344.38 213.80 338.59 206.90 329.91 C 203.64 332.66 200.60 335.79 196.69 337.65 C 195.50 338.44 193.85 338.76 193.07 340.03 C 199.82 357.93 202.49 377.04 204.72 395.96 C 205.14 401.08 204.77 406.23 205.12 411.36 C 208.30 409.17 210.23 405.60 213.56 403.55 C 221.40 397.74 232.03 395.01 241.40 398.58 C 251.44 401.08 259.04 409.19 263.25 418.35 C 264.12 417.55 265.25 416.87 265.53 415.63 C 266.80 409.96 266.72 404.11 267.45 398.38 C 269.10 389.20 270.19 379.91 273.01 370.99 C 275.18 360.09 278.99 349.64 282.99 339.30 C 276.32 337.87 271.09 333.38 266.05 329.09 C 258.65 337.89 247.55 344.23 235.79 343.61 M 216.80 408.79 C 210.92 412.84 207.37 419.23 203.86 425.26 C 199.75 418.62 192.96 413.92 185.54 411.67 C 178.58 410.22 170.69 411.36 165.34 416.34 C 161.38 419.72 159.68 424.97 159.28 430.02 C 158.86 434.34 161.09 438.25 162.02 442.36 C 158.28 442.35 156.07 437.95 152.19 438.52 C 148.04 439.13 143.23 439.89 140.59 443.54 C 138.44 446.57 135.83 449.92 136.30 453.86 C 137.44 460.52 141.17 467.52 148.04 469.61 C 149.27 469.95 149.81 468.36 149.31 467.45 C 147.34 461.73 151.84 455.95 157.01 453.89 C 160.98 451.82 165.48 452.77 169.66 453.49 C 171.49 450.08 172.10 445.85 174.59 442.65 C 177.87 436.89 184.54 433.80 190.99 433.66 C 200.68 434.78 208.22 442.54 212.60 450.77 C 215.50 444.22 221.41 439.28 228.11 436.97 C 232.00 436.40 236.02 436.36 239.90 437.00 C 244.36 438.39 248.23 441.22 251.82 444.15 C 255.49 447.12 257.47 451.52 259.37 455.72 C 262.68 452.49 265.79 448.85 270.20 447.09 C 275.28 444.41 281.93 443.35 286.71 447.24 C 290.93 451.10 293.62 456.42 295.22 461.87 C 299.31 460.52 303.72 460.26 307.72 462.08 C 311.79 462.91 313.78 467.17 317.78 468.13 C 319.64 468.63 321.54 469.81 323.51 469.50 C 325.80 467.87 327.80 465.75 329.17 463.29 C 330.70 458.31 329.24 452.78 326.42 448.53 C 323.74 444.72 319.45 441.22 314.53 441.76 C 311.52 443.00 308.88 445.01 305.78 446.08 C 306.14 438.39 308.79 429.70 304.18 422.77 C 301.43 418.66 297.64 415.03 293.09 413.01 C 286.00 410.54 278.45 413.70 272.51 417.56 C 267.79 420.67 265.63 426.06 262.11 430.25 C 259.80 425.73 258.22 420.83 255.42 416.57 C 250.16 408.93 241.52 403.10 232.00 403.22 C 226.39 402.89 221.25 405.68 216.80 408.79 Z" />
<path fill="#3d1102" opacity="1.00" d=" M 109.37 347.35 C 112.18 346.90 115.52 346.32 118.03 348.01 C 121.83 350.89 122.04 356.83 119.65 360.67 C 115.42 365.17 111.35 370.18 105.36 372.35 C 101.49 375.34 96.44 373.62 92.76 371.25 C 89.84 368.50 86.54 364.09 89.10 360.10 C 92.86 352.55 101.61 349.18 109.37 347.35 M 112.47 351.42 C 105.48 351.76 99.04 355.27 94.20 360.17 C 92.61 361.48 92.98 363.80 93.42 365.57 C 95.43 368.95 99.93 369.82 103.41 368.38 C 108.29 366.33 112.28 362.63 115.62 358.60 C 117.20 356.92 117.23 354.45 116.74 352.33 C 115.79 350.89 113.90 351.39 112.47 351.42 Z" />
</g>
<g id="#ae3a08ff">
<path fill="#ae3a08" opacity="1.00" d=" M 213.85 168.80 C 223.17 165.54 233.28 163.96 243.07 165.78 C 258.82 168.11 273.51 178.59 279.36 193.62 C 281.68 198.77 281.99 204.45 282.13 210.01 C 289.89 208.71 297.69 206.01 305.63 207.44 C 314.66 209.11 323.42 213.58 329.18 220.86 C 335.49 227.94 337.09 237.88 337.01 247.05 C 337.12 252.23 335.00 257.06 333.98 262.06 C 337.05 261.57 340.29 260.49 343.34 261.71 C 352.95 264.92 358.97 275.35 358.90 285.19 C 358.62 284.67 358.07 283.62 357.79 283.10 C 354.97 288.01 351.49 292.91 346.05 295.11 C 338.81 298.95 329.33 297.11 323.67 291.33 C 321.28 288.93 320.62 285.49 319.86 282.32 C 314.96 287.32 307.32 287.87 300.86 286.23 C 294.37 284.54 287.82 281.80 283.18 276.79 C 279.79 273.22 277.29 268.94 274.76 264.75 C 269.50 273.75 261.23 280.94 251.29 284.27 C 243.76 286.57 235.68 288.11 227.87 286.28 C 217.13 284.20 208.23 276.63 202.47 267.59 C 199.42 262.75 197.99 257.18 196.51 251.73 C 194.74 256.64 195.42 261.94 194.94 267.05 C 194.30 275.37 191.04 284.06 184.05 289.09 C 180.60 291.46 176.89 293.74 172.76 294.70 C 165.23 294.91 159.03 289.95 154.00 284.89 C 148.98 288.91 144.98 294.21 139.18 297.20 C 134.38 299.69 128.58 302.74 123.26 299.84 C 118.54 298.25 116.78 292.35 111.79 291.43 C 110.14 283.20 110.68 273.86 116.10 267.07 C 120.55 260.80 127.74 256.67 135.47 256.35 C 134.82 250.27 133.44 244.11 134.88 238.02 C 136.99 223.86 148.69 212.01 162.33 208.40 C 170.20 206.17 178.24 208.25 185.96 209.99 C 186.40 201.30 188.34 192.55 193.10 185.15 C 198.12 177.75 205.36 171.76 213.85 168.80 Z" />
<path fill="#ae3a08" opacity="1.00" d=" M 112.47 351.42 C 113.90 351.39 115.79 350.89 116.74 352.33 C 117.23 354.45 117.20 356.92 115.62 358.60 C 112.28 362.63 108.29 366.33 103.41 368.38 C 99.93 369.82 95.43 368.95 93.42 365.57 C 92.98 363.80 92.61 361.48 94.20 360.17 C 99.04 355.27 105.48 351.76 112.47 351.42 Z" />
</g>
<g id="#751f05ff">
<path fill="#751f05" opacity="1.00" d=" M 194.94 267.05 C 195.42 261.94 194.74 256.64 196.51 251.73 C 197.99 257.18 199.42 262.75 202.47 267.59 C 208.23 276.63 217.13 284.20 227.87 286.28 C 235.68 288.11 243.76 286.57 251.29 284.27 C 261.23 280.94 269.50 273.75 274.76 264.75 C 277.29 268.94 279.79 273.22 283.18 276.79 C 287.82 281.80 294.37 284.54 300.86 286.23 C 307.32 287.87 314.96 287.32 319.86 282.32 C 320.62 285.49 321.28 288.93 323.67 291.33 C 329.33 297.11 338.81 298.95 346.05 295.11 C 351.49 292.91 354.97 288.01 357.79 283.10 C 358.07 283.62 358.62 284.67 358.90 285.19 C 360.56 296.88 353.64 308.75 343.69 314.68 C 334.33 320.47 322.49 320.29 312.29 317.00 C 308.36 323.05 302.93 328.09 296.66 331.63 C 289.96 334.99 280.95 335.03 275.18 329.80 C 271.74 327.23 268.83 324.05 265.57 321.29 C 263.07 320.39 262.28 323.55 261.05 325.02 C 251.60 339.53 228.81 343.01 215.97 331.03 C 212.06 328.28 211.04 323.43 208.28 319.82 C 202.41 326.68 195.83 334.96 185.99 335.28 C 177.24 336.50 168.83 332.24 162.46 326.58 C 159.41 323.98 157.64 320.32 155.73 316.89 C 150.52 317.53 145.30 318.79 140.03 317.90 C 133.21 316.87 126.17 314.78 120.85 310.19 C 115.68 305.31 112.46 298.49 111.79 291.43 C 116.78 292.35 118.54 298.25 123.26 299.84 C 128.58 302.74 134.38 299.69 139.18 297.20 C 144.98 294.21 148.98 288.91 154.00 284.89 C 159.03 289.95 165.23 294.91 172.76 294.70 C 176.89 293.74 180.60 291.46 184.05 289.09 C 191.04 284.06 194.30 275.37 194.94 267.05 Z" />
<path fill="#751f05" opacity="1.00" d=" M 235.79 343.61 C 247.55 344.23 258.65 337.89 266.05 329.09 C 271.09 333.38 276.32 337.87 282.99 339.30 C 278.99 349.64 275.18 360.09 273.01 370.99 C 270.19 379.91 269.10 389.20 267.45 398.38 C 266.72 404.11 266.80 409.96 265.53 415.63 C 265.25 416.87 264.12 417.55 263.25 418.35 C 259.04 409.19 251.44 401.08 241.40 398.58 C 232.03 395.01 221.40 397.74 213.56 403.55 C 210.23 405.60 208.30 409.17 205.12 411.36 C 204.77 406.23 205.14 401.08 204.72 395.96 C 202.49 377.04 199.82 357.93 193.07 340.03 C 193.85 338.76 195.50 338.44 196.69 337.65 C 200.60 335.79 203.64 332.66 206.90 329.91 C 213.80 338.59 224.52 344.38 235.79 343.61 Z" />
<path fill="#751f05" opacity="1.00" d=" M 216.80 408.79 C 221.25 405.68 226.39 402.89 232.00 403.22 C 241.52 403.10 250.16 408.93 255.42 416.57 C 258.22 420.83 259.80 425.73 262.11 430.25 C 265.63 426.06 267.79 420.67 272.51 417.56 C 278.45 413.70 286.00 410.54 293.09 413.01 C 297.64 415.03 301.43 418.66 304.18 422.77 C 308.79 429.70 306.14 438.39 305.78 446.08 C 308.88 445.01 311.52 443.00 314.53 441.76 C 319.45 441.22 323.74 444.72 326.42 448.53 C 329.24 452.78 330.70 458.31 329.17 463.29 C 327.80 465.75 325.80 467.87 323.51 469.50 C 321.54 469.81 319.64 468.63 317.78 468.13 C 313.78 467.17 311.79 462.91 307.72 462.08 C 303.72 460.26 299.31 460.52 295.22 461.87 C 293.62 456.42 290.93 451.10 286.71 447.24 C 281.93 443.35 275.28 444.41 270.20 447.09 C 265.79 448.85 262.68 452.49 259.37 455.72 C 257.47 451.52 255.49 447.12 251.82 444.15 C 248.23 441.22 244.36 438.39 239.90 437.00 C 236.02 436.36 232.00 436.40 228.11 436.97 C 221.41 439.28 215.50 444.22 212.60 450.77 C 208.22 442.54 200.68 434.78 190.99 433.66 C 184.54 433.80 177.87 436.89 174.59 442.65 C 172.10 445.85 171.49 450.08 169.66 453.49 C 165.48 452.77 160.98 451.82 157.01 453.89 C 151.84 455.95 147.34 461.73 149.31 467.45 C 149.81 468.36 149.27 469.95 148.04 469.61 C 141.17 467.52 137.44 460.52 136.30 453.86 C 135.83 449.92 138.44 446.57 140.59 443.54 C 143.23 439.89 148.04 439.13 152.19 438.52 C 156.07 437.95 158.28 442.35 162.02 442.36 C 161.09 438.25 158.86 434.34 159.28 430.02 C 159.68 424.97 161.38 419.72 165.34 416.34 C 170.69 411.36 178.58 410.22 185.54 411.67 C 192.96 413.92 199.75 418.62 203.86 425.26 C 207.37 419.23 210.92 412.84 216.80 408.79 Z" />
</g>
</svg>
